<svg width="137" height="203" viewBox="0 0 137 203" fill="none" xmlns="http://www.w3.org/2000/svg">
<path fill-rule="evenodd" clip-rule="evenodd" d="M120.179 76.0677C120.179 76.0677 133.506 61.2118 133.069 50.0698C132.632 38.9278 124.986 23.198 79.3255 9.87135C33.6653 -3.45531 10.5075 5.06501 6.79353 14.6777C4.38471 20.9123 4.14832 26.117 3.88395 31.9381C3.74071 35.0922 3.58925 38.4271 3.07954 42.2049L31.4806 35.2139C31.4806 35.2139 59.8817 35.6508 73.4268 38.9278C86.972 42.2049 101.391 56.187 101.391 56.187L120.179 76.0677Z" fill="#7EAFF7"/>
<path d="M120.179 76.0677C120.179 76.0677 101.391 85.6804 86.972 85.025C72.553 84.3695 38.0347 76.0677 28.2036 70.6059C18.3724 65.1442 7.30119 52.6289 3.07954 42.2049L31.4806 35.2139C31.4806 35.2139 53.5461 51.3806 66.4358 56.187C79.3255 60.9933 101.391 56.187 101.391 56.187L120.179 76.0677Z" fill="#7EAFF7"/>
<path d="M120.179 76.0677C120.179 76.0677 101.391 85.6804 86.972 85.025C72.553 84.3695 38.0347 76.0677 28.2036 70.6059C18.3724 65.1442 7.30119 52.6289 3.07954 42.2049M120.179 76.0677C120.179 76.0677 133.506 61.2118 133.069 50.0698C132.632 38.9278 124.986 23.198 79.3255 9.87135C33.6653 -3.45531 10.5075 5.06501 6.79353 14.6777C4.38471 20.9123 4.14832 26.117 3.88395 31.9381C3.74071 35.0922 3.58925 38.4271 3.07954 42.2049M120.179 76.0677L101.391 56.187M3.07954 42.2049C14.1709 39.4747 31.4806 35.2139 31.4806 35.2139M3.07954 42.2049L31.4806 35.2139M101.391 56.187C101.391 56.187 79.3255 60.9933 66.4358 56.187C53.5461 51.3806 31.4806 35.2139 31.4806 35.2139M101.391 56.187C101.391 56.187 86.972 42.2049 73.4268 38.9278C59.8817 35.6508 31.4806 35.2139 31.4806 35.2139" stroke="#377FEC" stroke-width="6" stroke-linecap="round"/>
<path fill-rule="evenodd" clip-rule="evenodd" d="M39.3449 191.639C35.6309 207.805 2.86035 197.756 8.10373 180.715C9.3175 176.771 11.0347 171.398 12.9571 165.382C19.3395 145.412 27.9845 118.362 27.9845 112.99C27.9845 111.208 27.8284 107.638 27.6356 103.228C27.0718 90.3342 26.1938 70.2554 27.9845 66.674C28.1864 66.2702 28.3883 65.8541 28.5948 65.4283C30.8469 60.7864 33.6535 55.0015 43.0589 51.5996C50.8166 48.7936 64.3106 54.3427 73.8368 58.2602C76.9195 59.5279 79.5867 60.6247 81.5096 61.2122C89.3745 63.6154 89.1559 80.8745 86.9713 86.5547C85.9606 89.1829 81.8629 94.3367 77.3401 100.025C72.0879 106.631 66.2624 113.958 64.032 118.888C63.6082 119.825 63.0522 121.161 62.3916 122.821C60.6818 127.118 58.2707 133.589 55.6344 140.954C49.3138 158.61 41.6981 181.395 39.3449 191.639Z" fill="#7EAFF7"/>
<path d="M64.032 144.886C58.7886 144.886 55.6344 140.954 55.6344 140.954C58.2707 133.589 60.6818 127.118 62.3916 122.821C62.3916 122.821 70.3677 124.787 71.6785 128.282C72.9894 131.778 69.2754 144.886 64.032 144.886Z" fill="#7EAFF7"/>
<path d="M55.6344 140.954C49.3138 158.61 41.6981 181.395 39.3449 191.639C35.6309 207.805 2.86035 197.756 8.10373 180.715C9.3175 176.771 11.0347 171.398 12.9571 165.382C19.3395 145.412 27.9845 118.362 27.9845 112.99C27.9845 111.208 27.8284 107.638 27.6356 103.228C27.0718 90.3342 26.1938 70.2554 27.9845 66.674C28.1864 66.2702 28.3883 65.8541 28.5948 65.4283C30.8469 60.7864 33.6535 55.0015 43.0589 51.5996C50.8166 48.7936 64.3106 54.3427 73.8368 58.2602C76.9195 59.5279 79.5867 60.6247 81.5096 61.2122C89.3745 63.6154 89.1559 80.8745 86.9713 86.5547C85.9606 89.1829 81.8629 94.3367 77.3401 100.025C72.0879 106.631 66.2624 113.958 64.032 118.888C63.6082 119.825 63.0522 121.161 62.3916 122.821M55.6344 140.954C55.6344 140.954 58.7886 144.886 64.032 144.886C69.2754 144.886 72.9894 131.778 71.6785 128.282C70.3677 124.787 62.3916 122.821 62.3916 122.821M55.6344 140.954C58.2707 133.589 60.6818 127.118 62.3916 122.821" stroke="#377FEC" stroke-width="6" stroke-linecap="round"/>
<circle cx="9.17573" cy="9.17573" r="6.17573" transform="matrix(-0.983435 -0.181263 -0.181263 0.983435 78.4514 70.0003)" fill="#377FEC" stroke="#377FEC" stroke-width="6"/>
<circle cx="5.09874" cy="5.09874" r="3" transform="matrix(-0.983435 -0.181263 -0.181263 0.983435 53.1082 62.4051)" fill="#377FEC" stroke="#377FEC" stroke-width="4.19749"/>
<circle cx="5.09874" cy="5.09874" r="3" transform="matrix(-0.983435 -0.181263 -0.181263 0.983435 49.6129 78.1346)" fill="#377FEC" stroke="#377FEC" stroke-width="4.19749"/>
</svg>
