<svg width="896" height="396" viewBox="0 0 896 396" fill="none" xmlns="http://www.w3.org/2000/svg">
<g clip-path="url(#clip0_252_13)">
<rect width="896" height="396" fill="#973BE5"/>
<path d="M602.347 169.542C602.347 169.542 586.83 275.641 640.45 275.641C694.071 275.641 689.7 169.654 689.7 169.654L602.347 169.542Z" fill="#7622BE"/>
<path d="M611.712 337.804C728.974 341.456 753.203 174.551 750.299 169.654C747.394 164.756 689.7 169.654 689.7 169.654C689.7 169.654 694.071 275.641 640.45 275.641C586.83 275.641 602.347 169.542 602.347 169.542C602.347 169.542 506.96 164.443 492.177 169.542C477.394 174.642 494.45 334.153 611.712 337.804Z" fill="#F5EFF8"/>
<path d="M602.347 169.542C602.347 169.542 506.96 164.443 492.177 169.542C477.394 174.642 494.45 334.153 611.712 337.804C728.974 341.456 753.203 174.551 750.299 169.654C747.394 164.756 689.7 169.654 689.7 169.654M602.347 169.542C602.347 169.542 586.83 275.641 640.45 275.641C694.071 275.641 689.7 169.654 689.7 169.654M602.347 169.542L689.7 169.654" stroke="#7622BE" stroke-width="16" stroke-linecap="round"/>
<path d="M356.363 169.663C356.363 169.663 362.586 274.345 312.299 274.345C262.012 274.345 270.048 169.551 270.048 169.551L356.363 169.663Z" fill="#7622BE"/>
<path d="M285.085 337.813C167.823 341.465 143.594 174.561 146.499 169.663C149.403 164.765 270.048 169.551 270.048 169.551C270.048 169.551 262.012 274.345 312.299 274.345C362.586 274.345 356.363 169.663 356.363 169.663C356.363 169.663 389.837 164.452 404.621 169.552C419.405 174.651 402.347 334.162 285.085 337.813Z" fill="#F5EFF8"/>
<path d="M356.363 169.663C356.363 169.663 389.837 164.452 404.621 169.552C419.405 174.651 402.347 334.162 285.085 337.813C167.823 341.465 143.594 174.561 146.499 169.663C149.403 164.765 270.048 169.551 270.048 169.551M356.363 169.663C356.363 169.663 362.586 274.345 312.299 274.345C262.012 274.345 270.048 169.551 270.048 169.551M356.363 169.663L270.048 169.551" stroke="#7622BE" stroke-width="16" stroke-linecap="round"/>
<circle cx="511.363" cy="87.8072" r="33.8977" transform="rotate(33.4294 511.363 87.8072)" fill="#7622BE"/>
<path d="M638.954 88.3432C640.553 94.8986 513.699 112.861 513.699 112.861L522.559 64.0509C522.559 64.0509 637.355 81.7878 638.954 88.3432Z" fill="#7622BE" stroke="#7622BE" stroke-width="16" stroke-linecap="round"/>
<circle cx="33.8977" cy="33.8977" r="33.8977" transform="matrix(-0.825789 0.563979 0.563979 0.825789 371.839 46.7578)" fill="#7622BE"/>
<path d="M235.402 96.4096C237.593 99.7776 353.327 117.516 353.327 117.516L350.832 72.4571C350.832 72.4571 233.21 93.0415 235.402 96.4096Z" fill="#7622BE" stroke="#7622BE" stroke-width="16" stroke-linecap="round"/>
</g>
<defs>
<clipPath id="clip0_252_13">
<rect width="896" height="396" fill="white"/>
</clipPath>
</defs>
</svg>
