<svg width="896" height="396" viewBox="0 0 896 396" fill="none" xmlns="http://www.w3.org/2000/svg">
<rect width="896" height="396" fill="#7C26C5"/>
<path d="M578.071 183.972C578.071 183.972 565.791 277.63 621.048 286.844C676.304 296.058 667.095 133.45 667.095 133.45L578.071 183.972Z" fill="#5F1C97"/>
<path d="M689.607 330.866C802.166 271.487 730.537 97.4453 730.537 97.4453L667.095 133.45C667.095 133.45 676.304 296.058 621.048 286.844C565.791 277.63 578.071 183.972 578.071 183.972L487 235.655C487 235.655 577.047 390.245 689.607 330.866Z" fill="#F5EFF8"/>
<path d="M578.071 183.972L487 235.655C487 235.655 577.047 390.245 689.607 330.866C802.166 271.487 730.537 97.4453 730.537 97.4453L667.095 133.45M578.071 183.972C578.071 183.972 565.791 277.63 621.048 286.844C676.304 296.058 667.095 133.45 667.095 133.45M578.071 183.972L667.095 133.45" stroke="#5F1C97" stroke-width="16" stroke-linecap="round"/>
<path fill-rule="evenodd" clip-rule="evenodd" d="M206.393 331.866C93.8341 272.487 165.463 98.4453 165.463 98.4453L228.905 134.45L273.417 159.711C273.417 159.711 273.417 283.749 317.929 285.796C362.441 287.844 363.465 210.813 363.465 210.813L409 236.655C409 236.655 318.953 391.245 206.393 331.866Z" fill="#F5EFF8"/>
<path d="M273.417 159.711L317.929 184.972L363.465 210.813C363.465 210.813 362.441 287.844 317.929 285.796C273.417 283.749 273.417 159.711 273.417 159.711Z" fill="#5F1C97"/>
<path d="M273.417 159.711L317.929 184.972L363.465 210.813M273.417 159.711L228.905 134.45L165.463 98.4453C165.463 98.4453 93.8341 272.487 206.393 331.866C318.953 391.245 409 236.655 409 236.655L363.465 210.813M273.417 159.711C273.417 159.711 273.417 283.749 317.929 285.796C362.441 287.844 363.465 210.813 363.465 210.813" stroke="#5F1C97" stroke-width="16" stroke-linecap="round"/>
<circle cx="523.434" cy="111.519" r="28.8923" fill="#5F1C97" stroke="#5F1C97" stroke-width="16"/>
<path d="M639.652 35.5005L537.869 127.697L521.276 83.6797L639.652 35.5005Z" fill="#5F1C97"/>
<path d="M537.869 127.697L530.383 130.519L534.529 141.517L543.239 133.626L537.869 127.697ZM639.652 35.5005L645.023 41.4297C647.9 38.8238 648.491 34.5286 646.425 31.2424C644.358 27.9563 640.231 26.6275 636.636 28.0908L639.652 35.5005ZM521.276 83.6797L518.26 76.2699L511.041 79.2082L513.79 86.5015L521.276 83.6797ZM537.869 127.697L543.239 133.626L645.023 41.4297L639.652 35.5005L634.281 29.5714L532.498 121.768L537.869 127.697ZM639.652 35.5005L636.636 28.0908L518.26 76.2699L521.276 83.6797L524.292 91.0895L642.668 42.9103L639.652 35.5005ZM521.276 83.6797L513.79 86.5015L530.383 130.519L537.869 127.697L545.355 124.875L528.762 80.8579L521.276 83.6797Z" fill="#5F1C97"/>
<circle cx="36.8923" cy="36.8923" r="28.8923" transform="matrix(-0.999755 0.0221509 0.0221509 0.999755 422.898 90.5901)" fill="#5F1C97" stroke="#5F1C97" stroke-width="16"/>
<path d="M268.967 54.8754L370.143 143.841L389.371 99.8887L268.967 54.8754Z" fill="#5F1C97"/>
<path d="M370.143 143.841L377.473 147.047L373.084 157.08L364.861 149.849L370.143 143.841ZM268.967 54.8754L263.685 60.8831C260.785 58.3339 260.12 54.0778 262.104 50.7656C264.087 47.4534 268.153 46.03 271.769 47.3819L268.967 54.8754ZM389.371 99.8887L392.172 92.3953L400.086 95.354L396.7 103.095L389.371 99.8887ZM370.143 143.841L364.861 149.849L263.685 60.8831L268.967 54.8754L274.25 48.8676L375.426 137.833L370.143 143.841ZM268.967 54.8754L271.769 47.3819L392.172 92.3953L389.371 99.8887L386.569 107.382L266.166 62.3688L268.967 54.8754ZM389.371 99.8887L396.7 103.095L377.473 147.047L370.143 143.841L362.814 140.635L382.041 96.6824L389.371 99.8887Z" fill="#5F1C97"/>
</svg>
