<svg width="896" height="396" viewBox="0 0 896 396" fill="none" xmlns="http://www.w3.org/2000/svg">
<g clip-path="url(#clip0_252_34)">
<rect width="896" height="396" fill="#B45CFF"/>
<path d="M658.477 184.728L613.733 166.303L567.959 147.455C567.959 147.455 534.819 259.83 578.394 267.471C621.97 275.111 658.477 184.728 658.477 184.728Z" fill="#9332E5"/>
<path d="M570.274 336.102C680.092 385.34 783.146 238.695 752.258 224.589C721.37 210.483 703.222 203.153 703.222 203.153L658.477 184.728C658.477 184.728 621.97 275.111 578.394 267.471C534.819 259.83 567.959 147.455 567.959 147.455C567.959 147.455 556.652 140.381 522.186 128.607C487.719 116.832 460.457 286.864 570.274 336.102Z" fill="#F5EFF8"/>
<path d="M658.477 184.728L613.733 166.303L567.959 147.455M658.477 184.728L703.222 203.153C703.222 203.153 721.37 210.483 752.258 224.589C783.146 238.695 680.092 385.34 570.274 336.102C460.457 286.864 487.719 116.832 522.186 128.607C556.652 140.381 567.959 147.455 567.959 147.455M658.477 184.728C658.477 184.728 621.97 275.111 578.394 267.471C534.819 259.83 567.959 147.455 567.959 147.455" stroke="#9332E5" stroke-width="16" stroke-linecap="round"/>
<path d="M573.275 34.3405C580.791 47.2775 576.468 63.8178 563.751 71.3182C551.034 78.8183 534.604 74.5185 527.088 61.5816C519.572 48.6448 523.895 32.1057 536.612 24.6052C549.328 17.1049 565.759 21.4037 573.275 34.3405Z" fill="#9332E5" stroke="#9332E5" stroke-width="16"/>
<path d="M667.357 106.879C659.336 122.626 542.931 73.7129 542.931 73.7129L566.664 27.2301C566.664 27.2301 675.378 91.1309 667.357 106.879Z" fill="#9332E5" stroke="#9332E5" stroke-width="16" stroke-linecap="round"/>
<path d="M237.523 184.726L282.267 166.301L328.041 147.453C328.041 147.453 361.181 259.829 317.606 267.469C274.03 275.109 237.523 184.726 237.523 184.726Z" fill="#9332E5"/>
<path d="M325.726 336.1C215.908 385.338 112.854 238.693 143.742 224.587C174.63 210.481 192.778 203.151 192.778 203.151L237.523 184.726C237.523 184.726 274.03 275.109 317.606 267.469C361.181 259.829 328.041 147.453 328.041 147.453C328.041 147.453 339.348 140.379 373.814 128.605C408.281 116.83 435.543 286.862 325.726 336.1Z" fill="#F5EFF8"/>
<path d="M237.523 184.726L282.267 166.301L328.041 147.453M237.523 184.726L192.778 203.151C192.778 203.151 174.63 210.481 143.742 224.587C112.854 238.693 215.908 385.338 325.726 336.1C435.543 286.862 408.281 116.83 373.814 128.605C339.348 140.379 328.041 147.453 328.041 147.453M237.523 184.726C237.523 184.726 274.03 275.109 317.606 267.469C361.181 259.829 328.041 147.453 328.041 147.453" stroke="#9332E5" stroke-width="16" stroke-linecap="round"/>
<path d="M323.226 34.3375C315.71 47.2745 320.033 63.8149 332.75 71.3153C345.467 78.8153 361.897 74.5155 369.413 61.5787C376.929 48.6419 372.606 32.1028 359.889 24.6023C347.173 17.102 330.742 21.4008 323.226 34.3375Z" fill="#9332E5" stroke="#9332E5" stroke-width="16"/>
<path d="M229.129 106.877C236.642 126.649 357.154 71.5122 357.154 71.5122L330.147 26.6798C330.147 26.6798 221.616 87.1047 229.129 106.877Z" fill="#9332E5" stroke="#9332E5" stroke-width="16" stroke-linecap="round"/>
</g>
<defs>
<clipPath id="clip0_252_34">
<rect width="896" height="396" fill="white"/>
</clipPath>
</defs>
</svg>
