<svg width="896" height="1276" viewBox="0 0 896 1276" fill="none" xmlns="http://www.w3.org/2000/svg">
<g clip-path="url(#clip0_260_538)">
<rect width="896" height="396" fill="#7C26C5"/>
<path d="M578.071 183.972C578.071 183.972 565.791 277.63 621.048 286.844C676.304 296.058 667.095 133.45 667.095 133.45L578.071 183.972Z" fill="#5F1C97"/>
<path d="M689.607 330.866C802.166 271.487 730.537 97.4453 730.537 97.4453L667.095 133.45C667.095 133.45 676.304 296.058 621.048 286.844C565.791 277.63 578.071 183.972 578.071 183.972L487 235.655C487 235.655 577.047 390.245 689.607 330.866Z" fill="#F5EFF8"/>
<path d="M578.071 183.972L487 235.655C487 235.655 577.047 390.245 689.607 330.866C802.166 271.487 730.537 97.4453 730.537 97.4453L667.095 133.45M578.071 183.972C578.071 183.972 565.791 277.63 621.048 286.844C676.304 296.058 667.095 133.45 667.095 133.45M578.071 183.972L667.095 133.45" stroke="#5F1C97" stroke-width="16" stroke-linecap="round"/>
<path fill-rule="evenodd" clip-rule="evenodd" d="M206.393 331.866C93.8341 272.487 165.463 98.4453 165.463 98.4453L228.905 134.45L273.417 159.711C273.417 159.711 273.417 283.749 317.929 285.796C362.441 287.844 363.465 210.813 363.465 210.813L409 236.655C409 236.655 318.953 391.245 206.393 331.866Z" fill="#F5EFF8"/>
<path d="M273.417 159.711L317.929 184.972L363.465 210.813C363.465 210.813 362.441 287.844 317.929 285.796C273.417 283.749 273.417 159.711 273.417 159.711Z" fill="#5F1C97"/>
<path d="M273.417 159.711L317.929 184.972L363.465 210.813M273.417 159.711L228.905 134.45L165.463 98.4453C165.463 98.4453 93.8341 272.487 206.393 331.866C318.953 391.245 409 236.655 409 236.655L363.465 210.813M273.417 159.711C273.417 159.711 273.417 283.749 317.929 285.796C362.441 287.844 363.465 210.813 363.465 210.813" stroke="#5F1C97" stroke-width="16" stroke-linecap="round"/>
<circle cx="523.434" cy="111.519" r="28.8923" fill="#5F1C97" stroke="#5F1C97" stroke-width="16"/>
<path d="M639.652 35.5005L537.869 127.697L521.276 83.6797L639.652 35.5005Z" fill="#5F1C97"/>
<path d="M537.869 127.697L530.383 130.519L534.529 141.517L543.239 133.626L537.869 127.697ZM639.652 35.5005L645.023 41.4297C647.9 38.8238 648.491 34.5286 646.425 31.2424C644.358 27.9563 640.231 26.6275 636.636 28.0908L639.652 35.5005ZM521.276 83.6797L518.26 76.2699L511.041 79.2082L513.79 86.5015L521.276 83.6797ZM537.869 127.697L543.239 133.626L645.023 41.4297L639.652 35.5005L634.281 29.5714L532.498 121.768L537.869 127.697ZM639.652 35.5005L636.636 28.0908L518.26 76.2699L521.276 83.6797L524.292 91.0895L642.668 42.9103L639.652 35.5005ZM521.276 83.6797L513.79 86.5015L530.383 130.519L537.869 127.697L545.355 124.875L528.762 80.8579L521.276 83.6797Z" fill="#5F1C97"/>
<circle cx="36.8923" cy="36.8923" r="28.8923" transform="matrix(-0.999755 0.0221509 0.0221509 0.999755 422.898 90.5901)" fill="#5F1C97" stroke="#5F1C97" stroke-width="16"/>
<path d="M268.967 54.8754L370.143 143.841L389.371 99.8887L268.967 54.8754Z" fill="#5F1C97"/>
<path d="M370.143 143.841L377.473 147.047L373.084 157.08L364.861 149.849L370.143 143.841ZM268.967 54.8754L263.685 60.8831C260.785 58.3339 260.12 54.0778 262.104 50.7656C264.087 47.4534 268.153 46.03 271.769 47.3819L268.967 54.8754ZM389.371 99.8887L392.172 92.3953L400.086 95.354L396.7 103.095L389.371 99.8887ZM370.143 143.841L364.861 149.849L263.685 60.8831L268.967 54.8754L274.25 48.8676L375.426 137.833L370.143 143.841ZM268.967 54.8754L271.769 47.3819L392.172 92.3953L389.371 99.8887L386.569 107.382L266.166 62.3688L268.967 54.8754ZM389.371 99.8887L396.7 103.095L377.473 147.047L370.143 143.841L362.814 140.635L382.041 96.6824L389.371 99.8887Z" fill="#5F1C97"/>
</g>
<g clip-path="url(#clip1_260_538)">
<rect width="896" height="396" transform="translate(0 440)" fill="#973BE5"/>
<path d="M602.347 609.542C602.347 609.542 586.83 715.641 640.45 715.641C694.071 715.641 689.7 609.654 689.7 609.654L602.347 609.542Z" fill="#7622BE"/>
<path d="M611.712 777.804C728.974 781.456 753.203 614.551 750.299 609.654C747.394 604.756 689.7 609.654 689.7 609.654C689.7 609.654 694.071 715.641 640.45 715.641C586.83 715.641 602.347 609.542 602.347 609.542C602.347 609.542 506.96 604.443 492.177 609.542C477.394 614.642 494.45 774.153 611.712 777.804Z" fill="#F5EFF8"/>
<path d="M602.347 609.542C602.347 609.542 506.96 604.443 492.177 609.542C477.394 614.642 494.45 774.153 611.712 777.804C728.974 781.456 753.203 614.551 750.299 609.654C747.394 604.756 689.7 609.654 689.7 609.654M602.347 609.542C602.347 609.542 586.83 715.641 640.45 715.641C694.071 715.641 689.7 609.654 689.7 609.654M602.347 609.542L689.7 609.654" stroke="#7622BE" stroke-width="16" stroke-linecap="round"/>
<path d="M356.363 609.663C356.363 609.663 362.586 714.345 312.299 714.345C262.012 714.345 270.048 609.551 270.048 609.551L356.363 609.663Z" fill="#7622BE"/>
<path d="M285.085 777.813C167.823 781.465 143.594 614.561 146.499 609.663C149.403 604.765 270.048 609.551 270.048 609.551C270.048 609.551 262.012 714.345 312.299 714.345C362.586 714.345 356.363 609.663 356.363 609.663C356.363 609.663 389.837 604.452 404.621 609.552C419.405 614.651 402.347 774.162 285.085 777.813Z" fill="#F5EFF8"/>
<path d="M356.363 609.663C356.363 609.663 389.837 604.452 404.621 609.552C419.405 614.651 402.347 774.162 285.085 777.813C167.823 781.465 143.594 614.561 146.499 609.663C149.403 604.765 270.048 609.551 270.048 609.551M356.363 609.663C356.363 609.663 362.586 714.345 312.299 714.345C262.012 714.345 270.048 609.551 270.048 609.551M356.363 609.663L270.048 609.551" stroke="#7622BE" stroke-width="16" stroke-linecap="round"/>
<circle cx="511.363" cy="527.807" r="33.8977" transform="rotate(33.4294 511.363 527.807)" fill="#7622BE"/>
<path d="M638.954 528.343C640.553 534.899 513.699 552.861 513.699 552.861L522.559 504.051C522.559 504.051 637.355 521.788 638.954 528.343Z" fill="#7622BE" stroke="#7622BE" stroke-width="16" stroke-linecap="round"/>
<circle cx="33.8977" cy="33.8977" r="33.8977" transform="matrix(-0.825789 0.563979 0.563979 0.825789 371.839 486.758)" fill="#7622BE"/>
<path d="M235.402 536.41C237.593 539.778 353.327 557.516 353.327 557.516L350.832 512.457C350.832 512.457 233.21 533.042 235.402 536.41Z" fill="#7622BE" stroke="#7622BE" stroke-width="16" stroke-linecap="round"/>
</g>
<g clip-path="url(#clip2_260_538)">
<rect width="896" height="396" transform="translate(0 880)" fill="#B45CFF"/>
<path d="M658.477 1064.73L613.733 1046.3L567.959 1027.45C567.959 1027.45 534.819 1139.83 578.394 1147.47C621.97 1155.11 658.477 1064.73 658.477 1064.73Z" fill="#9332E5"/>
<path d="M570.274 1216.1C680.092 1265.34 783.146 1118.69 752.258 1104.59C721.37 1090.48 703.222 1083.15 703.222 1083.15L658.477 1064.73C658.477 1064.73 621.97 1155.11 578.394 1147.47C534.819 1139.83 567.959 1027.45 567.959 1027.45C567.959 1027.45 556.652 1020.38 522.186 1008.61C487.719 996.832 460.457 1166.86 570.274 1216.1Z" fill="#F5EFF8"/>
<path d="M658.477 1064.73L613.733 1046.3L567.959 1027.45M658.477 1064.73L703.222 1083.15C703.222 1083.15 721.37 1090.48 752.258 1104.59C783.146 1118.69 680.092 1265.34 570.274 1216.1C460.457 1166.86 487.719 996.832 522.186 1008.61C556.652 1020.38 567.959 1027.45 567.959 1027.45M658.477 1064.73C658.477 1064.73 621.97 1155.11 578.394 1147.47C534.819 1139.83 567.959 1027.45 567.959 1027.45" stroke="#9332E5" stroke-width="16" stroke-linecap="round"/>
<path d="M573.275 914.34C580.791 927.277 576.468 943.818 563.751 951.318C551.034 958.818 534.604 954.518 527.088 941.582C519.572 928.645 523.895 912.106 536.612 904.605C549.328 897.105 565.759 901.404 573.275 914.34Z" fill="#9332E5" stroke="#9332E5" stroke-width="16"/>
<path d="M667.357 986.879C659.336 1002.63 542.931 953.713 542.931 953.713L566.664 907.23C566.664 907.23 675.378 971.131 667.357 986.879Z" fill="#9332E5" stroke="#9332E5" stroke-width="16" stroke-linecap="round"/>
<path d="M237.523 1064.73L282.267 1046.3L328.041 1027.45C328.041 1027.45 361.181 1139.83 317.606 1147.47C274.03 1155.11 237.523 1064.73 237.523 1064.73Z" fill="#9332E5"/>
<path d="M325.726 1216.1C215.908 1265.34 112.854 1118.69 143.742 1104.59C174.63 1090.48 192.778 1083.15 192.778 1083.15L237.523 1064.73C237.523 1064.73 274.03 1155.11 317.606 1147.47C361.181 1139.83 328.041 1027.45 328.041 1027.45C328.041 1027.45 339.348 1020.38 373.814 1008.6C408.281 996.83 435.543 1166.86 325.726 1216.1Z" fill="#F5EFF8"/>
<path d="M237.523 1064.73L282.267 1046.3L328.041 1027.45M237.523 1064.73L192.778 1083.15C192.778 1083.15 174.63 1090.48 143.742 1104.59C112.854 1118.69 215.908 1265.34 325.726 1216.1C435.543 1166.86 408.281 996.83 373.814 1008.6C339.348 1020.38 328.041 1027.45 328.041 1027.45M237.523 1064.73C237.523 1064.73 274.03 1155.11 317.606 1147.47C361.181 1139.83 328.041 1027.45 328.041 1027.45" stroke="#9332E5" stroke-width="16" stroke-linecap="round"/>
<path d="M323.226 914.338C315.71 927.275 320.033 943.815 332.75 951.315C345.467 958.815 361.897 954.516 369.413 941.579C376.929 928.642 372.606 912.103 359.889 904.602C347.173 897.102 330.742 901.401 323.226 914.338Z" fill="#9332E5" stroke="#9332E5" stroke-width="16"/>
<path d="M229.129 986.877C236.642 1006.65 357.154 951.512 357.154 951.512L330.147 906.68C330.147 906.68 221.616 967.105 229.129 986.877Z" fill="#9332E5" stroke="#9332E5" stroke-width="16" stroke-linecap="round"/>
</g>
<defs>
<clipPath id="clip0_260_538">
<rect width="896" height="396" fill="white"/>
</clipPath>
<clipPath id="clip1_260_538">
<rect width="896" height="396" fill="white" transform="translate(0 440)"/>
</clipPath>
<clipPath id="clip2_260_538">
<rect width="896" height="396" fill="white" transform="translate(0 880)"/>
</clipPath>
</defs>
</svg>
