<svg width="943" height="440" viewBox="0 0 943 440" fill="none" xmlns="http://www.w3.org/2000/svg">
<g clip-path="url(#clip0_262_581)">
<rect width="943" height="440" fill="#F5EFF8"/>
<path d="M720.689 -5.50017L711.5 -11.3047C711.5 -11.3047 687.787 107.061 681.879 134.794C675.972 162.526 656.281 195.419 630.683 194.774C605.085 194.129 362.233 194.774 337.948 194.774C313.662 194.774 293.972 165.751 287.408 134.794C280.844 103.836 260.314 -11.3047 260.314 -11.3047L248.5 -5.50017C248.5 -5.50017 272.968 119.315 275.594 134.794C278.219 150.272 274.281 178.005 266.404 189.614C258.528 201.223 201.419 275.392 185.016 297.965C168.613 320.538 122.662 388.903 122.006 405.026C121.349 421.15 178.452 485 178.452 485H794.117C794.117 485 844.006 417.925 844 405.026C843.994 392.128 801.337 326.988 785.584 297.965C769.831 268.943 717.979 210.252 702.227 189.614C686.474 168.976 693.038 152.207 694.35 134.794C695.663 117.38 720.689 -5.50017 720.689 -5.50017Z" fill="#161616" stroke="black" stroke-width="4"/>
<rect x="446" y="379" width="74" height="22" rx="11" fill="#313131"/>
<circle cx="458" cy="248" r="5" fill="#313131"/>
<circle cx="467" cy="235" r="5" fill="#313131"/>
<circle cx="483" cy="235" r="5" fill="#313131"/>
<circle cx="499" cy="235" r="5" fill="#313131"/>
<circle cx="515" cy="235" r="5" fill="#313131"/>
<circle cx="474" cy="248" r="5" fill="#313131"/>
<circle cx="490" cy="248" r="5" fill="#313131"/>
<circle cx="506" cy="248" r="5" fill="#313131"/>
<circle cx="451" cy="235" r="5" fill="#313131"/>
<rect x="186.731" y="16.9344" width="31" height="56" rx="14.5" transform="rotate(-9.66394 186.731 16.9344)" fill="#F5EFF8" stroke="#C6BCCB" stroke-width="3"/>
<rect x="-1.73052" y="1.22691" width="31" height="56" rx="14.5" transform="matrix(-0.985809 -0.167869 -0.167869 0.985809 768.191 15.4344)" fill="#F5EFF8" stroke="#C6BCCB" stroke-width="3"/>
</g>
<defs>
<clipPath id="clip0_262_581">
<rect width="943" height="440" fill="white"/>
</clipPath>
</defs>
</svg>
