<svg width="83" height="101" viewBox="0 0 83 101" fill="none" xmlns="http://www.w3.org/2000/svg">
<path d="M39.1025 3.55893C42.9407 2.02368 46.7788 1.00019 50.617 3.55893C54.4552 6.11767 72.3667 26.5881 73.6461 30.4262C74.9255 34.2644 80.0431 71.3669 80.0431 77.7638C80.0431 84.1607 73.6461 91.6663 67.2491 95.6753C60.8522 99.6843 16.2442 99.6845 12.2352 95.6753C8.22615 91.6661 2.00004 84.3316 2.00004 77.7638C2.00004 71.196 5.83822 36.8231 8.39701 30.4262C10.9558 24.0293 35.2643 5.09417 39.1025 3.55893Z" fill="#7A53D1" stroke="#5B3D9C" stroke-width="4"/>
<path d="M41.3556 83.3848L61.5629 48.3848H21.1483L41.3556 83.3848ZM41.3556 32.3848H37.8556V51.8848H41.3556H44.8556V32.3848H41.3556Z" fill="#5B3D9C"/>
</svg>
