<svg width="323" height="297" viewBox="0 0 323 297" fill="none" xmlns="http://www.w3.org/2000/svg">
<path fill-rule="evenodd" clip-rule="evenodd" d="M153.576 182.741C148.187 186.167 142.223 196.022 140.389 202.005C138.984 206.588 135.823 235.134 133.942 252.119C133.368 257.305 132.913 261.413 132.664 263.432C131.599 272.066 118.846 281.888 108.823 284.377C98.8013 286.866 82.3851 283.16 75.8078 274.898C69.2305 266.636 19.6756 176.3 19.9501 150.988C20.2246 125.675 21.0058 96.1382 36.1714 88.7822C36.1714 88.7822 37.3653 76.1465 42.0809 72.857C46.7964 69.5674 68.9842 55.5045 72.8952 55.1836C76.8062 54.8626 84.2767 59.4367 84.2767 59.4367C85.5934 56.765 86.7345 56.2742 88.5227 55.5051C88.6926 55.4321 88.8684 55.3565 89.0506 55.2763C89.0506 55.2763 121.194 90.58 124.574 95.745C127.604 100.376 136.663 100.407 141.551 100.424C142.114 100.426 142.623 100.428 143.06 100.436C147.286 100.52 185.118 85.1729 188.846 82.7841C192.073 80.7163 192.048 78.632 191.991 73.987L191.991 73.9864C191.983 73.2655 191.973 72.4829 191.975 71.629C191.989 65.422 174.5 31.8313 172.095 31.4374L171.949 31.4669C169.8 31.9003 167.495 30.9122 165.336 29.9861C163.431 29.1693 161.639 28.4008 160.165 28.6981C160.165 28.6981 160.067 23.5728 165.011 22.5758C166.386 22.2985 168.659 21.7134 171.308 21.0316C178.18 19.2628 187.581 16.8428 190.405 17.4549C194.318 18.3029 198.916 26.0287 198.916 26.0287C203.86 25.0317 205.433 24.7145 210.156 26.1007C211.511 26.4985 212.492 26.8561 213.484 27.2175C215.949 28.116 218.48 29.0383 226.979 30.6598C238.896 32.9338 301.129 122.35 301.698 141.412C301.84 146.133 302.214 150.018 302.533 153.328C303.501 163.382 303.958 168.127 295.817 174.871C284.996 183.836 269.216 184.445 263.007 181.488C256.938 178.597 230.999 156.928 229.827 155.948C229.789 155.917 229.77 155.904 229.728 155.88C228.973 155.445 220.935 150.972 214.091 153.466C206.901 156.085 158.966 179.316 153.576 182.741Z" fill="#F5EFF8"/>
<path d="M93.0336 52.9935C97.9285 49.4339 144.659 31.825 149.378 30.8734L160.165 28.6981C161.639 28.4008 163.431 29.1693 165.336 29.9861C167.495 30.9122 169.8 31.9003 171.949 31.4669L172.095 31.4374C174.5 31.8313 191.989 65.422 191.975 71.629C191.973 72.4829 191.983 73.2655 191.991 73.9864L191.991 73.987C192.048 78.632 192.073 80.7163 188.846 82.7841C185.118 85.1729 147.286 100.52 143.06 100.436C142.623 100.428 142.114 100.426 141.551 100.424C136.663 100.407 127.604 100.376 124.574 95.745C121.194 90.58 89.0506 55.2763 89.0506 55.2763C90.1107 54.8099 91.3921 54.1872 93.0336 52.9935Z" fill="#F5EFF8"/>
<path d="M36.1714 88.7822C21.0058 96.1382 20.2246 125.675 19.9501 150.988C19.6756 176.3 69.2305 266.636 75.8078 274.898C82.3851 283.16 98.8014 286.866 108.823 284.377C118.846 281.888 131.598 272.066 132.664 263.432C132.913 261.413 133.368 257.305 133.942 252.119C135.823 235.134 138.984 206.588 140.389 202.005C142.223 196.022 148.187 186.167 153.576 182.741C158.966 179.316 206.901 156.085 214.091 153.466C220.935 150.972 228.973 155.445 229.728 155.88M36.1714 88.7822C51.337 81.4261 82.1074 63.8384 84.2767 59.4367M36.1714 88.7822C36.1714 88.7822 37.3653 76.1465 42.0809 72.857C46.7964 69.5674 68.9842 55.5045 72.8952 55.1836C76.8062 54.8626 84.2767 59.4367 84.2767 59.4367M84.2767 59.4367C85.5934 56.765 86.7345 56.2742 88.5227 55.5051C88.6926 55.4321 88.8684 55.3565 89.0507 55.2763M149.378 30.8734C144.659 31.825 97.9285 49.4339 93.0336 52.9935C91.3921 54.1872 90.1107 54.8099 89.0507 55.2763M149.378 30.8734C154.097 29.9217 157.019 29.3325 160.165 28.6981M149.378 30.8734L160.165 28.6981M160.165 28.6981C160.165 28.6981 160.067 23.5728 165.011 22.5758C166.386 22.2985 168.659 21.7134 171.308 21.0316C178.18 19.2628 187.581 16.8428 190.405 17.4549C194.318 18.3029 198.916 26.0287 198.916 26.0287M160.165 28.6981C161.639 28.4008 163.431 29.1693 165.336 29.9861C167.495 30.9122 169.799 31.9003 171.949 31.4669M171.949 31.4669C175.994 30.6512 193.972 27.0257 198.916 26.0287M171.949 31.4669L172.095 31.4374M171.949 31.4669C171.989 31.4375 172.038 31.428 172.095 31.4374M198.916 26.0287C203.86 25.0317 205.433 24.7145 210.156 26.1007C211.511 26.4985 212.492 26.8561 213.484 27.2175C215.949 28.116 218.48 29.0383 226.979 30.6598C238.896 32.9338 301.129 122.35 301.698 141.412C301.84 146.133 302.214 150.018 302.533 153.328C303.501 163.382 303.958 168.127 295.817 174.871C284.996 183.836 269.216 184.445 263.007 181.488C256.938 178.597 230.999 156.928 229.827 155.948M89.0507 55.2763C89.0507 55.2763 121.194 90.58 124.574 95.745C127.604 100.376 136.663 100.407 141.551 100.424C142.114 100.426 142.623 100.428 143.06 100.436C147.286 100.52 185.118 85.1729 188.846 82.7841C192.073 80.7163 192.048 78.632 191.991 73.987L191.991 73.9864C191.983 73.2655 191.973 72.4829 191.975 71.629C191.989 65.422 174.5 31.8313 172.095 31.4374M229.728 155.88C229.77 155.904 229.789 155.917 229.827 155.948M229.728 155.88C229.732 155.882 229.736 155.885 229.739 155.887C229.77 155.904 229.799 155.925 229.827 155.948" stroke="#D3CAD8" stroke-width="8" stroke-linecap="round"/>
<path d="M81.715 87.3181C83.7271 92.3725 86.8782 97.993 88.3115 100.46C88.749 101.213 89.6488 101.548 90.4732 101.267C92.8988 100.439 98.3589 98.523 106.051 95.507C116.671 91.3432 122.934 109.642 116.781 113.923C112.151 117.145 106.451 120.318 103.914 121.69C103.14 122.109 102.749 122.999 102.99 123.845C103.887 126.988 106.166 134.582 108.685 139.878C111.933 146.707 90.6118 155.79 87.9285 149.443C85.86 144.549 82.1021 137.482 80.489 134.501C80.0478 133.686 79.0807 133.326 78.2129 133.653C75.4413 134.696 69.2295 137.07 62.8255 139.771C54.2042 143.408 46.1602 120.915 53.5291 118.026C58.903 115.919 65.2088 113.499 68.2294 112.344C69.2134 111.967 69.6961 110.861 69.3123 109.88C68.093 106.763 65.5716 100.106 63.9672 94.4051C61.7874 86.6593 79.0435 80.607 81.715 87.3181Z" fill="#D3CAD8"/>
<circle cx="24.5299" cy="24.5299" r="24.5299" transform="matrix(-0.980267 0.197678 0.197678 0.980267 236.096 82.844)" fill="#D3CAD8"/>
<circle cx="24.5299" cy="24.5299" r="24.5299" transform="matrix(-0.980267 0.197678 0.197678 0.980267 167.451 113.526)" fill="#D3CAD8"/>
<circle cx="4.58502" cy="4.58502" r="4.58502" transform="matrix(-0.980267 0.197678 0.197678 0.980267 229.688 64.9604)" fill="#D3CAD8"/>
<circle cx="4.58502" cy="4.58502" r="4.58502" transform="matrix(-0.980267 0.197678 0.197678 0.980267 215.29 58.5086)" fill="#D3CAD8"/>
<circle cx="4.58502" cy="4.58502" r="4.58502" transform="matrix(-0.980267 0.197678 0.197678 0.980267 235.959 49.6636)" fill="#D3CAD8"/>
<circle cx="4.58502" cy="4.58502" r="4.58502" transform="matrix(-0.980267 0.197678 0.197678 0.980267 220.48 42.4955)" fill="#D3CAD8"/>
</svg>
