<svg width="322" height="321" viewBox="0 0 322 321" fill="none" xmlns="http://www.w3.org/2000/svg">
<path d="M170.795 76.7417C170.795 84.7575 151.328 86.8569 151.328 76.7417V29.0285L160.298 2.5L170.795 29.0285V76.7417Z" fill="#8029CA" stroke="#661EA2" stroke-width="5" stroke-linecap="round" stroke-linejoin="round"/>
<path opacity="0.9375" d="M138.261 78.5794C141.109 86.0724 123.657 94.9502 120.064 85.4947L103.115 40.8935L102.076 12.9087L121.312 33.9781L138.261 78.5794Z" fill="#8029CA" stroke="#661EA2" stroke-width="5" stroke-linecap="round" stroke-linejoin="round"/>
<path opacity="0.875" d="M108.229 93.0874C113.758 98.891 101.111 113.839 94.1341 106.515L61.2227 71.9697L49.4186 46.5751L75.3173 58.5419L108.229 93.0874Z" fill="#8029CA" stroke="#661EA2" stroke-width="5" stroke-linecap="round" stroke-linejoin="round"/>
<path opacity="0.8125" d="M86.0233 116.384C93.4669 119.358 88.1936 138.214 78.8004 134.461L34.493 116.758L13.1862 98.5857L41.7158 98.6809L86.0233 116.384Z" fill="#8029CA" stroke="#661EA2" stroke-width="5" stroke-linecap="round" stroke-linejoin="round"/>
<path opacity="0.75" d="M77.1502 148.908C85.1573 149.282 86.3472 168.826 76.243 168.354L28.5817 166.131L2.49999 155.934L29.4889 146.685L77.1502 148.908Z" fill="#8029CA" stroke="#661EA2" stroke-width="5" stroke-linecap="round" stroke-linejoin="round"/>
<path opacity="0.6875" d="M79.1148 182.225C86.6079 179.378 95.4852 196.83 86.0296 200.423L41.428 217.371L13.4432 218.409L34.5131 199.174L79.1148 182.225Z" fill="#8029CA" stroke="#661EA2" stroke-width="5" stroke-linecap="round" stroke-linejoin="round"/>
<path opacity="0.625" d="M94.148 210.94C99.8433 205.3 115.034 217.654 107.847 224.772L73.9464 258.347L48.7856 270.642L60.2476 244.516L94.148 210.94Z" fill="#8029CA" stroke="#661EA2" stroke-width="5" stroke-linecap="round" stroke-linejoin="round"/>
<path opacity="0.5625" d="M119.9 230.408C122.895 222.972 141.736 228.297 137.958 237.68L120.133 281.939L101.902 303.196L102.076 274.667L119.9 230.408Z" fill="#8029CA" stroke="#661EA2" stroke-width="5" stroke-linecap="round" stroke-linejoin="round"/>
<path opacity="0.5" d="M151.152 243.082C151.355 235.069 170.869 233.463 170.613 243.575L169.405 291.273L159.766 317.566L149.944 290.78L151.152 243.082Z" fill="#8029CA" stroke="#661EA2" stroke-width="5" stroke-linecap="round" stroke-linejoin="round"/>
<path opacity="0.4375" d="M182 237.38C179.149 229.888 196.596 221.002 200.194 230.456L217.165 275.049L218.218 303.033L198.971 281.973L182 237.38Z" fill="#8029CA" stroke="#661EA2" stroke-width="5" stroke-linecap="round" stroke-linejoin="round"/>
<path opacity="0.375" d="M212.241 224.686C206.6 218.991 218.953 203.8 226.071 210.986L259.649 244.884L271.946 270.044L245.819 258.584L212.241 224.686Z" fill="#8029CA" stroke="#661EA2" stroke-width="5" stroke-linecap="round" stroke-linejoin="round"/>
<path opacity="0.3125" d="M232.751 200.357C225.436 197.079 231.48 178.456 240.711 182.592L284.253 202.101L304.795 221.133L276.293 219.866L232.751 200.357Z" fill="#8029CA" stroke="#661EA2" stroke-width="5" stroke-linecap="round" stroke-linejoin="round"/>
<path opacity="0.25" d="M244.414 166.975C236.4 166.792 234.747 147.282 244.86 147.514L292.56 148.607L318.876 158.182L292.114 168.068L244.414 166.975Z" fill="#8029CA" stroke="#661EA2" stroke-width="5" stroke-linecap="round" stroke-linejoin="round"/>
<path opacity="0.1875" d="M240.116 134.329C232.679 137.319 223.47 120.04 232.855 116.267L277.125 98.4698L305.085 96.8974L284.386 116.532L240.116 134.329Z" fill="#8029CA" stroke="#661EA2" stroke-width="5" stroke-linecap="round" stroke-linejoin="round"/>
<path opacity="0.125" d="M226.474 106.9C220.615 112.37 205.796 99.5724 213.19 92.6697L248.067 60.1099L273.579 48.5635L261.351 74.3397L226.474 106.9Z" fill="#8029CA" stroke="#661EA2" stroke-width="5" stroke-linecap="round" stroke-linejoin="round"/>
<path opacity="0.0625" d="M200.146 85.7854C196.947 93.1352 178.26 87.291 182.296 78.0163L201.338 34.2676L220.151 13.5232L219.188 42.0367L200.146 85.7854Z" fill="#8029CA" stroke="#661EA2" stroke-width="5" stroke-linecap="round" stroke-linejoin="round"/>
<path opacity="0.9375" d="M138.261 78.5794C141.109 86.0724 123.657 94.9502 120.064 85.4947L103.115 40.8935L102.076 12.9087L121.312 33.9781L138.261 78.5794Z" fill="#8029CA" stroke="#661EA2" stroke-width="3" stroke-linecap="round" stroke-linejoin="round"/>
<path opacity="0.875" d="M108.229 93.0874C113.758 98.891 101.111 113.839 94.1341 106.515L61.2227 71.9697L49.4186 46.5751L75.3173 58.5419L108.229 93.0874Z" fill="#8029CA" stroke="#661EA2" stroke-width="3" stroke-linecap="round" stroke-linejoin="round"/>
<path opacity="0.8125" d="M86.0233 116.384C93.4669 119.358 88.1936 138.215 78.8004 134.461L34.493 116.758L13.1862 98.5857L41.7158 98.681L86.0233 116.384Z" fill="#8029CA" stroke="#661EA2" stroke-width="3" stroke-linecap="round" stroke-linejoin="round"/>
<path opacity="0.75" d="M77.1502 148.908C85.1573 149.282 86.3472 168.826 76.243 168.354L28.5817 166.131L2.49999 155.934L29.4889 146.685L77.1502 148.908Z" fill="#8029CA" stroke="#661EA2" stroke-width="3" stroke-linecap="round" stroke-linejoin="round"/>
<path opacity="0.6875" d="M79.1148 182.225C86.6079 179.378 95.4852 196.83 86.0296 200.423L41.428 217.371L13.4432 218.409L34.5131 199.174L79.1148 182.225Z" fill="#8029CA" stroke="#661EA2" stroke-width="3" stroke-linecap="round" stroke-linejoin="round"/>
<path opacity="0.625" d="M94.148 210.94C99.8433 205.3 115.034 217.654 107.847 224.772L73.9464 258.347L48.7856 270.642L60.2476 244.516L94.148 210.94Z" fill="#8029CA" stroke="#661EA2" stroke-width="3" stroke-linecap="round" stroke-linejoin="round"/>
<path opacity="0.5625" d="M119.9 230.408C122.895 222.972 141.736 228.297 137.958 237.68L120.133 281.939L101.902 303.196L102.076 274.667L119.9 230.408Z" fill="#8029CA" stroke="#661EA2" stroke-width="3" stroke-linecap="round" stroke-linejoin="round"/>
<path opacity="0.5" d="M151.152 243.082C151.355 235.069 170.869 233.463 170.613 243.575L169.405 291.273L159.766 317.566L149.944 290.78L151.152 243.082Z" fill="#8029CA" stroke="#661EA2" stroke-width="3" stroke-linecap="round" stroke-linejoin="round"/>
<path opacity="0.4375" d="M182 237.38C179.149 229.888 196.596 221.002 200.194 230.456L217.165 275.049L218.218 303.033L198.971 281.973L182 237.38Z" fill="#8029CA" stroke="#661EA2" stroke-width="3" stroke-linecap="round" stroke-linejoin="round"/>
<path opacity="0.375" d="M212.241 224.686C206.6 218.992 218.953 203.8 226.071 210.987L259.649 244.884L271.946 270.044L245.819 258.584L212.241 224.686Z" fill="#8029CA" stroke="#661EA2" stroke-width="3" stroke-linecap="round" stroke-linejoin="round"/>
<path opacity="0.3125" d="M232.751 200.357C225.436 197.079 231.48 178.456 240.711 182.592L284.253 202.101L304.795 221.134L276.293 219.866L232.751 200.357Z" fill="#8029CA" stroke="#661EA2" stroke-width="3" stroke-linecap="round" stroke-linejoin="round"/>
<path opacity="0.25" d="M244.414 166.975C236.4 166.792 234.747 147.282 244.86 147.514L292.56 148.607L318.876 158.182L292.114 168.068L244.414 166.975Z" fill="#8029CA" stroke="#661EA2" stroke-width="3" stroke-linecap="round" stroke-linejoin="round"/>
<path opacity="0.1875" d="M240.116 134.329C232.679 137.319 223.47 120.04 232.855 116.267L277.125 98.4698L305.085 96.8974L284.386 116.532L240.116 134.329Z" fill="#8029CA" stroke="#661EA2" stroke-width="3" stroke-linecap="round" stroke-linejoin="round"/>
<path opacity="0.125" d="M226.474 106.9C220.615 112.37 205.796 99.5724 213.19 92.6697L248.067 60.1099L273.579 48.5635L261.351 74.3397L226.474 106.9Z" fill="#8029CA" stroke="#661EA2" stroke-width="3" stroke-linecap="round" stroke-linejoin="round"/>
<path opacity="0.0625" d="M200.146 85.7854C196.947 93.1352 178.26 87.291 182.296 78.0163L201.338 34.2676L220.151 13.5232L219.188 42.0367L200.146 85.7854Z" fill="#8029CA" stroke="#661EA2" stroke-width="3" stroke-linecap="round" stroke-linejoin="round"/>
<path d="M154.148 33.293C154.148 33.293 153.693 35.1558 151.514 35.4744C149.334 35.793 147.8 33.0156 147.8 33.0156" stroke="#161616" stroke-width="3" stroke-linecap="round"/>
<path d="M154.148 38.9061C154.148 38.9061 153.693 40.7689 151.514 41.0875C149.334 41.4061 147.8 38.6287 147.8 38.6287" stroke="#161616" stroke-width="3" stroke-linecap="round"/>
<path d="M154.148 44.4225C154.148 44.4225 153.693 46.2853 151.514 46.6039C149.334 46.9225 147.8 44.1451 147.8 44.1451" stroke="#161616" stroke-width="3" stroke-linecap="round"/>
<path d="M154.148 50.3351C154.148 50.3351 153.693 52.1979 151.514 52.5165C149.334 52.8351 147.8 50.0577 147.8 50.0577" stroke="#161616" stroke-width="3" stroke-linecap="round"/>
<path d="M154.148 55.8999C154.148 55.8999 153.693 57.7627 151.514 58.0813C149.334 58.3999 147.8 55.6224 147.8 55.6224" stroke="#161616" stroke-width="3" stroke-linecap="round"/>
<path d="M154.589 61.4647C154.589 61.4647 154.135 63.3275 151.955 63.6461C149.776 63.9647 148.241 61.1873 148.241 61.1873" stroke="#161616" stroke-width="3" stroke-linecap="round"/>
<path d="M154.589 67.0295C154.589 67.0295 154.135 68.8923 151.955 69.2109C149.776 69.5295 148.241 66.7521 148.241 66.7521" stroke="#161616" stroke-width="3" stroke-linecap="round"/>
<path d="M154.589 72.5943C154.589 72.5943 154.135 74.4571 151.955 74.7757C149.776 75.0943 148.241 72.3168 148.241 72.3168" stroke="#161616" stroke-width="3" stroke-linecap="round"/>
<path d="M173.641 33.293C173.641 33.293 173.187 35.1558 171.007 35.4744C168.828 35.793 167.293 33.0156 167.293 33.0156" stroke="#161616" stroke-width="3" stroke-linecap="round"/>
<path d="M173.641 38.9061C173.641 38.9061 173.187 40.7689 171.007 41.0875C168.828 41.4061 167.293 38.6287 167.293 38.6287" stroke="#161616" stroke-width="3" stroke-linecap="round"/>
<path d="M173.641 44.4225C173.641 44.4225 173.187 46.2853 171.007 46.6039C168.828 46.9225 167.293 44.1451 167.293 44.1451" stroke="#161616" stroke-width="3" stroke-linecap="round"/>
<path d="M173.641 50.3351C173.641 50.3351 173.187 52.1979 171.007 52.5165C168.828 52.8351 167.293 50.0577 167.293 50.0577" stroke="#161616" stroke-width="3" stroke-linecap="round"/>
<path d="M173.641 55.8999C173.641 55.8999 173.187 57.7627 171.007 58.0813C168.828 58.3999 167.293 55.6224 167.293 55.6224" stroke="#161616" stroke-width="3" stroke-linecap="round"/>
<path d="M174.081 61.4647C174.081 61.4647 173.626 63.3275 171.447 63.6461C169.268 63.9647 167.733 61.1873 167.733 61.1873" stroke="#161616" stroke-width="3" stroke-linecap="round"/>
<path d="M174.081 67.0295C174.081 67.0295 173.626 68.8923 171.447 69.2109C169.268 69.5295 167.733 66.7521 167.733 66.7521" stroke="#161616" stroke-width="3" stroke-linecap="round"/>
<path d="M174.081 72.5943C174.081 72.5943 173.626 74.4571 171.447 74.7757C169.268 75.0943 167.733 72.3168 167.733 72.3168" stroke="#161616" stroke-width="3" stroke-linecap="round"/>
<g opacity="0.9375">
<path d="M107.026 43.7121C107.026 43.7121 107.263 45.6148 105.339 46.6869C103.415 47.759 100.994 45.708 100.994 45.708" stroke="#161616" stroke-width="3" stroke-linecap="round"/>
<path d="M109.021 48.959C109.021 48.959 109.258 50.8616 107.334 51.9338C105.41 53.0059 102.988 50.9549 102.988 50.9549" stroke="#161616" stroke-width="3" stroke-linecap="round"/>
<path d="M110.981 54.1155C110.981 54.1155 111.218 56.0181 109.294 57.0902C107.37 58.1624 104.948 56.1114 104.948 56.1114" stroke="#161616" stroke-width="3" stroke-linecap="round"/>
<path d="M113.082 59.6424C113.082 59.6424 113.319 61.5451 111.395 62.6172C109.471 63.6893 107.049 61.6383 107.049 61.6383" stroke="#161616" stroke-width="3" stroke-linecap="round"/>
<path d="M115.058 64.8441C115.058 64.8441 115.295 66.7468 113.371 67.8189C111.447 68.891 109.026 66.84 109.026 66.84" stroke="#161616" stroke-width="3" stroke-linecap="round"/>
<path d="M117.447 69.8893C117.447 69.8893 117.684 71.7919 115.76 72.8641C113.836 73.9362 111.414 71.8852 111.414 71.8852" stroke="#161616" stroke-width="3" stroke-linecap="round"/>
<path d="M119.423 75.091C119.423 75.091 119.66 76.9937 117.736 78.0658C115.812 79.1379 113.391 77.0869 113.391 77.0869" stroke="#161616" stroke-width="3" stroke-linecap="round"/>
</g>
<g opacity="0.875">
<path d="M66.6363 73.5C66.6363 73.5 67.5921 75.1621 66.2339 76.896C64.8757 78.63 61.8486 77.6776 61.8486 77.6776" stroke="#161616" stroke-width="3" stroke-linecap="round"/>
<path d="M70.5103 77.5642C70.5103 77.5642 71.4662 79.2263 70.1079 80.9602C68.7497 82.6942 65.7226 81.7418 65.7226 81.7418" stroke="#161616" stroke-width="3" stroke-linecap="round"/>
<path d="M74.3139 81.5584C74.3139 81.5584 75.2698 83.2205 73.9115 84.9544C72.5533 86.6884 69.5262 85.736 69.5262 85.736" stroke="#161616" stroke-width="3" stroke-linecap="round"/>
<path d="M78.3915 85.8394C78.3915 85.8394 79.3474 87.5015 77.9892 89.2355C76.6309 90.9694 73.6038 90.017 73.6038 90.017" stroke="#161616" stroke-width="3" stroke-linecap="round"/>
<path d="M82.2294 89.8686C82.2294 89.8686 83.1853 91.5307 81.827 93.2646C80.4688 94.9986 77.4417 94.0462 77.4417 94.0462" stroke="#161616" stroke-width="3" stroke-linecap="round"/>
<path d="M86.3892 93.5937C86.3892 93.5937 87.3451 95.2558 85.9868 96.9897C84.6286 98.7237 81.6015 97.7713 81.6015 97.7713" stroke="#161616" stroke-width="3" stroke-linecap="round"/>
</g>
<g opacity="0.8125">
<path d="M39.3323 115.578C39.3323 115.578 40.8936 116.691 40.3808 118.833C39.868 120.975 36.7193 121.37 36.7193 121.37" stroke="#161616" stroke-width="3" stroke-linecap="round"/>
<path d="M44.5427 117.661C44.5427 117.661 46.1039 118.774 45.5911 120.916C45.0783 123.058 41.9296 123.453 41.9296 123.453" stroke="#161616" stroke-width="3" stroke-linecap="round"/>
<path d="M49.666 119.708C49.666 119.708 51.2272 120.821 50.7144 122.963C50.2016 125.105 47.0529 125.5 47.0529 125.5" stroke="#161616" stroke-width="3" stroke-linecap="round"/>
<path d="M55.1569 121.901C55.1569 121.901 56.7182 123.015 56.2054 125.157C55.6926 127.299 52.5439 127.693 52.5439 127.693" stroke="#161616" stroke-width="3" stroke-linecap="round"/>
<path d="M60.3229 123.966C60.3229 123.966 61.8842 125.079 61.3714 127.221C60.8586 129.363 57.7099 129.758 57.7099 129.758" stroke="#161616" stroke-width="3" stroke-linecap="round"/>
</g>
<g opacity="0.75">
<path d="M30.9341 163.513C30.9341 163.513 32.7737 164.054 32.9905 166.246C33.2072 168.438 30.3613 169.841 30.3613 169.841" stroke="#161616" stroke-width="3" stroke-linecap="round"/>
<path d="M36.5418 163.775C36.5418 163.775 38.3814 164.315 38.5981 166.507C38.8149 168.699 35.9689 170.103 35.9689 170.103" stroke="#161616" stroke-width="3" stroke-linecap="round"/>
<path d="M42.0541 164.032C42.0541 164.032 43.8937 164.572 44.1105 166.764C44.3272 168.956 41.4813 170.36 41.4813 170.36" stroke="#161616" stroke-width="3" stroke-linecap="round"/>
<path d="M47.9605 164.307C47.9605 164.307 49.8001 164.848 50.0168 167.04C50.2336 169.231 47.3876 170.635 47.3876 170.635" stroke="#161616" stroke-width="3" stroke-linecap="round"/>
</g>
<g opacity="0.6875">
<path d="M44.738 212.567C44.738 212.567 46.6406 212.33 47.7127 214.254C48.7848 216.178 46.7339 218.6 46.7339 218.6" stroke="#161616" stroke-width="3" stroke-linecap="round"/>
<path d="M49.9844 210.573C49.9844 210.573 51.8871 210.336 52.9592 212.26C54.0313 214.184 51.9803 216.606 51.9803 216.606" stroke="#161616" stroke-width="3" stroke-linecap="round"/>
<path d="M55.1405 208.613C55.1405 208.613 57.0432 208.376 58.1153 210.3C59.1874 212.224 57.1365 214.646 57.1365 214.646" stroke="#161616" stroke-width="3" stroke-linecap="round"/>
</g>
<g opacity="0.625">
<path d="M75.3275 252.163C75.3275 252.163 76.9709 251.175 78.7308 252.5C80.4907 253.824 79.5972 256.869 79.5972 256.869" stroke="#161616" stroke-width="3" stroke-linecap="round"/>
<path d="M79.3149 248.214C79.3149 248.214 80.9582 247.226 82.7181 248.55C84.478 249.875 83.5845 252.92 83.5845 252.92" stroke="#161616" stroke-width="3" stroke-linecap="round"/>
</g>
<g opacity="0.5625">
<path d="M120.501 272.741C120.501 272.741 121.618 271.182 123.759 271.701C125.899 272.22 126.285 275.37 126.285 275.37" stroke="#161616" stroke-width="3" stroke-linecap="round"/>
</g>
<g opacity="0.9375">
<path d="M125.239 36.362C125.239 36.362 125.476 38.2647 123.552 39.3368C121.628 40.4089 119.207 38.358 119.207 38.358" stroke="#161616" stroke-width="3" stroke-linecap="round"/>
<path d="M127.234 41.609C127.234 41.609 127.471 43.5117 125.547 44.5838C123.623 45.6559 121.201 43.6049 121.201 43.6049" stroke="#161616" stroke-width="3" stroke-linecap="round"/>
<path d="M129.195 46.7655C129.195 46.7655 129.432 48.6682 127.508 49.7403C125.584 50.8124 123.163 48.7615 123.163 48.7615" stroke="#161616" stroke-width="3" stroke-linecap="round"/>
<path d="M131.293 52.2925C131.293 52.2925 131.53 54.1951 129.606 55.2672C127.682 56.3394 125.261 54.2884 125.261 54.2884" stroke="#161616" stroke-width="3" stroke-linecap="round"/>
<path d="M133.271 57.4942C133.271 57.4942 133.508 59.3969 131.584 60.469C129.66 61.5411 127.239 59.4902 127.239 59.4902" stroke="#161616" stroke-width="3" stroke-linecap="round"/>
<path d="M135.661 62.5393C135.661 62.5393 135.899 64.442 133.975 65.5141C132.051 66.5862 129.629 64.5352 129.629 64.5352" stroke="#161616" stroke-width="3" stroke-linecap="round"/>
<path d="M137.638 67.7411C137.638 67.7411 137.875 69.6438 135.951 70.7159C134.027 71.788 131.605 69.737 131.605 69.737" stroke="#161616" stroke-width="3" stroke-linecap="round"/>
<path d="M139.616 72.9428C139.616 72.9428 139.853 74.8455 137.929 75.9176C136.005 76.9897 133.583 74.9387 133.583 74.9387" stroke="#161616" stroke-width="3" stroke-linecap="round"/>
</g>
<g opacity="0.875">
<path d="M80.0574 59.4395C80.0574 59.4395 81.0133 61.1016 79.6551 62.8355C78.2968 64.5695 75.2697 63.6171 75.2697 63.6171" stroke="#161616" stroke-width="3" stroke-linecap="round"/>
<path d="M83.9282 63.5037C83.9282 63.5037 84.8841 65.1658 83.5259 66.8998C82.1677 68.6337 79.1406 67.6814 79.1406 67.6814" stroke="#161616" stroke-width="3" stroke-linecap="round"/>
<path d="M87.7317 67.4978C87.7317 67.4978 88.6876 69.16 87.3294 70.8939C85.9711 72.6278 82.944 71.6755 82.944 71.6755" stroke="#161616" stroke-width="3" stroke-linecap="round"/>
<path d="M91.8109 71.7789C91.8109 71.7789 92.7668 73.441 91.4086 75.175C90.0503 76.9089 87.0233 75.9566 87.0233 75.9566" stroke="#161616" stroke-width="3" stroke-linecap="round"/>
<path d="M95.6522 75.808C95.6522 75.808 96.6081 77.4702 95.2499 79.2041C93.8917 80.938 90.8646 79.9857 90.8646 79.9857" stroke="#161616" stroke-width="3" stroke-linecap="round"/>
<path d="M99.807 79.533C99.807 79.533 100.763 81.1952 99.4047 82.9291C98.0464 84.663 95.0194 83.7107 95.0194 83.7107" stroke="#161616" stroke-width="3" stroke-linecap="round"/>
<path d="M103.645 83.5623C103.645 83.5623 104.601 85.2244 103.243 86.9584C101.884 88.6923 98.8574 87.7399 98.8574 87.7399" stroke="#161616" stroke-width="3" stroke-linecap="round"/>
<path d="M107.485 87.5915C107.485 87.5915 108.441 89.2536 107.082 90.9875C105.724 92.7215 102.697 91.7691 102.697 91.7691" stroke="#161616" stroke-width="3" stroke-linecap="round"/>
</g>
<g opacity="0.8125">
<path d="M47.001 97.3636C47.001 97.3636 48.5623 98.4767 48.0495 100.619C47.5367 102.761 44.388 103.156 44.388 103.156" stroke="#161616" stroke-width="3" stroke-linecap="round"/>
<path d="M52.2114 99.4463C52.2114 99.4463 53.7726 100.559 53.2598 102.701C52.747 104.843 49.5983 105.238 49.5983 105.238" stroke="#161616" stroke-width="3" stroke-linecap="round"/>
<path d="M57.3364 101.493C57.3364 101.493 58.8976 102.606 58.3848 104.748C57.872 106.89 54.7233 107.285 54.7233 107.285" stroke="#161616" stroke-width="3" stroke-linecap="round"/>
<path d="M62.8273 103.687C62.8273 103.687 64.3886 104.8 63.8758 106.942C63.363 109.084 60.2143 109.479 60.2143 109.479" stroke="#161616" stroke-width="3" stroke-linecap="round"/>
<path d="M67.9949 105.752C67.9949 105.752 69.5562 106.865 69.0434 109.007C68.5306 111.149 65.3819 111.544 65.3819 111.544" stroke="#161616" stroke-width="3" stroke-linecap="round"/>
<path d="M73.3234 107.407C73.3234 107.407 74.8847 108.52 74.3719 110.662C73.8591 112.804 70.7104 113.199 70.7104 113.199" stroke="#161616" stroke-width="3" stroke-linecap="round"/>
<path d="M78.4927 109.472C78.4927 109.472 80.054 110.585 79.5412 112.727C79.0284 114.869 75.8797 115.264 75.8797 115.264" stroke="#161616" stroke-width="3" stroke-linecap="round"/>
<path d="M83.6588 111.537C83.6588 111.537 85.22 112.65 84.7072 114.792C84.1944 116.934 81.0457 117.329 81.0457 117.329" stroke="#161616" stroke-width="3" stroke-linecap="round"/>
</g>
<g opacity="0.75">
<path d="M33.8083 144.141C33.8083 144.141 35.6479 144.682 35.8646 146.874C36.0814 149.066 33.2354 150.469 33.2354 150.469" stroke="#161616" stroke-width="3" stroke-linecap="round"/>
<path d="M39.4158 144.403C39.4158 144.403 41.2554 144.943 41.4722 147.135C41.6889 149.327 38.843 150.731 38.843 150.731" stroke="#161616" stroke-width="3" stroke-linecap="round"/>
<path d="M44.9248 144.66C44.9248 144.66 46.7645 145.2 46.9812 147.392C47.1979 149.584 44.352 150.988 44.352 150.988" stroke="#161616" stroke-width="3" stroke-linecap="round"/>
<path d="M50.8328 144.935C50.8328 144.935 52.6724 145.476 52.8892 147.668C53.1059 149.859 50.26 151.263 50.26 151.263" stroke="#161616" stroke-width="3" stroke-linecap="round"/>
<path d="M56.3896 145.194C56.3896 145.194 58.2292 145.735 58.4459 147.927C58.6627 150.119 55.8167 151.523 55.8167 151.523" stroke="#161616" stroke-width="3" stroke-linecap="round"/>
<path d="M61.9709 145.013C61.9709 145.013 63.8105 145.554 64.0272 147.745C64.244 149.937 61.398 151.341 61.398 151.341" stroke="#161616" stroke-width="3" stroke-linecap="round"/>
<path d="M67.5275 145.272C67.5275 145.272 69.3671 145.813 69.5839 148.005C69.8006 150.197 66.9547 151.6 66.9547 151.6" stroke="#161616" stroke-width="3" stroke-linecap="round"/>
<path d="M73.0874 145.532C73.0874 145.532 74.9271 146.072 75.1438 148.264C75.3605 150.456 72.5146 151.86 72.5146 151.86" stroke="#161616" stroke-width="3" stroke-linecap="round"/>
</g>
<g opacity="0.6875">
<path d="M38.5003 194.364C38.5003 194.364 40.403 194.127 41.4751 196.051C42.5472 197.975 40.4962 200.397 40.4962 200.397" stroke="#161616" stroke-width="3" stroke-linecap="round"/>
<path d="M43.7485 192.37C43.7485 192.37 45.6511 192.133 46.7232 194.057C47.7953 195.981 45.7444 198.403 45.7444 198.403" stroke="#161616" stroke-width="3" stroke-linecap="round"/>
<path d="M48.9046 190.41C48.9046 190.41 50.8073 190.173 51.8794 192.097C52.9515 194.021 50.9005 196.443 50.9005 196.443" stroke="#161616" stroke-width="3" stroke-linecap="round"/>
<path d="M54.4317 188.31C54.4317 188.31 56.3344 188.073 57.4065 189.997C58.4786 191.921 56.4276 194.342 56.4276 194.342" stroke="#161616" stroke-width="3" stroke-linecap="round"/>
<path d="M59.6338 186.333C59.6338 186.333 61.5365 186.096 62.6086 188.02C63.6807 189.944 61.6298 192.365 61.6298 192.365" stroke="#161616" stroke-width="3" stroke-linecap="round"/>
<path d="M64.68 183.944C64.68 183.944 66.5827 183.706 67.6548 185.63C68.7269 187.555 66.6759 189.976 66.6759 189.976" stroke="#161616" stroke-width="3" stroke-linecap="round"/>
<path d="M69.8804 181.967C69.8804 181.967 71.7831 181.729 72.8552 183.653C73.9273 185.578 71.8763 187.999 71.8763 187.999" stroke="#161616" stroke-width="3" stroke-linecap="round"/>
<path d="M75.0824 179.99C75.0824 179.99 76.9851 179.752 78.0572 181.676C79.1293 183.601 77.0784 186.022 77.0784 186.022" stroke="#161616" stroke-width="3" stroke-linecap="round"/>
</g>
<g opacity="0.625">
<path d="M62.5316 237.835C62.5316 237.835 64.175 236.847 65.9349 238.171C67.6948 239.496 66.8013 242.541 66.8013 242.541" stroke="#161616" stroke-width="3" stroke-linecap="round"/>
<path d="M66.5205 233.885C66.5205 233.885 68.1638 232.897 69.9238 234.222C71.6837 235.546 70.7902 238.591 70.7902 238.591" stroke="#161616" stroke-width="3" stroke-linecap="round"/>
<path d="M70.439 230.003C70.439 230.003 72.0823 229.016 73.8422 230.34C75.6021 231.664 74.7086 234.709 74.7086 234.709" stroke="#161616" stroke-width="3" stroke-linecap="round"/>
<path d="M74.6414 225.843C74.6414 225.843 76.2847 224.855 78.0446 226.18C79.8045 227.504 78.911 230.549 78.911 230.549" stroke="#161616" stroke-width="3" stroke-linecap="round"/>
<path d="M78.5976 221.927C78.5976 221.927 80.2409 220.939 82.0008 222.264C83.7607 223.588 82.8672 226.633 82.8672 226.633" stroke="#161616" stroke-width="3" stroke-linecap="round"/>
<path d="M82.2401 217.698C82.2401 217.698 83.8835 216.71 85.6434 218.035C87.4033 219.359 86.5098 222.404 86.5098 222.404" stroke="#161616" stroke-width="3" stroke-linecap="round"/>
<path d="M86.193 213.783C86.193 213.783 87.8363 212.795 89.5962 214.119C91.3562 215.444 90.4626 218.489 90.4626 218.489" stroke="#161616" stroke-width="3" stroke-linecap="round"/>
<path d="M90.1475 209.867C90.1475 209.867 91.7908 208.879 93.5507 210.204C95.3106 211.528 94.4171 214.573 94.4171 214.573" stroke="#161616" stroke-width="3" stroke-linecap="round"/>
</g>
<g opacity="0.5625">
<path d="M101.418 268.364C101.418 268.364 102.536 266.806 104.676 267.324C106.817 267.843 107.203 270.993 107.203 270.993" stroke="#161616" stroke-width="3" stroke-linecap="round"/>
<path d="M103.516 263.157C103.516 263.157 104.634 261.599 106.774 262.118C108.915 262.636 109.301 265.786 109.301 265.786" stroke="#161616" stroke-width="3" stroke-linecap="round"/>
<path d="M105.577 258.04C105.577 258.04 106.694 256.482 108.835 257.001C110.975 257.52 111.361 260.669 111.361 260.669" stroke="#161616" stroke-width="3" stroke-linecap="round"/>
<path d="M107.786 252.556C107.786 252.556 108.903 250.998 111.044 251.516C113.185 252.035 113.571 255.185 113.571 255.185" stroke="#161616" stroke-width="3" stroke-linecap="round"/>
<path d="M109.866 247.394C109.866 247.394 110.983 245.835 113.124 246.354C115.265 246.873 115.651 250.023 115.651 250.023" stroke="#161616" stroke-width="3" stroke-linecap="round"/>
<path d="M111.537 242.067C111.537 242.067 112.654 240.509 114.795 241.028C116.936 241.546 117.322 244.696 117.322 244.696" stroke="#161616" stroke-width="3" stroke-linecap="round"/>
<path d="M113.614 236.905C113.614 236.905 114.731 235.347 116.872 235.866C119.012 236.385 119.398 239.534 119.398 239.534" stroke="#161616" stroke-width="3" stroke-linecap="round"/>
<path d="M115.693 231.744C115.693 231.744 116.811 230.185 118.951 230.704C121.092 231.223 121.478 234.373 121.478 234.373" stroke="#161616" stroke-width="3" stroke-linecap="round"/>
</g>
<g opacity="0.5">
<path d="M145.944 285.836C145.944 285.836 146.445 283.985 148.632 283.722C150.819 283.459 152.283 286.274 152.283 286.274" stroke="#161616" stroke-width="3" stroke-linecap="round"/>
<path d="M146.087 280.225C146.087 280.225 146.588 278.374 148.775 278.111C150.962 277.847 152.426 280.663 152.426 280.663" stroke="#161616" stroke-width="3" stroke-linecap="round"/>
<path d="M146.225 274.71C146.225 274.71 146.726 272.859 148.913 272.596C151.1 272.333 152.564 275.148 152.564 275.148" stroke="#161616" stroke-width="3" stroke-linecap="round"/>
<path d="M146.374 268.799C146.374 268.799 146.875 266.949 149.062 266.685C151.249 266.422 152.713 269.237 152.713 269.237" stroke="#161616" stroke-width="3" stroke-linecap="round"/>
<path d="M146.517 263.236C146.517 263.236 147.018 261.385 149.205 261.122C151.392 260.858 152.856 263.674 152.856 263.674" stroke="#161616" stroke-width="3" stroke-linecap="round"/>
<path d="M146.217 257.662C146.217 257.662 146.718 255.811 148.905 255.548C151.091 255.284 152.555 258.1 152.555 258.1" stroke="#161616" stroke-width="3" stroke-linecap="round"/>
<path d="M146.358 252.098C146.358 252.098 146.859 250.248 149.046 249.984C151.232 249.721 152.697 252.536 152.697 252.536" stroke="#161616" stroke-width="3" stroke-linecap="round"/>
<path d="M146.497 246.535C146.497 246.535 146.999 244.685 149.185 244.421C151.372 244.158 152.836 246.973 152.836 246.973" stroke="#161616" stroke-width="3" stroke-linecap="round"/>
</g>
<g opacity="0.4375">
<path d="M193.904 277.922C193.904 277.922 193.666 276.019 195.589 274.946C197.513 273.873 199.935 275.923 199.935 275.923" stroke="#161616" stroke-width="3" stroke-linecap="round"/>
<path d="M191.908 272.676C191.908 272.676 191.67 270.773 193.593 269.7C195.516 268.627 197.939 270.677 197.939 270.677" stroke="#161616" stroke-width="3" stroke-linecap="round"/>
<path d="M189.944 267.52C189.944 267.52 189.706 265.618 191.63 264.545C193.553 263.471 195.976 265.521 195.976 265.521" stroke="#161616" stroke-width="3" stroke-linecap="round"/>
<path d="M187.841 261.994C187.841 261.994 187.603 260.092 189.527 259.019C191.45 257.946 193.873 259.995 193.873 259.995" stroke="#161616" stroke-width="3" stroke-linecap="round"/>
<path d="M185.862 256.793C185.862 256.793 185.624 254.89 187.547 253.817C189.471 252.744 191.893 254.794 191.893 254.794" stroke="#161616" stroke-width="3" stroke-linecap="round"/>
<path d="M183.47 251.749C183.47 251.749 183.232 249.847 185.155 248.774C187.079 247.7 189.501 249.75 189.501 249.75" stroke="#161616" stroke-width="3" stroke-linecap="round"/>
<path d="M181.49 246.548C181.49 246.548 181.252 244.646 183.176 243.573C185.099 242.5 187.522 244.549 187.522 244.549" stroke="#161616" stroke-width="3" stroke-linecap="round"/>
</g>
<g opacity="0.375">
<path d="M237.898 254.966C237.898 254.966 236.91 253.323 238.234 251.562C239.558 249.802 242.603 250.695 242.603 250.695" stroke="#161616" stroke-width="3" stroke-linecap="round"/>
<path d="M233.949 250.978C233.949 250.978 232.96 249.335 234.284 247.575C235.609 245.814 238.654 246.707 238.654 246.707" stroke="#161616" stroke-width="3" stroke-linecap="round"/>
<path d="M230.068 247.059C230.068 247.059 229.08 245.416 230.404 243.656C231.728 241.895 234.773 242.788 234.773 242.788" stroke="#161616" stroke-width="3" stroke-linecap="round"/>
<path d="M225.907 242.858C225.907 242.858 224.918 241.215 226.242 239.455C227.567 237.695 230.612 238.588 230.612 238.588" stroke="#161616" stroke-width="3" stroke-linecap="round"/>
<path d="M221.988 238.904C221.988 238.904 221 237.261 222.324 235.501C223.648 233.741 226.693 234.634 226.693 234.634" stroke="#161616" stroke-width="3" stroke-linecap="round"/>
<path d="M217.76 235.261C217.76 235.261 216.771 233.618 218.095 231.858C219.42 230.098 222.465 230.991 222.465 230.991" stroke="#161616" stroke-width="3" stroke-linecap="round"/>
</g>
<g opacity="0.3125">
<path d="M269.507 219.856C269.507 219.856 267.993 218.68 268.593 216.561C269.193 214.441 272.355 214.176 272.355 214.176" stroke="#161616" stroke-width="3" stroke-linecap="round"/>
<path d="M264.382 217.561C264.382 217.561 262.868 216.385 263.468 214.266C264.068 212.147 267.23 211.881 267.23 211.881" stroke="#161616" stroke-width="3" stroke-linecap="round"/>
<path d="M259.349 215.306C259.349 215.306 257.835 214.13 258.435 212.011C259.035 209.892 262.197 209.626 262.197 209.626" stroke="#161616" stroke-width="3" stroke-linecap="round"/>
<path d="M253.955 212.889C253.955 212.889 252.441 211.713 253.041 209.594C253.641 207.475 256.803 207.209 256.803 207.209" stroke="#161616" stroke-width="3" stroke-linecap="round"/>
<path d="M248.874 210.614C248.874 210.614 247.36 209.438 247.96 207.319C248.56 205.199 251.722 204.934 251.722 204.934" stroke="#161616" stroke-width="3" stroke-linecap="round"/>
</g>
<g opacity="0.25">
<path d="M285.016 171.115C285.016 171.115 283.164 170.618 282.896 168.432C282.627 166.246 285.439 164.775 285.439 164.775" stroke="#161616" stroke-width="3" stroke-linecap="round"/>
<path d="M279.405 170.987C279.405 170.987 277.554 170.49 277.285 168.304C277.016 166.118 279.828 164.647 279.828 164.647" stroke="#161616" stroke-width="3" stroke-linecap="round"/>
<path d="M273.89 170.861C273.89 170.861 272.038 170.364 271.769 168.178C271.501 165.992 274.312 164.521 274.312 164.521" stroke="#161616" stroke-width="3" stroke-linecap="round"/>
<path d="M267.979 170.726C267.979 170.726 266.127 170.229 265.858 168.043C265.589 165.856 268.401 164.385 268.401 164.385" stroke="#161616" stroke-width="3" stroke-linecap="round"/>
</g>
<g opacity="0.1875">
<path d="M280.678 122.434C280.678 122.434 278.781 122.707 277.672 120.804C276.563 118.9 278.568 116.44 278.568 116.44" stroke="#161616" stroke-width="3" stroke-linecap="round"/>
<path d="M275.47 124.527C275.47 124.527 273.572 124.801 272.463 122.897C271.355 120.994 273.359 118.534 273.359 118.534" stroke="#161616" stroke-width="3" stroke-linecap="round"/>
<path d="M270.351 126.585C270.351 126.585 268.453 126.858 267.345 124.955C266.236 123.052 268.241 120.591 268.241 120.591" stroke="#161616" stroke-width="3" stroke-linecap="round"/>
</g>
<g opacity="0.125">
<path d="M259.002 81.7927C259.002 81.7927 257.33 82.7317 255.61 81.356C253.89 79.9802 254.873 76.9629 254.873 76.9629" stroke="#161616" stroke-width="3" stroke-linecap="round"/>
<path d="M254.898 85.623C254.898 85.623 253.227 86.562 251.507 85.1863C249.786 83.8105 250.769 80.7933 250.769 80.7933" stroke="#161616" stroke-width="3" stroke-linecap="round"/>
</g>
<g opacity="0.0625">
<path d="M221.703 46.6286C221.703 46.6286 220.543 48.1553 218.417 47.5777C216.292 47.0001 215.993 43.8409 215.993 43.8409" stroke="#161616" stroke-width="3" stroke-linecap="round"/>
</g>
</svg>
