<svg width="2168" height="393" viewBox="0 0 2168 393" fill="none" xmlns="http://www.w3.org/2000/svg">
<path d="M4.0017 196.142C4.37298 105.312 63.379 77.6683 68.5744 66.2158C73.7697 54.7633 69.6877 11.7178 110.881 9.34834C152.074 6.97886 147.249 39.3617 152.074 36.9923C156.898 34.6228 161.64 39.8734 166.176 41.3363C166.176 41.3363 171 9.34834 196.935 9.34834C222.87 9.34834 231.365 41.3363 231.365 41.3363C231.365 41.3363 241.434 5.11301 268.393 9.34834C295.352 13.5837 283.009 50.0465 283.009 50.0465C283.009 50.0465 320.687 31.7272 327.832 66.2158C334.978 100.704 310.293 116.41 310.293 116.41C310.293 116.41 348.295 105.695 348.295 144.061C348.295 182.428 310.293 190.377 310.293 190.377C310.293 190.377 348.295 190.377 348.295 229.089C348.295 267.801 310.293 270.221 310.293 270.221C310.293 270.221 339.85 291.65 327.832 324.832C315.815 358.014 283.009 331.202 283.009 331.202C283.009 331.202 293.078 362.4 268.393 371.089C243.707 379.777 231.365 351.792 231.365 351.792C231.365 351.792 223.569 388.86 196.935 388.86C170.301 388.86 171 362.4 171 362.4C163.969 370.907 156.527 370.299 152.074 371.089C147.62 371.879 149.476 390.834 110.881 388.86C72.2855 386.885 73.0275 339.101 68.5744 331.202C64.1212 323.304 3.63043 286.972 4.0017 196.142Z" fill="#9036DD" stroke="#7C21CA" stroke-width="8" stroke-linecap="round"/>
<path d="M160.198 329.176C158.046 330.452 84.7023 319.805 86.3068 268.276C87.9114 216.747 158.006 209.252 160.247 215.748C162.488 222.244 160.247 264.161 160.247 264.161L160.198 302.546C160.198 302.546 162.35 327.899 160.198 329.176Z" fill="#F5EFF8" stroke="#7C21CA" stroke-width="8" stroke-linecap="round"/>
<path d="M160.193 69.5717C158.041 68.2953 84.6976 78.9424 86.3022 130.471C87.9067 182.001 158.001 189.496 160.242 183C162.483 176.503 160.193 161.793 160.193 161.793L160.242 123.863C160.242 123.863 162.346 70.848 160.193 69.5717Z" fill="#F5EFF8" stroke="#7C21CA" stroke-width="8" stroke-linecap="round"/>
<circle cx="215.567" cy="234.825" r="16.3445" transform="rotate(123.429 215.567 234.825)" fill="#7C21CA"/>
<path d="M215.308 296.352C212.147 297.123 203.486 235.958 203.486 235.958L227.021 240.23C227.021 240.23 218.469 295.581 215.308 296.352Z" fill="#7C21CA" stroke="#7C21CA" stroke-width="8" stroke-linecap="round"/>
<circle cx="16.3445" cy="16.3445" r="16.3445" transform="matrix(-0.563979 -0.825789 -0.825789 0.563979 232.549 167.708)" fill="#7C21CA"/>
<path d="M208.609 101.913C206.985 102.969 198.432 158.773 198.432 158.773L220.158 157.57C220.158 157.57 210.233 100.856 208.609 101.913Z" fill="#7C21CA" stroke="#7C21CA" stroke-width="8" stroke-linecap="round"/>
<path d="M111.015 288.6C110.015 262.6 160.515 273.1 160.515 273.1V315.1C160.515 315.1 112.015 314.6 111.015 288.6Z" fill="#7C21CA" stroke="#7C21CA" stroke-width="8"/>
<path d="M111.015 147.6C110.015 121.6 160.515 132.1 160.515 132.1V174.1C160.515 174.1 112.015 173.6 111.015 147.6Z" fill="#7C21CA" stroke="#7C21CA" stroke-width="8"/>
<path d="M367.002 196.142C367.373 105.312 426.379 77.6683 431.574 66.2158C436.77 54.7633 432.688 11.7178 473.881 9.34834C515.074 6.97886 510.249 39.3617 515.074 36.9923C519.898 34.6228 524.64 39.8734 529.176 41.3363C529.176 41.3363 534 9.34834 559.935 9.34834C585.87 9.34834 594.365 41.3363 594.365 41.3363C594.365 41.3363 604.434 5.11301 631.393 9.34834C658.352 13.5837 646.009 50.0465 646.009 50.0465C646.009 50.0465 683.687 31.7272 690.832 66.2158C697.978 100.704 673.293 116.41 673.293 116.41C673.293 116.41 711.295 105.695 711.295 144.061C711.295 182.428 673.293 190.377 673.293 190.377C673.293 190.377 711.295 190.377 711.295 229.089C711.295 267.801 673.293 270.221 673.293 270.221C673.293 270.221 702.85 291.65 690.832 324.832C678.815 358.014 646.009 331.202 646.009 331.202C646.009 331.202 656.078 362.4 631.393 371.089C606.707 379.777 594.365 351.792 594.365 351.792C594.365 351.792 586.569 388.86 559.935 388.86C533.301 388.86 534 362.4 534 362.4C526.969 370.907 519.527 370.299 515.074 371.089C510.62 371.879 512.476 390.834 473.881 388.86C435.285 386.885 436.027 339.101 431.574 331.202C427.121 323.304 366.63 286.972 367.002 196.142Z" fill="#9036DD" stroke="#7C21CA" stroke-width="8" stroke-linecap="round"/>
<path d="M523.198 329.176C521.046 330.452 447.702 319.805 449.307 268.276C450.911 216.747 521.006 209.252 523.247 215.748C525.488 222.244 523.247 264.161 523.247 264.161L523.198 302.546C523.198 302.546 525.35 327.899 523.198 329.176Z" fill="#F5EFF8" stroke="#7C21CA" stroke-width="8" stroke-linecap="round"/>
<path d="M523.194 69.5717C521.041 68.2953 447.698 78.9424 449.302 130.471C450.907 182.001 521.001 189.496 523.242 183C525.483 176.503 523.193 161.793 523.193 161.793L523.243 123.863C523.243 123.863 525.346 70.848 523.194 69.5717Z" fill="#F5EFF8" stroke="#7C21CA" stroke-width="8" stroke-linecap="round"/>
<circle cx="578.567" cy="234.825" r="16.3445" transform="rotate(123.429 578.567 234.825)" fill="#7C21CA"/>
<path d="M578.308 296.352C575.147 297.123 566.486 235.958 566.486 235.958L590.021 240.23C590.021 240.23 581.468 295.581 578.308 296.352Z" fill="#7C21CA" stroke="#7C21CA" stroke-width="8" stroke-linecap="round"/>
<circle cx="16.3445" cy="16.3445" r="16.3445" transform="matrix(-0.563979 -0.825789 -0.825789 0.563979 595.549 167.708)" fill="#7C21CA"/>
<path d="M571.609 101.913C569.985 102.969 561.432 158.773 561.432 158.773L583.158 157.57C583.158 157.57 573.233 100.856 571.609 101.913Z" fill="#7C21CA" stroke="#7C21CA" stroke-width="8" stroke-linecap="round"/>
<path d="M474.015 281.6C473.015 255.6 523.515 266.1 523.515 266.1V308.1C523.515 308.1 475.015 307.6 474.015 281.6Z" fill="#7C21CA" stroke="#7C21CA" stroke-width="8"/>
<path d="M474.015 141.6C473.015 115.6 523.515 126.1 523.515 126.1V168.1C523.515 168.1 475.015 167.6 474.015 141.6Z" fill="#7C21CA" stroke="#7C21CA" stroke-width="8"/>
<path d="M730.002 196.142C730.373 105.312 789.379 77.6683 794.574 66.2158C799.77 54.7633 795.688 11.7178 836.881 9.34834C878.073 6.97886 873.249 39.3617 878.073 36.9923C882.898 34.6228 887.64 39.8734 892.176 41.3363C892.176 41.3363 897 9.34834 922.935 9.34834C948.87 9.34834 957.365 41.3363 957.365 41.3363C957.365 41.3363 967.434 5.11301 994.393 9.34834C1021.35 13.5837 1009.01 50.0465 1009.01 50.0465C1009.01 50.0465 1046.69 31.7272 1053.83 66.2158C1060.98 100.704 1036.29 116.41 1036.29 116.41C1036.29 116.41 1074.3 105.695 1074.3 144.061C1074.3 182.428 1036.29 190.377 1036.29 190.377C1036.29 190.377 1074.3 190.377 1074.3 229.089C1074.3 267.801 1036.29 270.221 1036.29 270.221C1036.29 270.221 1065.85 291.65 1053.83 324.832C1041.81 358.014 1009.01 331.202 1009.01 331.202C1009.01 331.202 1019.08 362.4 994.393 371.089C969.707 379.777 957.365 351.792 957.365 351.792C957.365 351.792 949.569 388.86 922.935 388.86C896.301 388.86 897 362.4 897 362.4C889.969 370.907 882.527 370.299 878.073 371.089C873.62 371.879 875.476 390.834 836.881 388.86C798.285 386.885 799.027 339.101 794.574 331.202C790.121 323.304 729.63 286.972 730.002 196.142Z" fill="#9036DD" stroke="#7C21CA" stroke-width="8" stroke-linecap="round"/>
<path d="M886.198 329.176C884.046 330.452 810.702 319.805 812.307 268.276C813.911 216.747 884.006 209.252 886.247 215.748C888.488 222.244 886.247 264.161 886.247 264.161L886.198 302.546C886.198 302.546 888.35 327.899 886.198 329.176Z" fill="#F5EFF8" stroke="#7C21CA" stroke-width="8" stroke-linecap="round"/>
<path d="M886.194 69.5717C884.041 68.2953 810.698 78.9424 812.302 130.471C813.907 182.001 884.001 189.496 886.242 183C888.483 176.503 886.193 161.793 886.193 161.793L886.243 123.863C886.243 123.863 888.346 70.848 886.194 69.5717Z" fill="#F5EFF8" stroke="#7C21CA" stroke-width="8" stroke-linecap="round"/>
<circle cx="941.567" cy="234.825" r="16.3445" transform="rotate(123.429 941.567 234.825)" fill="#7C21CA"/>
<path d="M941.308 296.352C938.147 297.123 929.486 235.958 929.486 235.958L953.021 240.23C953.021 240.23 944.468 295.581 941.308 296.352Z" fill="#7C21CA" stroke="#7C21CA" stroke-width="8" stroke-linecap="round"/>
<circle cx="16.3445" cy="16.3445" r="16.3445" transform="matrix(-0.563979 -0.825789 -0.825789 0.563979 958.549 167.708)" fill="#7C21CA"/>
<path d="M934.609 101.913C932.985 102.969 924.432 158.773 924.432 158.773L946.158 157.57C946.158 157.57 936.233 100.856 934.609 101.913Z" fill="#7C21CA" stroke="#7C21CA" stroke-width="8" stroke-linecap="round"/>
<path d="M837.015 275.6C836.015 249.6 886.515 260.1 886.515 260.1V302.1C886.515 302.1 838.015 301.6 837.015 275.6Z" fill="#7C21CA" stroke="#7C21CA" stroke-width="8"/>
<path d="M837.015 134.6C836.015 108.6 886.515 119.1 886.515 119.1V161.1C886.515 161.1 838.015 160.6 837.015 134.6Z" fill="#7C21CA" stroke="#7C21CA" stroke-width="8"/>
<path d="M1093 196.142C1093.37 105.312 1152.38 77.6683 1157.57 66.2158C1162.77 54.7633 1158.69 11.7178 1199.88 9.34834C1241.07 6.97886 1236.25 39.3617 1241.07 36.9923C1245.9 34.6228 1250.64 39.8734 1255.18 41.3363C1255.18 41.3363 1260 9.34834 1285.94 9.34834C1311.87 9.34834 1320.36 41.3363 1320.36 41.3363C1320.36 41.3363 1330.43 5.11301 1357.39 9.34834C1384.35 13.5837 1372.01 50.0465 1372.01 50.0465C1372.01 50.0465 1409.69 31.7272 1416.83 66.2158C1423.98 100.704 1399.29 116.41 1399.29 116.41C1399.29 116.41 1437.3 105.695 1437.3 144.061C1437.3 182.428 1399.29 190.377 1399.29 190.377C1399.29 190.377 1437.3 190.377 1437.3 229.089C1437.3 267.801 1399.29 270.221 1399.29 270.221C1399.29 270.221 1428.85 291.65 1416.83 324.832C1404.81 358.014 1372.01 331.202 1372.01 331.202C1372.01 331.202 1382.08 362.4 1357.39 371.089C1332.71 379.777 1320.36 351.792 1320.36 351.792C1320.36 351.792 1312.57 388.86 1285.94 388.86C1259.3 388.86 1260 362.4 1260 362.4C1252.97 370.907 1245.53 370.299 1241.07 371.089C1236.62 371.879 1238.48 390.834 1199.88 388.86C1161.29 386.885 1162.03 339.101 1157.57 331.202C1153.12 323.304 1092.63 286.972 1093 196.142Z" fill="#9036DD" stroke="#7C21CA" stroke-width="8" stroke-linecap="round"/>
<path d="M1093 196.142C1093.37 105.312 1152.38 77.6683 1157.57 66.2158C1162.77 54.7633 1158.69 11.7178 1199.88 9.34834C1241.07 6.97886 1236.25 39.3617 1241.07 36.9923C1245.9 34.6228 1250.64 39.8734 1255.18 41.3363C1255.18 41.3363 1260 9.34834 1285.94 9.34834C1311.87 9.34834 1320.36 41.3363 1320.36 41.3363C1320.36 41.3363 1330.43 5.11301 1357.39 9.34834C1384.35 13.5837 1372.01 50.0465 1372.01 50.0465C1372.01 50.0465 1409.69 31.7272 1416.83 66.2158C1423.98 100.704 1399.29 116.41 1399.29 116.41C1399.29 116.41 1437.3 105.695 1437.3 144.061C1437.3 182.428 1399.29 190.377 1399.29 190.377C1399.29 190.377 1437.3 190.377 1437.3 229.089C1437.3 267.801 1399.29 270.221 1399.29 270.221C1399.29 270.221 1428.85 291.65 1416.83 324.832C1404.81 358.014 1372.01 331.202 1372.01 331.202C1372.01 331.202 1382.08 362.4 1357.39 371.089C1332.71 379.777 1320.36 351.792 1320.36 351.792C1320.36 351.792 1312.57 388.86 1285.94 388.86C1259.3 388.86 1260 362.4 1260 362.4C1252.97 370.907 1245.53 370.299 1241.07 371.089C1236.62 371.879 1238.48 390.834 1199.88 388.86C1161.29 386.885 1162.03 339.101 1157.57 331.202C1153.12 323.304 1092.63 286.972 1093 196.142Z" fill="#9036DD" stroke="#7C21CA" stroke-width="8" stroke-linecap="round"/>
<path d="M1249.2 329.176C1247.05 330.452 1173.7 319.805 1175.31 268.276C1176.91 216.747 1247.01 209.252 1249.25 215.748C1251.49 222.244 1249.25 264.161 1249.25 264.161L1249.2 302.546C1249.2 302.546 1251.35 327.899 1249.2 329.176Z" fill="#F5EFF8" stroke="#7C21CA" stroke-width="8" stroke-linecap="round"/>
<path d="M1249.19 69.5717C1247.04 68.2953 1173.7 78.9424 1175.3 130.471C1176.91 182.001 1247 189.496 1249.24 183C1251.48 176.503 1249.19 161.793 1249.19 161.793L1249.24 123.863C1249.24 123.863 1251.35 70.848 1249.19 69.5717Z" fill="#F5EFF8" stroke="#7C21CA" stroke-width="8" stroke-linecap="round"/>
<circle cx="1304.57" cy="234.825" r="16.3445" transform="rotate(123.429 1304.57 234.825)" fill="#7C21CA"/>
<path d="M1304.31 296.352C1301.15 297.123 1292.49 235.958 1292.49 235.958L1316.02 240.23C1316.02 240.23 1307.47 295.581 1304.31 296.352Z" fill="#7C21CA" stroke="#7C21CA" stroke-width="8" stroke-linecap="round"/>
<circle cx="16.3445" cy="16.3445" r="16.3445" transform="matrix(-0.563979 -0.825789 -0.825789 0.563979 1321.55 167.708)" fill="#7C21CA"/>
<path d="M1297.61 101.913C1295.98 102.969 1287.43 158.773 1287.43 158.773L1309.16 157.57C1309.16 157.57 1299.23 100.856 1297.61 101.913Z" fill="#7C21CA" stroke="#7C21CA" stroke-width="8" stroke-linecap="round"/>
<path d="M1199.01 268.6C1198.01 242.6 1248.51 253.1 1248.51 253.1V295.1C1248.51 295.1 1200.01 294.6 1199.01 268.6Z" fill="#7C21CA" stroke="#7C21CA" stroke-width="8"/>
<path d="M1199.01 124.6C1198.01 98.6001 1248.51 109.1 1248.51 109.1V151.1C1248.51 151.1 1200.01 150.6 1199.01 124.6Z" fill="#7C21CA" stroke="#7C21CA" stroke-width="8"/>
<path d="M1456 196.142C1456.37 105.312 1515.38 77.6683 1520.57 66.2158C1525.77 54.7633 1521.69 11.7178 1562.88 9.34834C1604.07 6.97886 1599.25 39.3617 1604.07 36.9923C1608.9 34.6228 1613.64 39.8734 1618.18 41.3363C1618.18 41.3363 1623 9.34834 1648.94 9.34834C1674.87 9.34834 1683.36 41.3363 1683.36 41.3363C1683.36 41.3363 1693.43 5.11301 1720.39 9.34834C1747.35 13.5837 1735.01 50.0465 1735.01 50.0465C1735.01 50.0465 1772.69 31.7272 1779.83 66.2158C1786.98 100.704 1762.29 116.41 1762.29 116.41C1762.29 116.41 1800.3 105.695 1800.3 144.061C1800.3 182.428 1762.29 190.377 1762.29 190.377C1762.29 190.377 1800.3 190.377 1800.3 229.089C1800.3 267.801 1762.29 270.221 1762.29 270.221C1762.29 270.221 1791.85 291.65 1779.83 324.832C1767.81 358.014 1735.01 331.202 1735.01 331.202C1735.01 331.202 1745.08 362.4 1720.39 371.089C1695.71 379.777 1683.36 351.792 1683.36 351.792C1683.36 351.792 1675.57 388.86 1648.94 388.86C1622.3 388.86 1623 362.4 1623 362.4C1615.97 370.907 1608.53 370.299 1604.07 371.089C1599.62 371.879 1601.48 390.834 1562.88 388.86C1524.29 386.885 1525.03 339.101 1520.57 331.202C1516.12 323.304 1455.63 286.972 1456 196.142Z" fill="#9036DD" stroke="#7C21CA" stroke-width="8" stroke-linecap="round"/>
<path d="M1456 196.142C1456.37 105.312 1515.38 77.6683 1520.57 66.2158C1525.77 54.7633 1521.69 11.7178 1562.88 9.34834C1604.07 6.97886 1599.25 39.3617 1604.07 36.9923C1608.9 34.6228 1613.64 39.8734 1618.18 41.3363C1618.18 41.3363 1623 9.34834 1648.94 9.34834C1674.87 9.34834 1683.36 41.3363 1683.36 41.3363C1683.36 41.3363 1693.43 5.11301 1720.39 9.34834C1747.35 13.5837 1735.01 50.0465 1735.01 50.0465C1735.01 50.0465 1772.69 31.7272 1779.83 66.2158C1786.98 100.704 1762.29 116.41 1762.29 116.41C1762.29 116.41 1800.3 105.695 1800.3 144.061C1800.3 182.428 1762.29 190.377 1762.29 190.377C1762.29 190.377 1800.3 190.377 1800.3 229.089C1800.3 267.801 1762.29 270.221 1762.29 270.221C1762.29 270.221 1791.85 291.65 1779.83 324.832C1767.81 358.014 1735.01 331.202 1735.01 331.202C1735.01 331.202 1745.08 362.4 1720.39 371.089C1695.71 379.777 1683.36 351.792 1683.36 351.792C1683.36 351.792 1675.57 388.86 1648.94 388.86C1622.3 388.86 1623 362.4 1623 362.4C1615.97 370.907 1608.53 370.299 1604.07 371.089C1599.62 371.879 1601.48 390.834 1562.88 388.86C1524.29 386.885 1525.03 339.101 1520.57 331.202C1516.12 323.304 1455.63 286.972 1456 196.142Z" fill="#9036DD" stroke="#7C21CA" stroke-width="8" stroke-linecap="round"/>
<path d="M1612.2 329.176C1610.05 330.452 1536.7 319.805 1538.31 268.276C1539.91 216.747 1610.01 209.252 1612.25 215.748C1614.49 222.244 1612.25 264.161 1612.25 264.161L1612.2 302.546C1612.2 302.546 1614.35 327.899 1612.2 329.176Z" fill="#F5EFF8" stroke="#7C21CA" stroke-width="8" stroke-linecap="round"/>
<path d="M1612.19 69.5717C1610.04 68.2953 1536.7 78.9424 1538.3 130.471C1539.91 182.001 1610 189.496 1612.24 183C1614.48 176.503 1612.19 161.793 1612.19 161.793L1612.24 123.863C1612.24 123.863 1614.35 70.848 1612.19 69.5717Z" fill="#F5EFF8" stroke="#7C21CA" stroke-width="8" stroke-linecap="round"/>
<circle cx="1667.57" cy="234.825" r="16.3445" transform="rotate(123.429 1667.57 234.825)" fill="#7C21CA"/>
<path d="M1667.31 296.352C1664.15 297.123 1655.49 235.958 1655.49 235.958L1679.02 240.23C1679.02 240.23 1670.47 295.581 1667.31 296.352Z" fill="#7C21CA" stroke="#7C21CA" stroke-width="8" stroke-linecap="round"/>
<circle cx="16.3445" cy="16.3445" r="16.3445" transform="matrix(-0.563979 -0.825789 -0.825789 0.563979 1684.55 167.708)" fill="#7C21CA"/>
<path d="M1660.61 101.913C1658.98 102.969 1650.43 158.773 1650.43 158.773L1672.16 157.57C1672.16 157.57 1662.23 100.856 1660.61 101.913Z" fill="#7C21CA" stroke="#7C21CA" stroke-width="8" stroke-linecap="round"/>
<path d="M1562.01 259.6C1561.01 233.6 1611.51 244.1 1611.51 244.1V286.1C1611.51 286.1 1563.01 285.6 1562.01 259.6Z" fill="#7C21CA" stroke="#7C21CA" stroke-width="8"/>
<path d="M1562.01 114.6C1561.01 88.6001 1611.51 99.1001 1611.51 99.1001V141.1C1611.51 141.1 1563.01 140.6 1562.01 114.6Z" fill="#7C21CA" stroke="#7C21CA" stroke-width="8"/>
<path d="M1819 191.142C1819.37 100.312 1878.38 72.6683 1883.57 61.2158C1888.77 49.7633 1884.69 6.71781 1925.88 4.34834C1967.07 1.97886 1962.25 34.3617 1967.07 31.9923C1971.9 29.6228 1976.64 34.8734 1981.18 36.3363C1981.18 36.3363 1986 4.34834 2011.94 4.34834C2037.87 4.34834 2046.36 36.3363 2046.36 36.3363C2046.36 36.3363 2056.43 0.113014 2083.39 4.34834C2110.35 8.58366 2098.01 45.0465 2098.01 45.0465C2098.01 45.0465 2135.69 26.7272 2142.83 61.2158C2149.98 95.7044 2125.29 111.41 2125.29 111.41C2125.29 111.41 2163.3 100.695 2163.3 139.061C2163.3 177.428 2125.29 185.377 2125.29 185.377C2125.29 185.377 2163.3 185.377 2163.3 224.089C2163.3 262.801 2125.29 265.221 2125.29 265.221C2125.29 265.221 2154.85 286.65 2142.83 319.832C2130.81 353.014 2098.01 326.202 2098.01 326.202C2098.01 326.202 2108.08 357.4 2083.39 366.089C2058.71 374.777 2046.36 346.792 2046.36 346.792C2046.36 346.792 2038.57 383.86 2011.94 383.86C1985.3 383.86 1986 357.4 1986 357.4C1978.97 365.907 1971.53 365.299 1967.07 366.089C1962.62 366.879 1964.48 385.834 1925.88 383.86C1887.29 381.885 1888.03 334.101 1883.57 326.202C1879.12 318.304 1818.63 281.972 1819 191.142Z" fill="#9036DD" stroke="#7C21CA" stroke-width="8" stroke-linecap="round"/>
<path d="M1819 191.142C1819.37 100.312 1878.38 72.6683 1883.57 61.2158C1888.77 49.7633 1884.69 6.71781 1925.88 4.34834C1967.07 1.97886 1962.25 34.3617 1967.07 31.9923C1971.9 29.6228 1976.64 34.8734 1981.18 36.3363C1981.18 36.3363 1986 4.34834 2011.94 4.34834C2037.87 4.34834 2046.36 36.3363 2046.36 36.3363C2046.36 36.3363 2056.43 0.113014 2083.39 4.34834C2110.35 8.58366 2098.01 45.0465 2098.01 45.0465C2098.01 45.0465 2135.69 26.7272 2142.83 61.2158C2149.98 95.7044 2125.29 111.41 2125.29 111.41C2125.29 111.41 2163.3 100.695 2163.3 139.061C2163.3 177.428 2125.29 185.377 2125.29 185.377C2125.29 185.377 2163.3 185.377 2163.3 224.089C2163.3 262.801 2125.29 265.221 2125.29 265.221C2125.29 265.221 2154.85 286.65 2142.83 319.832C2130.81 353.014 2098.01 326.202 2098.01 326.202C2098.01 326.202 2108.08 357.4 2083.39 366.089C2058.71 374.777 2046.36 346.792 2046.36 346.792C2046.36 346.792 2038.57 383.86 2011.94 383.86C1985.3 383.86 1986 357.4 1986 357.4C1978.97 365.907 1971.53 365.299 1967.07 366.089C1962.62 366.879 1964.48 385.834 1925.88 383.86C1887.29 381.885 1888.03 334.101 1883.57 326.202C1879.12 318.304 1818.63 281.972 1819 191.142Z" fill="#9036DD" stroke="#7C21CA" stroke-width="8" stroke-linecap="round"/>
<path d="M1975.2 324.176C1973.05 325.452 1899.7 314.805 1901.31 263.276C1902.91 211.747 1973.01 204.252 1975.25 210.748C1977.49 217.244 1975.25 259.161 1975.25 259.161L1975.2 297.546C1975.2 297.546 1977.35 322.899 1975.2 324.176Z" fill="#F5EFF8" stroke="#7C21CA" stroke-width="8" stroke-linecap="round"/>
<path d="M1975.19 64.5717C1973.04 63.2953 1899.7 73.9424 1901.3 125.471C1902.91 177.001 1973 184.496 1975.24 178C1977.48 171.503 1975.19 156.793 1975.19 156.793L1975.24 118.863C1975.24 118.863 1977.35 65.848 1975.19 64.5717Z" fill="#F5EFF8" stroke="#7C21CA" stroke-width="8" stroke-linecap="round"/>
<circle cx="2030.57" cy="229.825" r="16.3445" transform="rotate(123.429 2030.57 229.825)" fill="#7C21CA"/>
<path d="M2030.31 291.352C2027.15 292.123 2018.49 230.958 2018.49 230.958L2042.02 235.23C2042.02 235.23 2033.47 290.581 2030.31 291.352Z" fill="#7C21CA" stroke="#7C21CA" stroke-width="8" stroke-linecap="round"/>
<circle cx="16.3445" cy="16.3445" r="16.3445" transform="matrix(-0.563979 -0.825789 -0.825789 0.563979 2047.55 162.708)" fill="#7C21CA"/>
<path d="M2023.61 96.9126C2021.98 97.9693 2013.43 153.773 2013.43 153.773L2035.16 152.57C2035.16 152.57 2025.23 95.8559 2023.61 96.9126Z" fill="#7C21CA" stroke="#7C21CA" stroke-width="8" stroke-linecap="round"/>
<path d="M1925.01 243.6C1924.01 217.6 1974.51 228.1 1974.51 228.1V270.1C1974.51 270.1 1926.01 269.6 1925.01 243.6Z" fill="#7C21CA" stroke="#7C21CA" stroke-width="8"/>
<path d="M1925.01 101.6C1924.01 75.6001 1974.51 86.1001 1974.51 86.1001V128.1C1974.51 128.1 1926.01 127.6 1925.01 101.6Z" fill="#7C21CA" stroke="#7C21CA" stroke-width="8"/>
</svg>
