<svg width="353" height="388" viewBox="0 0 353 388" fill="none" xmlns="http://www.w3.org/2000/svg">
<path d="M4.00165 191.142C4.37292 100.312 63.379 72.6683 68.5743 61.2158C73.7697 49.7633 69.6877 6.71781 110.881 4.34834C152.074 1.97886 147.249 34.3617 152.073 31.9923C156.898 29.6228 161.64 34.8734 166.176 36.3363C166.176 36.3363 171 4.34834 196.935 4.34834C222.87 4.34834 231.365 36.3363 231.365 36.3363C231.365 36.3363 241.434 0.113014 268.393 4.34834C295.352 8.58366 283.009 45.0465 283.009 45.0465C283.009 45.0465 320.687 26.7272 327.832 61.2158C334.978 95.7044 310.293 111.41 310.293 111.41C310.293 111.41 348.295 100.695 348.295 139.061C348.295 177.428 310.293 185.377 310.293 185.377C310.293 185.377 348.295 185.377 348.295 224.089C348.295 262.801 310.293 265.221 310.293 265.221C310.293 265.221 339.85 286.65 327.832 319.832C315.814 353.014 283.009 326.202 283.009 326.202C283.009 326.202 293.078 357.4 268.393 366.089C243.707 374.777 231.365 346.792 231.365 346.792C231.365 346.792 223.569 383.86 196.935 383.86C170.301 383.86 171 357.4 171 357.4C163.969 365.907 156.527 365.299 152.073 366.089C147.62 366.879 149.476 385.834 110.881 383.86C72.2854 381.885 73.0274 334.101 68.5743 326.202C64.1212 318.304 3.63037 281.972 4.00165 191.142Z" fill="#9036DD" stroke="#7C21CA" stroke-width="8" stroke-linecap="round"/>
<path d="M4.00165 191.142C4.37292 100.312 63.379 72.6683 68.5743 61.2158C73.7697 49.7633 69.6877 6.71781 110.881 4.34834C152.074 1.97886 147.249 34.3617 152.073 31.9923C156.898 29.6228 161.64 34.8734 166.176 36.3363C166.176 36.3363 171 4.34834 196.935 4.34834C222.87 4.34834 231.365 36.3363 231.365 36.3363C231.365 36.3363 241.434 0.113014 268.393 4.34834C295.352 8.58366 283.009 45.0465 283.009 45.0465C283.009 45.0465 320.687 26.7272 327.832 61.2158C334.978 95.7044 310.293 111.41 310.293 111.41C310.293 111.41 348.295 100.695 348.295 139.061C348.295 177.428 310.293 185.377 310.293 185.377C310.293 185.377 348.295 185.377 348.295 224.089C348.295 262.801 310.293 265.221 310.293 265.221C310.293 265.221 339.85 286.65 327.832 319.832C315.814 353.014 283.009 326.202 283.009 326.202C283.009 326.202 293.078 357.4 268.393 366.089C243.707 374.777 231.365 346.792 231.365 346.792C231.365 346.792 223.569 383.86 196.935 383.86C170.301 383.86 171 357.4 171 357.4C163.969 365.907 156.527 365.299 152.073 366.089C147.62 366.879 149.476 385.834 110.881 383.86C72.2854 381.885 73.0274 334.101 68.5743 326.202C64.1212 318.304 3.63037 281.972 4.00165 191.142Z" fill="#9036DD" stroke="#7C21CA" stroke-width="8" stroke-linecap="round"/>
<path d="M160.198 324.176C158.046 325.452 84.7023 314.805 86.3068 263.276C87.9114 211.747 158.006 204.252 160.247 210.748C162.488 217.244 160.247 259.161 160.247 259.161L160.198 297.546C160.198 297.546 162.35 322.899 160.198 324.176Z" fill="#F5EFF8" stroke="#7C21CA" stroke-width="8" stroke-linecap="round"/>
<path d="M160.194 64.5717C158.041 63.2953 84.6977 73.9424 86.3022 125.471C87.9067 177.001 158.001 184.496 160.242 178C162.483 171.503 160.194 156.793 160.194 156.793L160.243 118.863C160.243 118.863 162.346 65.848 160.194 64.5717Z" fill="#F5EFF8" stroke="#7C21CA" stroke-width="8" stroke-linecap="round"/>
<circle cx="215.567" cy="229.825" r="16.3445" transform="rotate(123.429 215.567 229.825)" fill="#7C21CA"/>
<path d="M215.308 291.352C212.147 292.123 203.486 230.958 203.486 230.958L227.021 235.23C227.021 235.23 218.468 290.581 215.308 291.352Z" fill="#7C21CA" stroke="#7C21CA" stroke-width="8" stroke-linecap="round"/>
<circle cx="16.3445" cy="16.3445" r="16.3445" transform="matrix(-0.563979 -0.825789 -0.825789 0.563979 232.549 162.708)" fill="#7C21CA"/>
<path d="M208.609 96.9126C206.985 97.9693 198.432 153.773 198.432 153.773L220.158 152.57C220.158 152.57 210.233 95.8559 208.609 96.9126Z" fill="#7C21CA" stroke="#7C21CA" stroke-width="8" stroke-linecap="round"/>
<path d="M110.015 254.6C109.015 228.6 159.515 239.1 159.515 239.1V281.1C159.515 281.1 111.015 280.6 110.015 254.6Z" fill="#7C21CA" stroke="#7C21CA" stroke-width="8"/>
<path d="M110.015 109.6C109.015 83.6001 159.515 94.1001 159.515 94.1001V136.1C159.515 136.1 111.015 135.6 110.015 109.6Z" fill="#7C21CA" stroke="#7C21CA" stroke-width="8"/>
</svg>
