<svg width="125" height="141" viewBox="0 0 125 141" fill="none" xmlns="http://www.w3.org/2000/svg">
<path d="M53.4299 8.834L5.46867 49.0127L15.8451 107.157L75.2157 130.911L118.776 88.7879L108.4 30.6436L53.4299 8.834Z" fill="#F2B6FF"/>
<path d="M108.4 30.6436L109.137 28.7846L110.173 29.1954L110.369 30.2922L108.4 30.6436ZM5.46867 49.0127L3.49978 49.3641L3.29624 48.2236L4.18432 47.4796L5.46867 49.0127ZM53.4299 8.834L52.1455 7.30088C52.7085 6.82923 53.4848 6.70411 54.1674 6.97497L53.4299 8.834ZM118.776 88.7879L120.745 88.4365L120.932 89.4851L120.166 90.2256L118.776 88.7879ZM75.2157 130.911L76.606 132.349C76.0396 132.896 75.2044 133.06 74.4728 132.768L75.2157 130.911ZM15.8451 107.157L15.1022 109.014L14.0713 108.601L13.8762 107.508L15.8451 107.157ZM108.4 30.6436L109.735 32.1327L65.7023 71.6103L64.3672 70.1212L63.0321 68.632L107.065 29.1545L108.4 30.6436ZM64.3672 70.1212L63.6924 72.0039L4.79392 50.8954L5.46867 49.0127L6.14342 47.13L65.0419 68.2384L64.3672 70.1212ZM5.46867 49.0127L4.18432 47.4796L52.1455 7.30088L53.4299 8.834L54.7142 10.3671L6.75302 50.5458L5.46867 49.0127ZM53.4299 8.834L54.1674 6.97497L109.137 28.7846L108.4 30.6436L107.662 32.5026L52.6923 10.693L53.4299 8.834ZM118.776 88.7879L120.166 90.2256L76.606 132.349L75.2157 130.911L73.8254 129.473L117.386 87.3501L118.776 88.7879ZM75.2157 130.911L73.2468 131.262L62.3983 70.4726L64.3672 70.1212L66.3361 69.7698L77.1846 130.559L75.2157 130.911ZM108.4 30.6436L110.369 30.2922L120.745 88.4365L118.776 88.7879L116.807 89.1392L106.431 30.995L108.4 30.6436ZM75.2157 130.911L74.4728 132.768L15.1022 109.014L15.8451 107.157L16.588 105.3L75.9587 129.054L75.2157 130.911ZM15.8451 107.157L13.8762 107.508L3.49978 49.3641L5.46867 49.0127L7.43756 48.6613L17.814 106.806L15.8451 107.157Z" fill="#E87FFF"/>
<ellipse cx="8.77962" cy="7.18332" rx="8.77962" ry="7.18332" transform="matrix(-0.984447 0.175685 0.175685 0.984447 64.7066 31.1437)" fill="#E87FFF"/>
<circle cx="7.18332" cy="7.18332" r="7.18332" transform="matrix(-0.984447 0.175685 0.175685 0.984447 104.888 56.4032)" fill="#E87FFF"/>
<circle cx="7.18332" cy="7.18332" r="7.18332" transform="matrix(-0.984447 0.175685 0.175685 0.984447 95.2315 84.0713)" fill="#E87FFF"/>
<circle cx="7.18332" cy="7.18332" r="7.18332" transform="matrix(-0.984447 0.175685 0.175685 0.984447 58.6376 97.0885)" fill="#E87FFF"/>
<circle cx="7.18332" cy="7.18332" r="7.18332" transform="matrix(-0.984447 0.175685 0.175685 0.984447 44.2716 80.1923)" fill="#E87FFF"/>
<circle cx="7.18332" cy="7.18332" r="7.18332" transform="matrix(-0.984447 0.175685 0.175685 0.984447 30.1879 64.8702)" fill="#E87FFF"/>
</svg>
