<svg width="162" height="242" viewBox="0 0 162 242" fill="none" xmlns="http://www.w3.org/2000/svg">
<path fill-rule="evenodd" clip-rule="evenodd" d="M18.4694 90.6197C18.4694 90.6197 2.48846 72.8051 3.01261 59.4441C3.53675 46.0832 12.7059 27.2206 67.4597 11.2398C122.213 -4.74094 149.983 5.47626 154.437 17.0034C157.326 24.4797 157.609 30.721 157.926 37.7014C158.098 41.4836 158.279 45.4827 158.891 50.0129L124.833 41.6295C124.833 41.6295 90.7759 42.1535 74.5331 46.0832C58.2904 50.0129 40.9997 66.7796 40.9997 66.7796L18.4694 90.6197Z" fill="#F2B6FF"/>
<path d="M18.4694 90.6197C18.4694 90.6197 40.9997 102.147 58.2904 101.361C75.5811 100.575 116.974 90.6197 128.763 84.0702C140.552 77.5207 153.828 62.5129 158.891 50.0129L124.833 41.6295C124.833 41.6295 98.3733 61.016 82.9165 66.7796C67.4597 72.5431 40.9997 66.7796 40.9997 66.7796L18.4694 90.6197Z" fill="#F2B6FF"/>
<path d="M18.4694 90.6197C18.4694 90.6197 40.9997 102.147 58.2904 101.361C75.5811 100.575 116.974 90.6197 128.763 84.0702C140.552 77.5207 153.828 62.5129 158.891 50.0129M18.4694 90.6197C18.4694 90.6197 2.48846 72.8051 3.01261 59.4441C3.53675 46.0832 12.7059 27.2206 67.4597 11.2398C122.213 -4.74094 149.983 5.47626 154.437 17.0034C157.326 24.4797 157.609 30.721 157.926 37.7014C158.098 41.4836 158.279 45.4827 158.891 50.0129M18.4694 90.6197L40.9997 66.7796M158.891 50.0129C145.59 46.739 124.833 41.6295 124.833 41.6295M158.891 50.0129L124.833 41.6295M40.9997 66.7796C40.9997 66.7796 67.4597 72.5431 82.9165 66.7796C98.3733 61.016 124.833 41.6295 124.833 41.6295M40.9997 66.7796C40.9997 66.7796 58.2904 50.0129 74.5331 46.0832C90.7759 42.1535 124.833 41.6295 124.833 41.6295" stroke="#E87FFF" stroke-width="6" stroke-linecap="round"/>
<path fill-rule="evenodd" clip-rule="evenodd" d="M115.403 229.208C119.856 248.594 159.154 236.543 152.866 216.109C151.41 211.378 149.351 204.935 147.046 197.722C139.393 173.775 129.026 141.338 129.026 134.895C129.026 132.758 129.213 128.478 129.444 123.19C130.12 107.728 131.173 83.6499 129.026 79.3552C128.784 78.871 128.542 78.372 128.294 77.8614C125.593 72.2951 122.228 65.3581 110.949 61.2786C101.646 57.9138 85.4651 64.568 74.0416 69.2657C70.3449 70.7859 67.1465 72.1011 64.8407 72.8057C55.4094 75.6875 55.6716 96.3839 58.2912 103.195C59.5033 106.347 64.417 112.527 69.8405 119.349C76.1388 127.27 83.1245 136.056 85.7991 141.968C86.3074 143.092 86.974 144.693 87.7662 146.684C89.8166 151.837 92.7078 159.597 95.8691 168.428C103.449 189.6 112.581 216.924 115.403 229.208Z" fill="#F2B6FF"/>
<path d="M85.7991 173.144C92.0867 173.144 95.8691 168.428 95.8691 168.428C92.7078 159.597 89.8166 151.837 87.7662 146.684C87.7662 146.684 78.2016 149.042 76.6297 153.234C75.0578 157.425 79.5115 173.144 85.7991 173.144Z" fill="#F2B6FF"/>
<path d="M95.8691 168.428C103.449 189.6 112.581 216.924 115.403 229.208C119.856 248.594 159.154 236.543 152.866 216.109C151.41 211.378 149.351 204.935 147.046 197.722C139.393 173.775 129.026 141.338 129.026 134.895C129.026 132.758 129.213 128.478 129.444 123.19C130.12 107.728 131.173 83.6499 129.026 79.3552C128.784 78.871 128.542 78.372 128.294 77.8614C125.593 72.2951 122.228 65.3581 110.949 61.2786C101.646 57.9138 85.4651 64.568 74.0416 69.2657C70.3449 70.7859 67.1465 72.1011 64.8407 72.8057C55.4094 75.6875 55.6716 96.3839 58.2912 103.195C59.5033 106.347 64.417 112.527 69.8405 119.349C76.1388 127.27 83.1245 136.056 85.7991 141.968C86.3074 143.092 86.974 144.693 87.7662 146.684M95.8691 168.428C95.8691 168.428 92.0867 173.144 85.7991 173.144C79.5115 173.144 75.0578 157.425 76.6297 153.234C78.2016 149.042 87.7662 146.684 87.7662 146.684M95.8691 168.428C92.7078 159.597 89.8166 151.837 87.7662 146.684" stroke="#E87FFF" stroke-width="6" stroke-linecap="round"/>
<circle cx="81.3226" cy="92.1704" r="11.0032" transform="rotate(-10.4433 81.3226 92.1704)" fill="#E87FFF"/>
<circle cx="106.018" cy="79.1407" r="6.1142" transform="rotate(-10.4433 106.018 79.1407)" fill="#E87FFF"/>
<circle cx="110.211" cy="98.003" r="6.1142" transform="rotate(-10.4433 110.211 98.003)" fill="#E87FFF"/>
</svg>
