<svg width="787" height="590" viewBox="0 0 787 590" fill="none" xmlns="http://www.w3.org/2000/svg">
<path d="M786 287H670V446H786V287Z" fill="#F5EFF8"/>
<path d="M786 136H670V280H786V136Z" fill="#9F48EA"/>
<path d="M786 -15H670V129H786V-15Z" fill="#F5EFF8"/>
<path d="M470.216 492.206H332.935V588.507H470.216V492.206Z" fill="#F5EFF8"/>
<path d="M613.643 492.206H476.362V588.507H613.643V492.206Z" fill="#F5EFF8"/>
<path d="M346.596 265.795L310.397 354.242C264.376 332.899 240.941 326.115 210.34 338.533L180.288 247.012C240.346 230.168 276.7 233.716 346.596 265.795Z" fill="#F5EFF8"/>
<path d="M204.876 339.899L174.483 249.062C105.826 283.716 75.1603 311.464 65.8874 409.223H161.164C165.463 371.072 176.898 357.511 204.876 339.899Z" fill="#F5EFF8"/>
<path d="M67.2533 414.687H161.164C166.999 444.754 168.397 462.003 206.242 485.376L163.555 570.75C81.7672 520.239 72.0046 483.395 67.2533 414.687Z" fill="#A646F8"/>
<path d="M629.01 229.255H535.099C529.419 256.018 524.518 270.566 496.852 291.407L563.785 359.706C626.724 297.262 621.996 274.533 629.01 229.255Z" fill="#F5EFF8"/>
<path d="M535.1 222.767C531.797 180.875 519.185 169.619 494.462 152.077L561.736 83.4369C612.15 128.158 626.311 158.954 629.352 222.767H535.1Z" fill="#F5EFF8"/>
<rect width="110" height="96" transform="translate(-19 47)" fill="#F5EFF8"/>
<rect width="141.379" height="96.3014" transform="translate(95.9388 46.8969)" fill="#9F48EA"/>
<rect width="141.379" height="96.3014" transform="translate(242.099 46.8969)" fill="#F5EFF8"/>
<path d="M488.315 149.004C469.988 142.299 446.161 141.168 387.916 142.174L387.574 47.5805C475.459 41.4412 512.306 48.6009 557.98 79.3394L488.315 149.004Z" fill="#F5EFF8"/>
<path d="M559.345 363.804L491.388 294.48C461.978 306.913 434.924 303.691 355.473 267.844L316.884 355.608C423.868 406.11 477.967 411.73 559.345 363.804Z" fill="#A646F8"/>
<path d="M169.36 573.481L211.705 487.766C228.697 494.489 264.048 493.794 327.13 492.547V587.824C225.413 589.659 188.411 587.02 169.36 573.481Z" fill="#F5EFF8"/>
<path d="M618.083 589.532V492.547H652.915C660.77 492.547 670.501 481.961 670.501 474.789V450.885H786.501C791.001 548.5 736.501 589.532 618.083 589.532Z" fill="#9F48EA"/>
<path d="M117.35 82.35C117.3 82.9 116.9 83 116.1 82.7C115.15 82.3 114.55 81.65 114.35 80.7L114.3 80.4C114.3 77.75 115.75 73.05 118.65 66.25C118.4 66.4 117.7 66.95 116.65 67.8C114.5 69.55 113.1 70.35 112.25 69.95C110.4 69.35 109.65 68.65 110.1 67.9C110.35 67.55 110.6 67.25 110.85 67C111.4 66.55 112.85 65.65 113 65.6L115.35 63.8C116.3 63 117.05 62.4 117.55 62.05C118.1 61.65 118.65 61.3 119.3 60.95C120.65 60.2 121.35 60.45 121.9 61.45C122.55 62.3 123.6 61.95 122.95 63.8C122.45 65.25 121.8 67.05 120.95 69.3L119.15 74.3C118.4 76.45 117.55 79.75 117.35 82.35Z" fill="white"/>
<path d="M359.85 317.3C359.4 317.3 358.9 317.2 358.35 316.95C357.5 316.7 357.1 316.25 357.1 315.6C357.1 314.95 357.65 314 358.7 312.75C359.8 311.5 361 310.3 362.35 309.05C363.7 307.8 365.05 306.3 366.4 304.6C367.75 302.9 368.6 301.35 369 299.95C369.15 299.35 369.25 298.95 369.25 298.7C369.25 298.25 369.05 298 368.7 298C368.5 298 366 298.9 364.5 300.4C363.8 301.1 364.25 303.2 363.25 303.2C361.45 302.95 360.55 302.25 360.55 301.1C360.55 299.85 361.5 298.45 363.4 297C365.35 295.5 367.05 294.75 368.6 294.75C369.55 294.75 370.15 295.1 370.5 295.8C370.8 296.45 371.1 296.85 371.4 297C371.7 297.15 371.9 297.5 372.05 298.1C372.1 298.5 372.15 298.8 372.15 299.05C372.15 302.7 368.9 306.95 363.35 312.7C363.75 312.7 364.7 312.65 366.2 312.55C369.25 312.3 371.7 312.35 373.1 313.2C373.7 313.6 372.25 315.5 370.55 315.7L368.35 315.9L365.65 316.15C364.25 316.3 362.2 316.65 360.85 317.1C360.55 317.25 360.2 317.3 359.85 317.3Z" fill="white"/>
<path d="M144.85 451.35C143.8 451.35 142.7 451.1 141.5 450.65C140.35 450.2 139.65 449.7 139.5 449.2C139.2 448.6 139.05 448.1 139.05 447.75C139.05 447.35 139.25 447.15 139.6 447.15C139.9 447.15 140.3 447.35 140.85 447.7C141.65 448.15 142.6 448.4 143.65 448.4C145.3 448.4 146.9 447.9 148.4 446.85C149.9 445.8 150.65 444.7 150.65 443.65C150.65 442.95 150.2 442.4 149.35 441.95C148.8 441.7 148.25 441.55 147.7 441.55C147.15 441.55 146.4 441.75 145.45 442.15C144.55 442.5 143.9 442.7 143.5 442.7C143.05 442.7 142.65 442.55 142.3 442.3C141.35 441.85 140.9 441.3 140.9 440.6C140.9 439.75 141.25 439.5 143 438.95C144.45 438.6 146.05 437.5 147.8 435.75C149.55 434 150.3 432.8 150.15 432.15C150.15 431.9 149.95 431.75 149.5 431.75C148.75 431.75 147.8 432.1 146.55 432.75C145.3 433.4 144.4 434.1 143.85 434.85C143.6 435.15 143.3 435.3 142.95 435.3C142.2 435.3 141.35 434.6 141.15 433.75C140.9 432.7 141.65 431.6 143.4 430.4C145.15 429.15 146.95 428.55 148.75 428.55C151.2 428.55 152.9 430.05 152.9 433.3C152.9 435.25 152 437.1 150.2 438.9C150.95 439.35 151.65 439.85 152.25 440.45C153.15 441.35 153.6 442.85 153.6 444.95C153.6 447.05 152.7 448.65 150.95 449.75C149.2 450.8 147.15 451.35 144.85 451.35Z" fill="white"/>
<path d="M758.9 493.55C758.45 493.55 758.1 493.35 757.9 492.9C757.5 492.15 757.3 491.1 757.3 489.8C757.3 489.4 757.3 488.8 757.35 487.95C757.4 487.1 757.45 486.6 757.45 486.5C757.2 486.5 755.85 486.75 753.5 487.25C751.15 487.75 749.7 488.05 749.1 488.1C747.7 488.3 746.7 487.7 746.7 486.65C746.7 486.2 746.85 485.75 747.1 485.2C749.75 480.35 752.25 475.6 754.55 470.9C754.8 470.35 755.2 470.05 755.75 470.05C756.2 470.05 756.65 470.4 757.05 471.1C757.5 471.8 757.7 472.35 757.7 472.7C757.7 473 757.4 473.75 756.8 474.9C756.2 476.05 755.3 477.7 754.1 479.75L751.7 484.05C753.55 483.9 755.65 483.65 758 483.35C760.05 476.55 761.2 472.95 761.35 472.6C761.6 472 761.9 471.75 762.15 471.9C762.6 472.1 763.15 472.6 763.7 473.35C764.3 474.1 764.5 474.75 764.35 475.3L763.25 478.6C762.6 480.65 762.15 482.15 761.95 483.05C762.7 483.05 763.85 482.95 764 482.95C764.4 482.95 764.6 483.1 764.65 483.35C764.7 483.6 764.75 483.95 764.75 484.4C764.75 485.55 764.6 486.1 764.25 486.1C764.1 486.1 763.8 486.05 763.65 486.05C763 486.05 762.25 486.15 761.4 486.35C761.3 486.5 761.05 487.5 760.7 489.25C760.35 491.2 760.1 492.35 760.05 492.6C759.9 493.25 759.5 493.55 758.9 493.55Z" fill="white"/>
<path d="M760.55 176.55C760.1 176.55 759.55 176.5 759.2 176.5L758.95 176.45C757.95 176.2 757.05 174.95 757.05 174.1C757.05 173.7 757.25 173.5 757.65 173.5C757.8 173.5 757.95 173.5 758.05 173.55C758.4 173.7 758.85 173.75 759.3 173.75C760.75 173.75 762.05 173.1 763.2 171.8C764.4 170.5 765 169.25 765 168.1C765 167.05 764.45 166.55 763.4 166.55C762.55 166.55 761.5 167 760.35 167.95C759.2 168.9 758.5 169.4 758.15 169.5C757.9 169.55 757.65 169.6 757.5 169.6C756.35 169.6 755.15 169 755.1 168.15C755.05 167.45 755.2 166.4 755.6 165.05C756.05 163.7 756.7 161.85 757.6 159.5L759.2 155.45C759.25 155.25 759.2 153.85 759.75 153.4C760 153.2 760.2 153.1 760.4 153.1C760.55 153.1 761.85 153.5 763.1 153.5C763.55 153.5 764.2 153.45 764.95 153.35C767.75 152.9 767.2 152.8 771.95 152.3C772.4 152.25 772.75 152.95 772.95 152.95C773.35 153.05 773.55 153.25 773.55 153.5C773.55 153.9 773.1 154.35 772.2 154.9C770.4 155.95 766.5 157 762.35 157C762.15 157.55 761.65 158.7 760.8 160.5L758.95 164.8C760.3 163.9 761.75 163.45 763.25 163.45C766.65 163.45 768.15 165.45 768.15 168.25C768.15 170.1 767.3 171.95 765.6 173.8C763.95 175.65 762.25 176.55 760.55 176.55Z" fill="white"/>
</svg>
