<svg width="247" height="219" viewBox="0 0 247 219" fill="none" xmlns="http://www.w3.org/2000/svg">
<path fill-rule="evenodd" clip-rule="evenodd" d="M135.359 137.009C140.478 138.978 147.172 146.262 149.732 150.987C151.693 154.607 159.2 178.102 163.667 192.082C165.031 196.35 166.111 199.732 166.664 201.39C169.026 208.477 181.43 214.581 190.29 214.974C199.15 215.368 212.341 209.462 216.475 201.39C220.61 193.317 246.992 108.854 242.464 87.591C237.936 66.3276 232.264 41.5946 218.247 37.9764C218.247 37.9764 215.097 27.5416 210.569 25.5728C206.04 23.604 184.974 15.5318 181.627 15.9255C178.28 16.3193 172.767 21.4382 172.767 21.4382C171.205 19.4126 170.161 19.1931 168.525 18.8493C168.37 18.8166 168.209 18.7828 168.042 18.7462C168.042 18.7462 146.975 53.924 145.007 58.8461C143.241 63.2591 135.62 64.8233 131.509 65.6673C131.035 65.7646 130.607 65.8524 130.24 65.9339C126.696 66.7214 92.2419 60.2242 88.698 58.8461C85.6304 57.6531 85.2977 55.8941 84.5563 51.9742L84.5562 51.9737C84.4411 51.3653 84.3162 50.7048 84.1697 49.9863C83.1045 44.7631 92.1253 13.5153 94.0828 12.7754H94.2109C96.0939 12.7754 97.8659 11.5524 99.5267 10.4061C100.991 9.39518 102.37 8.44396 103.661 8.44396C103.661 8.44396 102.873 4.11253 98.5422 4.11253C97.3371 4.11253 95.3245 4.00585 92.9789 3.88154C86.8937 3.55902 78.5681 3.11777 76.2944 4.11253C73.1442 5.49071 70.5849 12.7754 70.5849 12.7754C66.2535 12.7754 64.8751 12.7754 61.1345 14.7442C60.0612 15.3091 59.2959 15.7767 58.5223 16.2494C56.5996 17.4243 54.6257 18.6303 47.7464 21.4382C38.0992 25.3759 0.888186 111.217 3.64455 127.361C4.3272 131.36 4.67172 134.694 4.96522 137.534C5.8568 146.163 6.27762 150.236 14.2763 154.531C24.9079 160.241 38.296 158.075 43.0212 154.531C47.6393 151.068 65.798 128.422 66.6185 127.397C66.6447 127.365 66.6585 127.351 66.69 127.323C67.2522 126.829 73.2592 121.699 79.4446 122.636C85.9418 123.621 130.24 135.04 135.359 137.009Z" fill="#A47EF7"/>
<path d="M164.301 17.5006C159.576 15.3349 117.246 8.44396 113.112 8.44396H103.661C102.37 8.44396 100.991 9.39518 99.5267 10.4061C97.8659 11.5524 96.0939 12.7754 94.2109 12.7754H94.0828C92.1253 13.5153 83.1045 44.7631 84.1697 49.9863C84.3162 50.7048 84.4411 51.3653 84.5562 51.9737L84.5563 51.9742C85.2977 55.8941 85.6304 57.6531 88.698 58.8461C92.2419 60.2242 126.696 66.7214 130.24 65.9339C130.607 65.8524 131.035 65.7646 131.509 65.6673C135.62 64.8233 143.241 63.2591 145.007 58.8461C146.975 53.924 168.042 18.7462 168.042 18.7462C167.07 18.5335 165.886 18.2269 164.301 17.5006Z" fill="#A47EF7"/>
<path d="M218.247 37.9764C232.264 41.5946 237.936 66.3276 242.464 87.591C246.992 108.854 220.61 193.317 216.475 201.39C212.341 209.462 199.15 215.368 190.29 214.974C181.43 214.581 169.026 208.477 166.664 201.39C166.111 199.732 165.031 196.35 163.667 192.082C159.2 178.102 151.693 154.607 149.732 150.987C147.172 146.262 140.478 138.978 135.359 137.009C130.24 135.04 85.9418 123.621 79.4446 122.636C73.2592 121.699 67.2522 126.829 66.69 127.323M218.247 37.9764C204.231 34.3583 175.341 24.7756 172.767 21.4382M218.247 37.9764C218.247 37.9764 215.097 27.5416 210.569 25.5728C206.04 23.604 184.974 15.5318 181.627 15.9255C178.28 16.3193 172.767 21.4382 172.767 21.4382M172.767 21.4382C171.205 19.4126 170.161 19.1931 168.525 18.8493C168.37 18.8166 168.209 18.7828 168.042 18.7462M113.112 8.44396C117.246 8.44396 159.576 15.3349 164.301 17.5006C165.886 18.2269 167.07 18.5335 168.042 18.7462M113.112 8.44396C108.977 8.44396 106.418 8.44396 103.661 8.44396M113.112 8.44396H103.661M103.661 8.44396C103.661 8.44396 102.873 4.11253 98.5422 4.11253C97.3371 4.11253 95.3245 4.00585 92.9789 3.88154C86.8937 3.55902 78.5681 3.11777 76.2944 4.11253C73.1442 5.49071 70.5849 12.7754 70.5849 12.7754M103.661 8.44396C102.37 8.44396 100.991 9.39518 99.5267 10.4061C97.8659 11.5524 96.0939 12.7754 94.2109 12.7754M94.2109 12.7754C90.6671 12.7754 74.9162 12.7754 70.5849 12.7754M94.2109 12.7754H94.0828M94.2109 12.7754C94.1724 12.7574 94.1296 12.7577 94.0828 12.7754M70.5849 12.7754C66.2535 12.7754 64.8751 12.7754 61.1345 14.7442C60.0612 15.3091 59.2959 15.7767 58.5223 16.2494C56.5996 17.4243 54.6257 18.6303 47.7464 21.4382C38.0992 25.3759 0.888186 111.217 3.64455 127.361C4.3272 131.36 4.67172 134.694 4.96522 137.534C5.8568 146.163 6.27762 150.236 14.2763 154.531C24.9079 160.241 38.296 158.075 43.0212 154.531C47.6393 151.068 65.798 128.422 66.6185 127.397M168.042 18.7462C168.042 18.7462 146.975 53.924 145.007 58.8461C143.241 63.2591 135.62 64.8233 131.509 65.6673C131.035 65.7646 130.607 65.8524 130.24 65.9339C126.696 66.7214 92.2419 60.2242 88.698 58.8461C85.6304 57.6531 85.2977 55.8941 84.5563 51.9742L84.5562 51.9737C84.4411 51.3653 84.3162 50.7048 84.1697 49.9863C83.1045 44.7631 92.1253 13.5153 94.0828 12.7754M66.69 127.323C66.6585 127.351 66.6447 127.365 66.6185 127.397M66.69 127.323C66.687 127.326 66.6842 127.329 66.6815 127.331C66.6586 127.351 66.6376 127.373 66.6185 127.397" stroke="#7A53D1" stroke-width="7" stroke-linecap="round"/>
<path d="M179.658 44.4755C178.845 48.9466 177.216 54.0518 176.403 56.4625C176.124 57.2878 175.31 57.7917 174.447 57.678C172.17 57.3782 167.336 56.6966 160.561 55.5009C150.913 53.7985 148.748 70.2672 154.654 72.8267C158.978 74.7002 164.145 76.3628 166.605 77.1194C167.445 77.378 168.002 78.173 167.932 79.0497C167.696 81.9655 167.068 88.5357 165.876 93.3025C164.301 99.6028 183.793 103.63 184.974 97.8308C185.862 93.4744 187.749 87.1083 188.633 84.2102C188.904 83.3233 189.784 82.7762 190.699 82.9253C193.31 83.3508 198.785 84.2747 204.466 85.4272C212.341 87.0251 215.294 66.7233 208.6 65.542C203.872 64.7076 198.358 63.775 195.527 63.2992C194.488 63.1246 193.796 62.1327 193.977 61.0948C194.488 58.1642 195.432 52.3454 195.803 47.4287C196.323 40.5378 180.768 38.3721 179.658 44.4755Z" fill="#7A53D1"/>
<circle cx="69.9975" cy="87.9845" r="21.0665" fill="#7A53D1"/>
<circle cx="132.996" cy="102.161" r="21.0665" fill="#7A53D1"/>
<circle cx="55.2275" cy="54.7121" r="3.93766" fill="#7A53D1"/>
<circle cx="66.252" cy="46.8365" r="3.93766" fill="#7A53D1"/>
<circle cx="47.3508" cy="42.8989" r="3.93766" fill="#7A53D1"/>
<circle cx="59.1647" cy="34.2366" r="3.93766" fill="#7A53D1"/>
</svg>
