<svg width="374" height="264" viewBox="0 0 374 264" fill="none" xmlns="http://www.w3.org/2000/svg">
<path d="M327.883 214.124C322.554 214.124 74.0779 214.322 74.0779 214.322L163.956 53.4496C163.956 53.4496 180.37 58.3509 187.618 51.1056C194.866 43.8603 203 36.5 203 36.5L291.5 61C291.5 61 291.645 92.0201 304.648 99.4784C317.651 106.937 332.786 109.494 341.1 114.821C349.413 120.149 375.961 140.287 369.664 165.751C363.367 191.216 333.212 214.124 327.883 214.124Z" fill="#C685FE"/>
<path opacity="0.4" d="M119.45 212.411H75.2244L83.8428 177.806L131.017 170.375L119.45 212.411Z" fill="#AB52F8" stroke="#AB52F8" stroke-width="6" stroke-linecap="round" stroke-linejoin="round"/>
<path opacity="0.4" d="M187.781 161.613L174.126 159.479L165.592 54.0786C172.667 57.5645 177.271 57.7621 184.367 54.9321L196.102 85.6561C196.102 85.6561 203.783 101.231 205.704 113.393C207.624 125.555 200.583 139.423 199.729 144.117C198.876 148.811 187.781 161.613 187.781 161.613Z" fill="#AB52F8" stroke="#AB52F8" stroke-width="6" stroke-linecap="round" stroke-linejoin="round"/>
<path opacity="0.4" d="M206.771 171.214L219.146 178.042L357.618 131.102L346.523 120.647C346.523 120.647 258.405 121.074 244.75 121.074C231.094 121.074 221.066 134.943 217.013 138.783C212.959 142.624 206.771 171.214 206.771 171.214Z" fill="#AB52F8" stroke="#AB52F8" stroke-width="6" stroke-linecap="round" stroke-linejoin="round"/>
<path d="M230.027 212.153C230.027 205.345 228.526 198.603 225.61 192.313C222.693 186.022 218.418 180.307 213.03 175.492C207.641 170.678 201.243 166.859 194.202 164.253C187.161 161.648 179.614 160.307 171.993 160.307C164.372 160.307 156.825 161.648 149.784 164.253C142.743 166.859 136.346 170.678 130.957 175.492C125.568 180.307 121.293 186.022 118.376 192.313C115.46 198.603 113.959 205.345 113.959 212.153L171.993 212.153H230.027Z" fill="#F5EFF8" stroke="#D3CAD8" stroke-width="6"/>
<rect x="115.24" y="202.125" width="113.935" height="9.3879" fill="#D3CAD8"/>
<path d="M115.025 202.765H171.139M171.139 202.765V160.093M171.139 202.765H229.173" stroke="#D3CAD8" stroke-width="6" stroke-linecap="round" stroke-linejoin="round"/>
<path d="M165.041 213.059C165.009 213.09 164.389 213.838 163.33 215.173C162.526 216.185 161.507 218.285 160.249 221.013C159.461 222.721 159.449 224.713 159.445 226.717C159.443 228.005 160.754 230.58 161.867 232.279C162.525 233.284 164.477 233.704 167.444 234.255C168.469 234.445 169.811 234.346 171.224 234.175C174.12 233.824 176.054 233.067 177.097 232.488C178.432 231.746 179.61 230.672 180.485 229.776C181.728 228.502 182.049 226.889 182.112 224.858C182.158 223.389 180.523 222.227 178.682 220.939C177.762 220.296 175.315 220.341 173.455 220.594C170.772 220.959 169.778 222.88 169.038 223.906C168.784 224.259 168.524 225.154 168.114 227.382C167.84 228.87 167.816 231.14 167.814 232.634C167.812 234.797 168.268 236.14 168.98 237.847C170.046 240.403 171.511 242.258 172.78 243.436C173.609 244.108 174.814 244.93 175.355 245.314C175.897 245.699 175.738 245.622 175.574 245.543" stroke="#D3CAD8" stroke-width="6" stroke-linecap="round"/>
<path d="M24.9874 212.306H74.0606C74.0606 212.306 90.5628 203.475 91.4163 196.088C92.2697 188.702 40.9895 148.781 35.2288 148.781C29.468 148.781 3.60328 173.542 3.01121 177.906C2.41913 182.269 24.9874 212.306 24.9874 212.306Z" fill="#C685FE" stroke="#AB52F8" stroke-width="6"/>
<path d="M66.7067 162.142C71.4835 161.198 70.8897 161.021 75.1311 162.719C75.1311 162.719 96.5155 182.69 98.0578 185.198C99.6001 187.707 107.047 206.1 107.047 206.1C107.047 206.1 84.3354 209.338 81.6075 209.493C78.8796 209.648 54.9888 203.803 54.9888 203.803C51.0869 202.421 50.3065 198.916 48.6791 195.019C43.0368 181.507 61.9299 163.086 66.7067 162.142Z" fill="#161616" stroke="black" stroke-width="6" stroke-linecap="round" stroke-linejoin="round"/>
<path d="M26.9087 66.0512C17.1843 72.4638 11.5466 109.105 11.5466 109.105L56.1392 178.961L89.4235 194.367C89.4235 194.367 121.903 187.065 123.348 186.136C124.793 185.208 135.719 169.586 135.719 169.586L72.9947 63.9407C72.9947 63.9407 36.633 59.6386 26.9087 66.0512Z" fill="#C685FE" stroke="#AB52F8" stroke-width="6"/>
<path d="M106.757 125.62C113.378 126.289 112.672 125.82 117.54 129.73C117.54 129.73 137.539 164.355 138.556 168.249C139.572 172.143 141.98 199.153 141.98 199.153C141.98 199.153 111.001 194.338 107.373 193.454C103.745 192.57 74.8432 175.412 74.8432 175.412C70.2928 172.051 69.5398 168.672 70.0939 161.416C70.6481 154.16 100.137 124.951 106.757 125.62Z" fill="#161616" stroke="black" stroke-width="6" stroke-linecap="round" stroke-linejoin="round"/>
<path d="M98.596 4.36042C81.2526 9.1403 70.0056 42.9064 70.0056 42.9064L79.3935 122.98L98.596 163.655C98.596 163.655 150.48 171.933 152.79 170.896C155.099 169.859 186.074 134.906 186.074 134.906L183.514 98.7022C183.514 98.7022 149.759 19.4732 148.096 15.4344C146.432 11.3956 115.94 -0.419453 98.596 4.36042Z" fill="#C685FE" stroke="#AB52F8" stroke-width="6"/>
<path d="M217.763 170.966C217.763 170.966 240.534 212.073 249.494 212.029C258.453 211.985 286.699 212.029 286.699 212.029H328.317C333.439 212.029 371.003 179.188 371.003 163.919C371.003 148.651 355.636 129.486 355.636 129.486H314.658H256.734C245.661 129.486 236.078 138.24 236.078 138.24L217.763 170.966Z" fill="#C685FE"/>
<path d="M286.699 212.029C286.699 212.029 323.195 212.029 328.317 212.029M286.699 212.029C286.699 212.029 258.453 211.985 249.494 212.029C240.534 212.073 217.763 170.966 217.763 170.966L236.078 138.24C236.078 138.24 245.661 129.486 256.734 129.486M286.699 212.029H328.317M256.734 129.486C267.808 129.486 314.658 129.486 314.658 129.486M256.734 129.486H314.658M314.658 129.486H355.636C355.636 129.486 371.003 148.651 371.003 163.919C371.003 179.188 333.439 212.029 328.317 212.029" stroke="#AB52F8" stroke-width="6" stroke-linecap="round" stroke-linejoin="round"/>
<path fill-rule="evenodd" clip-rule="evenodd" d="M181.265 69.9584C179.131 75.5042 190.316 122.691 199.618 128.829C208.92 134.966 258.519 126.909 261.934 120.51C265.348 114.111 293.732 55.2409 293.732 55.2409C293.732 55.2409 288.003 13.6478 277.726 5.32921C267.449 -2.98938 216.05 13.6478 216.05 13.6478C216.05 13.6478 183.399 64.4126 181.265 69.9584Z" fill="#C685FE"/>
<path fill-rule="evenodd" clip-rule="evenodd" d="M181.265 69.9584C179.131 75.5042 190.316 122.691 199.618 128.829C208.92 134.966 258.519 126.909 261.934 120.51C265.348 114.111 293.732 55.2409 293.732 55.2409C293.732 55.2409 288.003 13.6478 277.726 5.32921C267.449 -2.98938 216.05 13.6478 216.05 13.6478C216.05 13.6478 183.399 64.4126 181.265 69.9584Z" stroke="#AB52F8" stroke-width="6" stroke-linecap="round" stroke-linejoin="round"/>
<path d="M213.792 65.3973C207.443 67.3732 208.038 66.7804 204.07 71.5225C204.07 71.5225 191.898 102.346 191.372 112.818C190.846 123.29 194.348 143.246 194.348 143.246C194.348 143.246 217.958 136.331 227.085 130.798C236.212 125.266 253.473 106.298 253.473 106.298C257.243 102.148 257.045 95.8256 257.045 92.4666C257.045 89.1076 220.141 63.4214 213.792 65.3973Z" fill="#161616" stroke="black" stroke-width="6" stroke-linecap="round" stroke-linejoin="round"/>
<path d="M160.569 99.44C166.869 103.697 166.412 102.85 169.193 109.366C171.974 115.882 170.923 151.588 169.48 158.935C168.037 166.282 156.189 191.41 156.189 191.41C156.189 191.41 127.623 169.821 124.451 166.976C121.28 164.131 101.488 131.441 101.488 131.441C98.7292 125.642 101.141 118.951 104.289 114.998C107.437 111.044 154.269 95.1831 160.569 99.44Z" fill="#161616" stroke="black" stroke-width="6" stroke-linecap="round" stroke-linejoin="round"/>
<path d="M292.946 210.007H261.847C261.847 210.007 247.716 211.574 235.017 202.957C222.317 194.34 199.422 157.382 199.422 157.382C233.65 159.541 278.874 162.469 287.068 162.91C295.262 163.351 297.456 166.86 297.235 169.24C296.812 173.822 293.119 211.266 292.946 210.007Z" fill="#161616" stroke="black" stroke-width="6" stroke-linecap="round"/>
</svg>
