<svg width="374" height="296" viewBox="0 0 374 296" fill="none" xmlns="http://www.w3.org/2000/svg">
<path d="M46.1194 246.124C51.4486 246.124 299.925 246.322 299.925 246.322L210.046 85.4496C210.046 85.4496 193.632 90.3509 186.385 83.1056C179.137 75.8603 158.938 40.3467 158.938 40.3467L77.8816 94.6128C77.8816 94.6128 82.3582 124.02 69.3548 131.478C56.3515 138.937 41.2166 141.494 32.903 146.821C24.5894 152.149 -1.95868 172.287 4.33832 197.751C10.6353 223.216 40.7902 246.124 46.1194 246.124Z" fill="#C685FE"/>
<path opacity="0.4" d="M254.552 244.411H298.778L290.16 209.806L242.985 202.375L254.552 244.411Z" fill="#AB52F8" stroke="#AB52F8" stroke-width="6" stroke-linecap="round" stroke-linejoin="round"/>
<path opacity="0.4" d="M186.222 193.613L199.877 191.479L208.411 86.0786C201.336 89.5645 196.732 89.7621 189.635 86.9321L177.9 117.656C177.9 117.656 170.219 133.231 168.299 145.393C166.379 157.555 173.42 171.423 174.273 176.117C175.127 180.811 186.222 193.613 186.222 193.613Z" fill="#AB52F8" stroke="#AB52F8" stroke-width="6" stroke-linecap="round" stroke-linejoin="round"/>
<path opacity="0.4" d="M167.231 203.214L154.856 210.042L16.3849 163.102L27.4797 152.647C27.4797 152.647 115.598 153.074 129.253 153.074C142.908 153.074 152.936 166.943 156.99 170.783C161.044 174.624 167.231 203.214 167.231 203.214Z" fill="#AB52F8" stroke="#AB52F8" stroke-width="6" stroke-linecap="round" stroke-linejoin="round"/>
<path d="M143.975 244.153C143.975 237.345 145.476 230.603 148.393 224.313C151.309 218.022 155.584 212.307 160.973 207.492C166.362 202.678 172.76 198.859 179.801 196.253C186.842 193.648 194.388 192.307 202.01 192.307C209.631 192.307 217.177 193.648 224.218 196.253C231.259 198.859 237.657 202.678 243.046 207.492C248.435 212.307 252.71 218.022 255.626 224.313C258.543 230.603 260.044 237.345 260.044 244.153L202.01 244.153H143.975Z" fill="#F5EFF8" stroke="#D3CAD8" stroke-width="6"/>
<rect width="113.935" height="9.3879" transform="matrix(-1 0 0 1 258.763 234.125)" fill="#D3CAD8"/>
<path d="M258.978 234.765H202.864M202.864 234.765V192.093M202.864 234.765H144.829" stroke="#D3CAD8" stroke-width="6" stroke-linecap="round" stroke-linejoin="round"/>
<path d="M208.962 245.059C208.993 245.09 209.614 245.838 210.673 247.173C211.476 248.185 212.496 250.285 213.754 253.013C214.541 254.721 214.554 256.713 214.558 258.717C214.56 260.005 213.249 262.58 212.136 264.279C211.478 265.284 209.525 265.704 206.558 266.255C205.534 266.445 204.192 266.346 202.779 266.175C199.883 265.824 197.949 265.067 196.906 264.488C195.57 263.746 194.392 262.672 193.517 261.776C192.275 260.502 191.953 258.889 191.89 256.858C191.845 255.389 193.479 254.227 195.321 252.939C196.241 252.296 198.688 252.341 200.548 252.594C203.231 252.959 204.224 254.88 204.965 255.906C205.219 256.259 205.479 257.154 205.889 259.382C206.163 260.87 206.187 263.14 206.188 264.634C206.19 266.797 205.735 268.14 205.023 269.847C203.957 272.403 202.492 274.258 201.223 275.436C200.394 276.108 199.189 276.93 198.648 277.314C198.106 277.699 198.265 277.622 198.429 277.543" stroke="#D3CAD8" stroke-width="6" stroke-linecap="round"/>
<path d="M349.015 244.306H299.942C299.942 244.306 283.44 235.475 282.586 228.088C281.733 220.702 333.013 180.781 338.774 180.781C344.535 180.781 370.399 205.542 370.991 209.906C371.584 214.269 349.015 244.306 349.015 244.306Z" fill="#C685FE" stroke="#AB52F8" stroke-width="6"/>
<path d="M307.296 194.142C302.519 193.198 303.113 193.021 298.872 194.719C298.872 194.719 277.487 214.69 275.945 217.198C274.403 219.707 266.956 238.1 266.956 238.1C266.956 238.1 289.667 241.338 292.395 241.493C295.123 241.648 319.014 235.803 319.014 235.803C322.916 234.421 323.696 230.916 325.324 227.019C330.966 213.507 312.073 195.086 307.296 194.142Z" fill="#161616" stroke="black" stroke-width="6" stroke-linecap="round" stroke-linejoin="round"/>
<path d="M347.094 98.0512C356.818 104.464 362.456 141.105 362.456 141.105L317.864 210.961L284.579 226.367C284.579 226.367 252.099 219.065 250.655 218.136C249.21 217.208 238.283 201.586 238.283 201.586L301.008 95.9407C301.008 95.9407 337.37 91.6386 347.094 98.0512Z" fill="#C685FE" stroke="#AB52F8" stroke-width="6"/>
<path d="M267.245 157.62C260.625 158.289 261.331 157.82 256.463 161.73C256.463 161.73 236.464 196.355 235.447 200.249C234.43 204.143 232.023 231.153 232.023 231.153C232.023 231.153 263.002 226.338 266.629 225.454C270.257 224.57 299.16 207.412 299.16 207.412C303.71 204.051 304.463 200.672 303.909 193.416C303.355 186.16 273.866 156.951 267.245 157.62Z" fill="#161616" stroke="black" stroke-width="6" stroke-linecap="round" stroke-linejoin="round"/>
<path d="M275.407 36.3604C292.75 41.1403 303.997 74.9064 303.997 74.9064L294.609 154.98L275.407 195.655C275.407 195.655 223.522 203.933 221.213 202.896C218.903 201.859 187.928 166.906 187.928 166.906L190.489 130.702C190.489 130.702 224.243 51.4732 225.907 47.4344C227.57 43.3956 258.063 31.5805 275.407 36.3604Z" fill="#C685FE" stroke="#AB52F8" stroke-width="6"/>
<path d="M156.239 202.966C156.239 202.966 133.468 244.073 124.509 244.029C115.55 243.985 87.3038 244.029 87.3038 244.029H45.6855C40.5632 244.029 2.99997 211.188 2.99997 195.919C2.99997 180.651 18.3668 161.486 18.3668 161.486H59.3448H117.269C128.342 161.486 137.925 170.24 137.925 170.24L156.239 202.966Z" fill="#C685FE"/>
<path d="M87.3038 244.029C87.3038 244.029 50.8077 244.029 45.6855 244.029M87.3038 244.029C87.3038 244.029 115.55 243.985 124.509 244.029C133.468 244.073 156.239 202.966 156.239 202.966L137.925 170.24C137.925 170.24 128.342 161.486 117.269 161.486M87.3038 244.029H45.6855M117.269 161.486C106.195 161.486 59.3448 161.486 59.3448 161.486M117.269 161.486H59.3448M59.3448 161.486H18.3668C18.3668 161.486 2.99997 180.651 2.99997 195.919C2.99997 211.188 40.5632 244.029 45.6855 244.029" stroke="#AB52F8" stroke-width="6" stroke-linecap="round" stroke-linejoin="round"/>
<path fill-rule="evenodd" clip-rule="evenodd" d="M174.738 69.9584C176.872 75.5042 165.687 122.691 156.385 128.829C147.083 134.966 97.4835 126.909 94.069 120.51C90.6545 114.111 62.2708 55.2409 62.2708 55.2409C62.2708 55.2409 67.9994 13.6478 78.2766 5.32921C88.5539 -2.98938 139.952 13.6478 139.952 13.6478C139.952 13.6478 172.604 64.4126 174.738 69.9584Z" fill="#C685FE"/>
<path fill-rule="evenodd" clip-rule="evenodd" d="M174.738 69.9584C176.872 75.5042 165.687 122.691 156.385 128.829C147.083 134.966 97.4835 126.909 94.069 120.51C90.6545 114.111 62.2708 55.2409 62.2708 55.2409C62.2708 55.2409 67.9994 13.6478 78.2766 5.32921C88.5539 -2.98938 139.952 13.6478 139.952 13.6478C139.952 13.6478 172.604 64.4126 174.738 69.9584Z" stroke="#AB52F8" stroke-width="6" stroke-linecap="round" stroke-linejoin="round"/>
<path d="M142.211 65.3973C148.56 67.3732 147.965 66.7804 151.933 71.5225C151.933 71.5225 164.105 102.346 164.631 112.818C165.157 123.29 161.655 143.246 161.655 143.246C161.655 143.246 138.044 136.331 128.918 130.798C119.791 125.266 102.529 106.298 102.529 106.298C98.7597 102.148 98.958 95.8256 98.9581 92.4666C98.9581 89.1076 135.862 63.4214 142.211 65.3973Z" fill="#161616" stroke="black" stroke-width="6" stroke-linecap="round" stroke-linejoin="round"/>
<path d="M213.434 131.44C207.134 135.697 207.59 134.85 204.81 141.366C202.029 147.882 203.08 183.588 204.523 190.935C205.966 198.282 217.814 223.41 217.814 223.41C217.814 223.41 246.38 201.821 249.551 198.976C252.723 196.131 272.514 163.441 272.514 163.441C275.273 157.642 272.861 150.951 269.714 146.998C266.566 143.044 219.734 127.183 213.434 131.44Z" fill="#161616" stroke="black" stroke-width="6" stroke-linecap="round" stroke-linejoin="round"/>
<path d="M81.0567 242.007H112.156C112.156 242.007 126.286 243.574 138.986 234.957C151.686 226.34 174.581 189.382 174.581 189.382C140.353 191.541 95.1292 194.469 86.935 194.91C78.7408 195.351 76.547 198.86 76.7672 201.24C77.191 205.822 80.8838 243.266 81.0567 242.007Z" fill="#161616" stroke="black" stroke-width="6" stroke-linecap="round"/>
</svg>
