<svg width="130" height="145" viewBox="0 0 130 145" fill="none" xmlns="http://www.w3.org/2000/svg">
<path d="M48.6691 12.5714L108.411 30.1284L122.092 87.2952L77.3927 132.596L20.891 111.514L7.21016 54.3471L48.6691 12.5714Z" fill="#A47EF7"/>
<path d="M7.21016 54.3471L5.79057 52.9383L5.00578 53.7291L5.26508 54.8126L7.21016 54.3471ZM108.411 30.1284L110.356 29.6629L110.086 28.5362L108.975 28.2095L108.411 30.1284ZM48.6691 12.5714L49.233 10.6526C48.5283 10.4455 47.7669 10.6413 47.2495 11.1626L48.6691 12.5714ZM20.891 111.514L18.9459 111.979L19.1938 113.015L20.1918 113.388L20.891 111.514ZM77.3927 132.596L76.6935 134.47C77.4317 134.745 78.2629 134.562 78.8163 134.001L77.3927 132.596ZM122.092 87.2952L123.515 88.6999L124.295 87.9096L124.037 86.8297L122.092 87.2952ZM7.21016 54.3471L6.58214 56.2459L62.4614 74.7272L63.0894 72.8284L63.7174 70.9296L7.83817 52.4483L7.21016 54.3471ZM63.0894 72.8284L64.4609 74.2841L109.782 31.584L108.411 30.1284L107.039 28.6727L61.7179 71.3727L63.0894 72.8284ZM108.411 30.1284L108.975 28.2095L49.233 10.6526L48.6691 12.5714L48.1052 14.4903L107.847 32.0472L108.411 30.1284ZM48.6691 12.5714L47.2495 11.1626L5.79057 52.9383L7.21016 54.3471L8.62974 55.7559L50.0887 13.9803L48.6691 12.5714ZM20.891 111.514L20.1918 113.388L76.6935 134.47L77.3927 132.596L78.0918 130.722L21.5901 109.64L20.891 111.514ZM77.3927 132.596L79.3377 132.131L65.0345 72.3629L63.0894 72.8284L61.1443 73.2939L75.4476 133.062L77.3927 132.596ZM7.21016 54.3471L5.26508 54.8126L18.9459 111.979L20.891 111.514L22.8361 111.048L9.15524 53.8816L7.21016 54.3471ZM77.3927 132.596L78.8163 134.001L123.515 88.6999L122.092 87.2952L120.668 85.8905L75.969 131.191L77.3927 132.596ZM122.092 87.2952L124.037 86.8297L110.356 29.6629L108.411 30.1284L106.466 30.5938L120.147 87.7607L122.092 87.2952Z" fill="#7A53D1"/>
<ellipse cx="57.5519" cy="40.8414" rx="6.73202" ry="5.50801" transform="rotate(-13.4585 57.5519 40.8414)" fill="#7A53D1"/>
<ellipse cx="34.7765" cy="46.6649" rx="6.73202" ry="5.50801" transform="rotate(-13.4585 34.7765 46.6649)" fill="#7A53D1"/>
<ellipse cx="80.3288" cy="35.0192" rx="6.73202" ry="5.50801" transform="rotate(-13.4585 80.3288 35.0192)" fill="#7A53D1"/>
<circle cx="40.4698" cy="94.9296" r="7.14905" transform="rotate(-13.4585 40.4698 94.9296)" fill="#7A53D1"/>
<circle cx="83.4318" cy="76.1014" r="5.6403" transform="rotate(-13.4585 83.4318 76.1014)" fill="#7A53D1"/>
<circle cx="101.805" cy="62.1271" r="5.6403" transform="rotate(-13.4585 101.805 62.1271)" fill="#7A53D1"/>
<circle cx="106.611" cy="83.0224" r="5.6403" transform="rotate(-13.4585 106.611 83.0224)" fill="#7A53D1"/>
<circle cx="90.1697" cy="97.5738" r="5.6403" transform="rotate(-13.4585 90.1697 97.5738)" fill="#7A53D1"/>
</svg>
