<svg width="374" height="264" viewBox="0 0 374 264" fill="none" xmlns="http://www.w3.org/2000/svg">
<path d="M46.1194 214.124C51.4486 214.124 299.925 214.322 299.925 214.322L210.046 53.4496C210.046 53.4496 193.632 58.3509 186.385 51.1056C179.137 43.8603 171.003 36.5 171.003 36.5L82.5029 61C82.5029 61 82.3582 92.0201 69.3548 99.4784C56.3515 106.937 41.2166 109.494 32.903 114.821C24.5894 120.149 -1.95868 140.287 4.33832 165.751C10.6353 191.216 40.7902 214.124 46.1194 214.124Z" fill="#C685FE"/>
<path opacity="0.4" d="M254.552 212.411H298.778L290.16 177.806L242.985 170.375L254.552 212.411Z" fill="#AB52F8" stroke="#AB52F8" stroke-width="6" stroke-linecap="round" stroke-linejoin="round"/>
<path opacity="0.4" d="M186.222 161.613L199.877 159.479L208.411 54.0786C201.336 57.5645 196.732 57.7621 189.635 54.9321L177.9 85.6561C177.9 85.6561 170.219 101.231 168.299 113.393C166.379 125.555 173.42 139.423 174.273 144.117C175.127 148.811 186.222 161.613 186.222 161.613Z" fill="#AB52F8" stroke="#AB52F8" stroke-width="6" stroke-linecap="round" stroke-linejoin="round"/>
<path opacity="0.4" d="M167.231 171.214L154.856 178.042L16.3849 131.102L27.4797 120.647C27.4797 120.647 115.598 121.074 129.253 121.074C142.908 121.074 152.936 134.943 156.99 138.783C161.044 142.624 167.231 171.214 167.231 171.214Z" fill="#AB52F8" stroke="#AB52F8" stroke-width="6" stroke-linecap="round" stroke-linejoin="round"/>
<path d="M143.975 212.153C143.975 205.345 145.476 198.603 148.393 192.313C151.309 186.022 155.584 180.307 160.973 175.492C166.362 170.678 172.76 166.859 179.801 164.253C186.842 161.648 194.388 160.307 202.01 160.307C209.631 160.307 217.177 161.648 224.218 164.253C231.259 166.859 237.657 170.678 243.046 175.492C248.435 180.307 252.71 186.022 255.626 192.313C258.543 198.603 260.044 205.345 260.044 212.153L202.01 212.153H143.975Z" fill="#F5EFF8" stroke="#D3CAD8" stroke-width="6"/>
<rect width="113.935" height="9.3879" transform="matrix(-1 0 0 1 258.763 202.125)" fill="#D3CAD8"/>
<path d="M258.978 202.765H202.864M202.864 202.765V160.093M202.864 202.765H144.829" stroke="#D3CAD8" stroke-width="6" stroke-linecap="round" stroke-linejoin="round"/>
<path d="M208.962 213.059C208.993 213.09 209.614 213.838 210.673 215.173C211.476 216.185 212.496 218.285 213.754 221.013C214.541 222.721 214.554 224.713 214.558 226.717C214.56 228.005 213.249 230.58 212.136 232.279C211.478 233.284 209.525 233.704 206.558 234.255C205.534 234.445 204.192 234.346 202.779 234.175C199.883 233.824 197.949 233.067 196.906 232.488C195.57 231.746 194.392 230.672 193.517 229.776C192.275 228.502 191.953 226.889 191.89 224.858C191.845 223.389 193.479 222.227 195.321 220.939C196.241 220.296 198.688 220.341 200.548 220.594C203.231 220.959 204.224 222.88 204.965 223.906C205.219 224.259 205.479 225.154 205.889 227.382C206.163 228.87 206.187 231.14 206.188 232.634C206.19 234.797 205.735 236.14 205.023 237.847C203.957 240.403 202.492 242.258 201.223 243.436C200.394 244.108 199.189 244.93 198.648 245.314C198.106 245.699 198.265 245.622 198.429 245.543" stroke="#D3CAD8" stroke-width="6" stroke-linecap="round"/>
<path d="M349.015 212.306H299.942C299.942 212.306 283.44 203.475 282.586 196.088C281.733 188.702 333.013 148.781 338.774 148.781C344.535 148.781 370.399 173.542 370.991 177.906C371.584 182.269 349.015 212.306 349.015 212.306Z" fill="#C685FE" stroke="#AB52F8" stroke-width="6"/>
<path d="M307.296 162.142C302.519 161.198 303.113 161.021 298.872 162.719C298.872 162.719 277.487 182.69 275.945 185.198C274.403 187.707 266.956 206.1 266.956 206.1C266.956 206.1 289.667 209.338 292.395 209.493C295.123 209.648 319.014 203.803 319.014 203.803C322.916 202.421 323.696 198.916 325.324 195.019C330.966 181.507 312.073 163.086 307.296 162.142Z" fill="#161616" stroke="black" stroke-width="6" stroke-linecap="round" stroke-linejoin="round"/>
<path d="M347.094 66.0512C356.818 72.4638 362.456 109.105 362.456 109.105L317.864 178.961L284.579 194.367C284.579 194.367 252.099 187.065 250.655 186.136C249.21 185.208 238.283 169.586 238.283 169.586L301.008 63.9407C301.008 63.9407 337.37 59.6386 347.094 66.0512Z" fill="#C685FE" stroke="#AB52F8" stroke-width="6"/>
<path d="M267.245 125.62C260.625 126.289 261.331 125.82 256.463 129.73C256.463 129.73 236.464 164.355 235.447 168.249C234.43 172.143 232.023 199.153 232.023 199.153C232.023 199.153 263.002 194.338 266.629 193.454C270.257 192.57 299.16 175.412 299.16 175.412C303.71 172.051 304.463 168.672 303.909 161.416C303.355 154.16 273.866 124.951 267.245 125.62Z" fill="#161616" stroke="black" stroke-width="6" stroke-linecap="round" stroke-linejoin="round"/>
<path d="M275.407 4.36042C292.75 9.1403 303.997 42.9064 303.997 42.9064L294.609 122.98L275.407 163.655C275.407 163.655 223.522 171.933 221.213 170.896C218.903 169.859 187.928 134.906 187.928 134.906L190.489 98.7022C190.489 98.7022 224.243 19.4732 225.907 15.4344C227.57 11.3956 258.063 -0.419453 275.407 4.36042Z" fill="#C685FE" stroke="#AB52F8" stroke-width="6"/>
<path d="M156.239 170.966C156.239 170.966 133.468 212.073 124.509 212.029C115.55 211.985 87.3038 212.029 87.3038 212.029H45.6855C40.5632 212.029 2.99997 179.188 2.99997 163.919C2.99997 148.651 18.3668 129.486 18.3668 129.486H59.3448H117.269C128.342 129.486 137.925 138.24 137.925 138.24L156.239 170.966Z" fill="#C685FE"/>
<path d="M87.3038 212.029C87.3038 212.029 50.8077 212.029 45.6855 212.029M87.3038 212.029C87.3038 212.029 115.55 211.985 124.509 212.029C133.468 212.073 156.239 170.966 156.239 170.966L137.925 138.24C137.925 138.24 128.342 129.486 117.269 129.486M87.3038 212.029H45.6855M117.269 129.486C106.195 129.486 59.3448 129.486 59.3448 129.486M117.269 129.486H59.3448M59.3448 129.486H18.3668C18.3668 129.486 2.99997 148.651 2.99997 163.919C2.99997 179.188 40.5632 212.029 45.6855 212.029" stroke="#AB52F8" stroke-width="6" stroke-linecap="round" stroke-linejoin="round"/>
<path fill-rule="evenodd" clip-rule="evenodd" d="M192.738 69.9584C194.872 75.5042 183.687 122.691 174.385 128.829C165.083 134.966 115.484 126.909 112.069 120.51C108.654 114.111 80.2708 55.2409 80.2708 55.2409C80.2708 55.2409 85.9994 13.6478 96.2766 5.32921C106.554 -2.98938 157.952 13.6478 157.952 13.6478C157.952 13.6478 190.604 64.4126 192.738 69.9584Z" fill="#C685FE"/>
<path fill-rule="evenodd" clip-rule="evenodd" d="M192.738 69.9584C194.872 75.5042 183.687 122.691 174.385 128.829C165.083 134.966 115.484 126.909 112.069 120.51C108.654 114.111 80.2708 55.2409 80.2708 55.2409C80.2708 55.2409 85.9994 13.6478 96.2766 5.32921C106.554 -2.98938 157.952 13.6478 157.952 13.6478C157.952 13.6478 190.604 64.4126 192.738 69.9584Z" stroke="#AB52F8" stroke-width="6" stroke-linecap="round" stroke-linejoin="round"/>
<path d="M160.211 65.3973C166.56 67.3732 165.965 66.7804 169.933 71.5225C169.933 71.5225 182.105 102.346 182.631 112.818C183.157 123.29 179.655 143.246 179.655 143.246C179.655 143.246 156.044 136.331 146.918 130.798C137.791 125.266 120.529 106.298 120.529 106.298C116.76 102.148 116.958 95.8256 116.958 92.4666C116.958 89.1076 153.862 63.4214 160.211 65.3973Z" fill="#161616" stroke="black" stroke-width="6" stroke-linecap="round" stroke-linejoin="round"/>
<path d="M213.434 99.44C207.134 103.697 207.59 102.85 204.81 109.366C202.029 115.882 203.08 151.588 204.523 158.935C205.966 166.282 217.814 191.41 217.814 191.41C217.814 191.41 246.38 169.821 249.551 166.976C252.723 164.131 272.514 131.441 272.514 131.441C275.273 125.642 272.861 118.951 269.714 114.998C266.566 111.044 219.734 95.1831 213.434 99.44Z" fill="#161616" stroke="black" stroke-width="6" stroke-linecap="round" stroke-linejoin="round"/>
<path d="M81.0567 210.007H112.156C112.156 210.007 126.286 211.574 138.986 202.957C151.686 194.34 174.581 157.382 174.581 157.382C140.353 159.541 95.1292 162.469 86.935 162.91C78.7408 163.351 76.547 166.86 76.7672 169.24C77.191 173.822 80.8838 211.266 81.0567 210.007Z" fill="#161616" stroke="black" stroke-width="6" stroke-linecap="round"/>
</svg>
