<svg width="374" height="324" viewBox="0 0 374 324" fill="none" xmlns="http://www.w3.org/2000/svg">
<path d="M46.1194 274.124C51.4486 274.124 299.925 274.322 299.925 274.322L210.046 113.45C210.046 113.45 193.632 118.351 186.385 111.106C179.137 103.86 158.938 68.3467 158.938 68.3467L77.8816 122.613C77.8816 122.613 82.3582 152.02 69.3548 159.478C56.3515 166.937 41.2166 169.494 32.903 174.821C24.5894 180.149 -1.95868 200.287 4.33832 225.751C10.6353 251.216 40.7902 274.124 46.1194 274.124Z" fill="#C685FE"/>
<path opacity="0.4" d="M254.552 272.411H298.778L290.16 237.806L242.985 230.375L254.552 272.411Z" fill="#AB52F8" stroke="#AB52F8" stroke-width="6" stroke-linecap="round" stroke-linejoin="round"/>
<path opacity="0.4" d="M186.222 221.613L199.877 219.479L208.411 114.079C201.336 117.565 196.732 117.762 189.635 114.932L177.9 145.656C177.9 145.656 170.219 161.231 168.299 173.393C166.379 185.555 173.42 199.423 174.273 204.117C175.127 208.811 186.222 221.613 186.222 221.613Z" fill="#AB52F8" stroke="#AB52F8" stroke-width="6" stroke-linecap="round" stroke-linejoin="round"/>
<path opacity="0.4" d="M167.231 231.214L154.856 238.042L16.3849 191.102L27.4797 180.647C27.4797 180.647 115.598 181.074 129.253 181.074C142.908 181.074 152.936 194.943 156.99 198.783C161.044 202.624 167.231 231.214 167.231 231.214Z" fill="#AB52F8" stroke="#AB52F8" stroke-width="6" stroke-linecap="round" stroke-linejoin="round"/>
<path d="M143.975 272.153C143.975 265.345 145.476 258.603 148.393 252.313C151.309 246.022 155.584 240.307 160.973 235.492C166.362 230.678 172.76 226.859 179.801 224.253C186.842 221.648 194.388 220.307 202.01 220.307C209.631 220.307 217.177 221.648 224.218 224.253C231.259 226.859 237.657 230.678 243.046 235.492C248.435 240.307 252.71 246.022 255.626 252.313C258.543 258.603 260.044 265.345 260.044 272.153L202.01 272.153H143.975Z" fill="#F5EFF8" stroke="#D3CAD8" stroke-width="6"/>
<rect width="113.935" height="9.3879" transform="matrix(-1 0 0 1 258.763 262.125)" fill="#D3CAD8"/>
<path d="M258.978 262.765H202.864M202.864 262.765V220.093M202.864 262.765H144.829" stroke="#D3CAD8" stroke-width="6" stroke-linecap="round" stroke-linejoin="round"/>
<path d="M208.962 273.059C208.993 273.09 209.614 273.838 210.673 275.173C211.476 276.185 212.496 278.285 213.754 281.013C214.541 282.721 214.554 284.713 214.558 286.717C214.56 288.005 213.249 290.58 212.136 292.279C211.478 293.284 209.525 293.704 206.558 294.255C205.534 294.445 204.192 294.346 202.779 294.175C199.883 293.824 197.949 293.067 196.906 292.488C195.57 291.746 194.392 290.672 193.517 289.776C192.275 288.502 191.953 286.889 191.89 284.858C191.845 283.389 193.479 282.227 195.321 280.939C196.241 280.296 198.688 280.341 200.548 280.594C203.231 280.959 204.224 282.88 204.965 283.906C205.219 284.259 205.479 285.154 205.889 287.382C206.163 288.87 206.187 291.14 206.188 292.634C206.19 294.797 205.735 296.14 205.023 297.847C203.957 300.403 202.492 302.258 201.223 303.436C200.394 304.108 199.189 304.93 198.648 305.314C198.106 305.699 198.265 305.622 198.429 305.543" stroke="#D3CAD8" stroke-width="6" stroke-linecap="round"/>
<path d="M349.015 272.306H299.942C299.942 272.306 283.44 263.475 282.586 256.088C281.733 248.702 333.013 208.781 338.774 208.781C344.535 208.781 370.399 233.542 370.991 237.906C371.584 242.269 349.015 272.306 349.015 272.306Z" fill="#C685FE" stroke="#AB52F8" stroke-width="6"/>
<path d="M307.296 222.142C302.519 221.198 303.113 221.021 298.872 222.719C298.872 222.719 277.487 242.69 275.945 245.198C274.403 247.707 266.956 266.1 266.956 266.1C266.956 266.1 289.667 269.338 292.395 269.493C295.123 269.648 319.014 263.803 319.014 263.803C322.916 262.421 323.696 258.916 325.324 255.019C330.966 241.507 312.073 223.086 307.296 222.142Z" fill="#161616" stroke="black" stroke-width="6" stroke-linecap="round" stroke-linejoin="round"/>
<path d="M347.094 126.051C356.818 132.464 362.456 169.105 362.456 169.105L317.864 238.961L284.579 254.367C284.579 254.367 252.099 247.065 250.655 246.136C249.21 245.208 238.283 229.586 238.283 229.586L301.008 123.941C301.008 123.941 337.37 119.639 347.094 126.051Z" fill="#C685FE" stroke="#AB52F8" stroke-width="6"/>
<path d="M267.245 185.62C260.625 186.289 261.331 185.82 256.463 189.73C256.463 189.73 236.464 224.355 235.447 228.249C234.43 232.143 232.023 259.153 232.023 259.153C232.023 259.153 263.002 254.338 266.629 253.454C270.257 252.57 299.16 235.412 299.16 235.412C303.71 232.051 304.463 228.672 303.909 221.416C303.355 214.16 273.866 184.951 267.245 185.62Z" fill="#161616" stroke="black" stroke-width="6" stroke-linecap="round" stroke-linejoin="round"/>
<path d="M275.407 64.3604C292.75 69.1403 303.997 102.906 303.997 102.906L294.609 182.98L275.407 223.655C275.407 223.655 223.522 231.933 221.213 230.896C218.903 229.859 187.928 194.906 187.928 194.906L190.489 158.702C190.489 158.702 224.243 79.4732 225.907 75.4344C227.57 71.3956 258.063 59.5805 275.407 64.3604Z" fill="#C685FE" stroke="#AB52F8" stroke-width="6"/>
<path d="M156.239 230.966C156.239 230.966 133.468 272.073 124.509 272.029C115.55 271.985 87.3038 272.029 87.3038 272.029H45.6855C40.5632 272.029 2.99997 239.188 2.99997 223.919C2.99997 208.651 18.3668 189.486 18.3668 189.486H59.3448H117.269C128.342 189.486 137.925 198.24 137.925 198.24L156.239 230.966Z" fill="#C685FE"/>
<path d="M87.3038 272.029C87.3038 272.029 50.8077 272.029 45.6855 272.029M87.3038 272.029C87.3038 272.029 115.55 271.985 124.509 272.029C133.468 272.073 156.239 230.966 156.239 230.966L137.925 198.24C137.925 198.24 128.342 189.486 117.269 189.486M87.3038 272.029H45.6855M117.269 189.486C106.195 189.486 59.3448 189.486 59.3448 189.486M117.269 189.486H59.3448M59.3448 189.486H18.3668C18.3668 189.486 2.99997 208.651 2.99997 223.919C2.99997 239.188 40.5632 272.029 45.6855 272.029" stroke="#AB52F8" stroke-width="6" stroke-linecap="round" stroke-linejoin="round"/>
<path fill-rule="evenodd" clip-rule="evenodd" d="M158.267 69.9584C160.401 75.5042 149.216 122.691 139.914 128.829C130.612 134.966 81.0126 126.909 77.5981 120.51C74.1835 114.111 45.7998 55.2409 45.7998 55.2409C45.7998 55.2409 51.5285 13.6478 61.8057 5.32921C72.0829 -2.98938 123.481 13.6478 123.481 13.6478C123.481 13.6478 156.133 64.4126 158.267 69.9584Z" fill="#C685FE"/>
<path fill-rule="evenodd" clip-rule="evenodd" d="M158.267 69.9584C160.401 75.5042 149.216 122.691 139.914 128.829C130.612 134.966 81.0126 126.909 77.5981 120.51C74.1835 114.111 45.7998 55.2409 45.7998 55.2409C45.7998 55.2409 51.5285 13.6478 61.8057 5.32921C72.0829 -2.98938 123.481 13.6478 123.481 13.6478C123.481 13.6478 156.133 64.4126 158.267 69.9584Z" stroke="#AB52F8" stroke-width="6" stroke-linecap="round" stroke-linejoin="round"/>
<path d="M125.74 65.3973C132.089 67.3732 131.494 66.7804 135.462 71.5225C135.462 71.5225 147.634 102.346 148.16 112.818C148.686 123.29 145.184 143.246 145.184 143.246C145.184 143.246 121.574 136.331 112.447 130.798C103.32 125.266 86.0584 106.298 86.0584 106.298C82.2887 102.148 82.4871 95.8256 82.4871 92.4666C82.4871 89.1076 119.391 63.4214 125.74 65.3973Z" fill="#161616" stroke="black" stroke-width="6" stroke-linecap="round" stroke-linejoin="round"/>
<path d="M213.434 159.44C207.134 163.697 207.59 162.85 204.81 169.366C202.029 175.882 203.08 211.588 204.523 218.935C205.966 226.282 217.814 251.41 217.814 251.41C217.814 251.41 246.38 229.821 249.551 226.976C252.723 224.131 272.514 191.441 272.514 191.441C275.273 185.642 272.861 178.951 269.714 174.998C266.566 171.044 219.734 155.183 213.434 159.44Z" fill="#161616" stroke="black" stroke-width="6" stroke-linecap="round" stroke-linejoin="round"/>
<path d="M81.0567 270.007H112.156C112.156 270.007 126.286 271.574 138.986 262.957C151.686 254.34 174.581 217.382 174.581 217.382C140.353 219.541 95.1292 222.469 86.935 222.91C78.7408 223.351 76.547 226.86 76.7672 229.24C77.191 233.822 80.8838 271.266 81.0567 270.007Z" fill="#161616" stroke="black" stroke-width="6" stroke-linecap="round"/>
</svg>
