<svg width="374" height="264" viewBox="0 0 374 264" fill="none" xmlns="http://www.w3.org/2000/svg">
<path d="M46.1194 213.883C51.4486 213.883 299.925 214.081 299.925 214.081L210.046 53.2087C210.046 53.2087 194.751 60.454 187.503 53.2087C180.255 45.9635 170.503 44.7593 170.503 44.7593L88.5029 64.2591C88.5029 64.2591 82.3582 91.7792 69.3548 99.2375C56.3515 106.696 41.2166 109.253 32.903 114.58C24.5894 119.908 -1.95868 140.046 4.33832 165.51C10.6353 190.975 40.7902 213.883 46.1194 213.883Z" fill="#C685FE"/>
<path opacity="0.4" d="M254.552 212.17H298.778L290.16 177.565L242.985 170.134L254.552 212.17Z" fill="#AB52F8" stroke="#AB52F8" stroke-width="6" stroke-linecap="round" stroke-linejoin="round"/>
<path opacity="0.4" d="M186.222 161.372L199.877 159.238L208.411 53.8379C201.336 57.3238 196.732 57.5214 189.635 54.6913L177.9 85.4154C177.9 85.4154 170.219 100.991 168.299 113.152C166.379 125.314 173.42 139.182 174.273 143.876C175.127 148.57 186.222 161.372 186.222 161.372Z" fill="#AB52F8" stroke="#AB52F8" stroke-width="6" stroke-linecap="round" stroke-linejoin="round"/>
<path opacity="0.4" d="M167.231 170.973L154.856 177.801L16.3849 130.861L27.4797 120.407C27.4797 120.407 115.598 120.833 129.253 120.833C142.908 120.833 152.936 134.702 156.99 138.542C161.044 142.383 167.231 170.973 167.231 170.973Z" fill="#AB52F8" stroke="#AB52F8" stroke-width="6" stroke-linecap="round" stroke-linejoin="round"/>
<path d="M143.975 211.913C143.975 205.104 145.476 198.362 148.393 192.072C151.309 185.781 155.584 180.066 160.973 175.252C166.362 170.437 172.76 166.618 179.801 164.013C186.842 161.407 194.388 160.066 202.01 160.066C209.631 160.066 217.177 161.407 224.218 164.013C231.259 166.618 237.657 170.437 243.046 175.252C248.435 180.066 252.71 185.781 255.626 192.072C258.543 198.362 260.044 205.104 260.044 211.913L202.01 211.913H143.975Z" fill="#F5EFF8" stroke="#D3CAD8" stroke-width="6"/>
<rect width="113.935" height="9.3879" transform="matrix(-1 0 0 1 258.763 201.884)" fill="#D3CAD8"/>
<path d="M258.978 202.524H202.864M202.864 202.524V159.852M202.864 202.524H144.829" stroke="#D3CAD8" stroke-width="6" stroke-linecap="round" stroke-linejoin="round"/>
<path d="M208.962 212.818C208.993 212.849 209.614 213.597 210.673 214.932C211.476 215.944 212.496 218.045 213.754 220.773C214.541 222.481 214.554 224.472 214.558 226.477C214.56 227.764 213.249 230.34 212.136 232.039C211.478 233.043 209.525 233.464 206.558 234.014C205.534 234.204 204.192 234.105 202.779 233.934C199.883 233.583 197.949 232.827 196.906 232.247C195.57 231.505 194.392 230.432 193.517 229.535C192.275 228.262 191.953 226.649 191.89 224.617C191.845 223.148 193.479 221.986 195.321 220.698C196.241 220.055 198.688 220.1 200.548 220.353C203.231 220.719 204.224 222.639 204.965 223.665C205.219 224.018 205.479 224.913 205.889 227.141C206.163 228.629 206.187 230.899 206.188 232.394C206.19 234.556 205.735 235.899 205.023 237.606C203.957 240.162 202.492 242.018 201.223 243.195C200.394 243.867 199.189 244.689 198.648 245.074C198.106 245.458 198.265 245.382 198.429 245.302" stroke="#D3CAD8" stroke-width="6" stroke-linecap="round"/>
<path d="M349.015 212.065H299.942C299.942 212.065 283.44 203.234 282.586 195.848C281.733 188.461 333.013 148.541 338.774 148.541C344.535 148.541 370.399 173.301 370.991 177.665C371.584 182.029 349.015 212.065 349.015 212.065Z" fill="#C685FE" stroke="#AB52F8" stroke-width="6"/>
<path d="M307.296 161.901C302.519 160.957 303.113 160.78 298.872 162.478C298.872 162.478 277.487 182.449 275.945 184.958C274.403 187.466 266.956 205.859 266.956 205.859C266.956 205.859 289.667 209.097 292.395 209.252C295.123 209.407 319.014 203.562 319.014 203.562C322.916 202.18 323.696 198.676 325.324 194.778C330.966 181.266 312.073 162.845 307.296 161.901Z" fill="#161616" stroke="black" stroke-width="6" stroke-linecap="round" stroke-linejoin="round"/>
<path d="M347.094 65.8104C356.818 72.223 362.456 108.864 362.456 108.864L317.864 178.72L284.579 194.126C284.579 194.126 252.099 186.825 250.655 185.896C249.21 184.967 238.283 169.346 238.283 169.346L301.008 63.7C301.008 63.7 337.37 59.3978 347.094 65.8104Z" fill="#C685FE" stroke="#AB52F8" stroke-width="6"/>
<path d="M267.245 125.379C260.625 126.048 261.331 125.58 256.463 129.489C256.463 129.489 236.464 164.114 235.447 168.008C234.43 171.902 232.023 198.912 232.023 198.912C232.023 198.912 263.002 194.097 266.629 193.213C270.257 192.329 299.16 175.171 299.16 175.171C303.71 171.811 304.463 168.432 303.909 161.175C303.355 153.919 273.866 124.71 267.245 125.379Z" fill="#161616" stroke="black" stroke-width="6" stroke-linecap="round" stroke-linejoin="round"/>
<path d="M275.407 4.1197C292.75 8.89958 303.997 42.6657 303.997 42.6657L294.609 122.739L275.407 163.415C275.407 163.415 223.522 171.693 221.213 170.655C218.903 169.618 187.928 134.665 187.928 134.665L190.489 98.4615C190.489 98.4615 224.243 19.2324 225.907 15.1937C227.57 11.1549 258.063 -0.660176 275.407 4.1197Z" fill="#C685FE" stroke="#AB52F8" stroke-width="6"/>
<path d="M156.239 170.725C156.239 170.725 133.468 211.832 124.509 211.788C115.55 211.744 87.3038 211.788 87.3038 211.788H45.6855C40.5632 211.788 2.99997 178.947 2.99997 163.678C2.99997 148.41 18.3668 129.245 18.3668 129.245H59.3448H117.269C128.342 129.245 137.925 138 137.925 138L156.239 170.725Z" fill="#C685FE"/>
<path d="M87.3038 211.788C87.3038 211.788 50.8077 211.788 45.6855 211.788M87.3038 211.788C87.3038 211.788 115.55 211.744 124.509 211.788C133.468 211.832 156.239 170.725 156.239 170.725L137.925 138C137.925 138 128.342 129.245 117.269 129.245M87.3038 211.788H45.6855M117.269 129.245C106.195 129.245 59.3448 129.245 59.3448 129.245M117.269 129.245H59.3448M59.3448 129.245H18.3668C18.3668 129.245 2.99997 148.41 2.99997 163.678C2.99997 178.947 40.5632 211.788 45.6855 211.788" stroke="#AB52F8" stroke-width="6" stroke-linecap="round" stroke-linejoin="round"/>
<path fill-rule="evenodd" clip-rule="evenodd" d="M200.738 93.7177C202.872 99.2634 191.687 146.45 182.385 152.588C173.083 158.725 123.484 150.668 120.069 144.269C116.654 137.87 88.2708 79.0001 88.2708 79.0001C88.2708 79.0001 93.9994 37.4071 104.277 29.0885C114.554 20.7699 165.952 37.4071 165.952 37.4071C165.952 37.4071 198.604 88.1719 200.738 93.7177Z" fill="#C685FE"/>
<path fill-rule="evenodd" clip-rule="evenodd" d="M200.738 93.7177C202.872 99.2634 191.687 146.45 182.385 152.588C173.083 158.725 123.484 150.668 120.069 144.269C116.654 137.87 88.2708 79.0001 88.2708 79.0001C88.2708 79.0001 93.9994 37.4071 104.277 29.0885C114.554 20.7699 165.952 37.4071 165.952 37.4071C165.952 37.4071 198.604 88.1719 200.738 93.7177Z" stroke="#AB52F8" stroke-width="6" stroke-linecap="round" stroke-linejoin="round"/>
<path d="M168.211 89.1566C174.56 91.1324 173.965 90.5397 177.933 95.2818C177.933 95.2818 190.105 126.105 190.631 136.577C191.157 147.049 187.655 167.005 187.655 167.005C187.655 167.005 164.044 160.09 154.918 154.558C145.791 149.025 128.529 130.057 128.529 130.057C124.76 125.908 124.958 119.585 124.958 116.226C124.958 112.867 161.862 87.1807 168.211 89.1566Z" fill="#161616" stroke="black" stroke-width="6" stroke-linecap="round" stroke-linejoin="round"/>
<path d="M213.434 99.1993C207.134 103.456 207.59 102.609 204.81 109.125C202.029 115.642 203.08 151.348 204.523 158.694C205.966 166.041 217.814 191.17 217.814 191.17C217.814 191.17 246.38 169.581 249.551 166.735C252.723 163.89 272.514 131.201 272.514 131.201C275.273 125.401 272.861 118.71 269.714 114.757C266.566 110.803 219.734 94.9424 213.434 99.1993Z" fill="#161616" stroke="black" stroke-width="6" stroke-linecap="round" stroke-linejoin="round"/>
<path d="M81.0567 209.766H112.156C112.156 209.766 126.286 211.333 138.986 202.716C151.686 194.099 174.581 157.142 174.581 157.142C140.353 159.3 95.1292 162.228 86.935 162.669C78.7408 163.11 76.547 166.619 76.7672 169C77.191 173.581 80.8838 211.025 81.0567 209.766Z" fill="#161616" stroke="black" stroke-width="6" stroke-linecap="round"/>
</svg>
