<svg width="374" height="264" viewBox="0 0 374 264" fill="none" xmlns="http://www.w3.org/2000/svg">
<path d="M327.883 213.883C322.554 213.883 74.0779 214.081 74.0779 214.081L163.956 53.2087C163.956 53.2087 179.252 60.454 186.5 53.2087C193.747 45.9635 203.5 44.7593 203.5 44.7593L285.5 64.2591C285.5 64.2591 291.645 91.7792 304.648 99.2375C317.651 106.696 332.786 109.253 341.1 114.58C349.413 119.908 375.961 140.046 369.664 165.51C363.367 190.975 333.212 213.883 327.883 213.883Z" fill="#C685FE"/>
<path opacity="0.4" d="M119.45 212.17H75.2244L83.8428 177.565L131.017 170.134L119.45 212.17Z" fill="#AB52F8" stroke="#AB52F8" stroke-width="6" stroke-linecap="round" stroke-linejoin="round"/>
<path opacity="0.4" d="M187.781 161.372L174.126 159.238L165.592 53.8379C172.667 57.3238 177.271 57.5214 184.367 54.6913L196.102 85.4154C196.102 85.4154 203.783 100.991 205.704 113.152C207.624 125.314 200.583 139.182 199.729 143.876C198.876 148.57 187.781 161.372 187.781 161.372Z" fill="#AB52F8" stroke="#AB52F8" stroke-width="6" stroke-linecap="round" stroke-linejoin="round"/>
<path opacity="0.4" d="M206.771 170.973L219.146 177.801L357.618 130.861L346.523 120.407C346.523 120.407 258.405 120.833 244.75 120.833C231.094 120.833 221.066 134.702 217.013 138.542C212.959 142.383 206.771 170.973 206.771 170.973Z" fill="#AB52F8" stroke="#AB52F8" stroke-width="6" stroke-linecap="round" stroke-linejoin="round"/>
<path d="M230.027 211.913C230.027 205.104 228.526 198.362 225.61 192.072C222.693 185.781 218.418 180.066 213.03 175.252C207.641 170.437 201.243 166.618 194.202 164.013C187.161 161.407 179.614 160.066 171.993 160.066C164.372 160.066 156.825 161.407 149.784 164.013C142.743 166.618 136.346 170.437 130.957 175.252C125.568 180.066 121.293 185.781 118.376 192.072C115.46 198.362 113.959 205.104 113.959 211.913L171.993 211.913H230.027Z" fill="#F5EFF8" stroke="#D3CAD8" stroke-width="6"/>
<rect x="115.24" y="201.884" width="113.935" height="9.3879" fill="#D3CAD8"/>
<path d="M115.025 202.524H171.139M171.139 202.524V159.852M171.139 202.524H229.173" stroke="#D3CAD8" stroke-width="6" stroke-linecap="round" stroke-linejoin="round"/>
<path d="M165.041 212.818C165.009 212.849 164.389 213.597 163.33 214.932C162.526 215.944 161.507 218.045 160.249 220.773C159.461 222.481 159.449 224.472 159.445 226.477C159.443 227.764 160.754 230.34 161.867 232.039C162.525 233.043 164.477 233.464 167.444 234.014C168.469 234.204 169.811 234.105 171.224 233.934C174.12 233.583 176.054 232.827 177.097 232.247C178.432 231.505 179.61 230.432 180.485 229.535C181.728 228.262 182.049 226.649 182.112 224.617C182.158 223.148 180.523 221.986 178.682 220.698C177.762 220.055 175.315 220.1 173.455 220.353C170.772 220.719 169.778 222.639 169.038 223.665C168.784 224.018 168.524 224.913 168.114 227.141C167.84 228.629 167.816 230.899 167.814 232.394C167.812 234.556 168.268 235.899 168.98 237.606C170.046 240.162 171.511 242.018 172.78 243.195C173.609 243.867 174.814 244.689 175.355 245.074C175.897 245.458 175.738 245.382 175.574 245.302" stroke="#D3CAD8" stroke-width="6" stroke-linecap="round"/>
<path d="M24.9874 212.065H74.0606C74.0606 212.065 90.5628 203.234 91.4163 195.848C92.2697 188.461 40.9895 148.541 35.2288 148.541C29.468 148.541 3.60328 173.301 3.01121 177.665C2.41913 182.029 24.9874 212.065 24.9874 212.065Z" fill="#C685FE" stroke="#AB52F8" stroke-width="6"/>
<path d="M66.7067 161.901C71.4835 160.957 70.8897 160.78 75.1311 162.478C75.1311 162.478 96.5155 182.449 98.0578 184.958C99.6001 187.466 107.047 205.859 107.047 205.859C107.047 205.859 84.3354 209.097 81.6075 209.252C78.8796 209.407 54.9888 203.562 54.9888 203.562C51.0869 202.18 50.3065 198.676 48.6791 194.778C43.0368 181.266 61.9299 162.845 66.7067 161.901Z" fill="#161616" stroke="black" stroke-width="6" stroke-linecap="round" stroke-linejoin="round"/>
<path d="M26.9087 65.8104C17.1843 72.223 11.5466 108.864 11.5466 108.864L56.1392 178.72L89.4235 194.126C89.4235 194.126 121.903 186.825 123.348 185.896C124.793 184.967 135.719 169.346 135.719 169.346L72.9947 63.7C72.9947 63.7 36.633 59.3978 26.9087 65.8104Z" fill="#C685FE" stroke="#AB52F8" stroke-width="6"/>
<path d="M106.757 125.379C113.378 126.048 112.672 125.58 117.54 129.489C117.54 129.489 137.539 164.114 138.556 168.008C139.572 171.902 141.98 198.912 141.98 198.912C141.98 198.912 111.001 194.097 107.373 193.213C103.745 192.329 74.8432 175.171 74.8432 175.171C70.2928 171.811 69.5398 168.432 70.0939 161.175C70.6481 153.919 100.137 124.71 106.757 125.379Z" fill="#161616" stroke="black" stroke-width="6" stroke-linecap="round" stroke-linejoin="round"/>
<path d="M98.596 4.1197C81.2526 8.89958 70.0056 42.6657 70.0056 42.6657L79.3935 122.739L98.596 163.415C98.596 163.415 150.48 171.693 152.79 170.655C155.099 169.618 186.074 134.665 186.074 134.665L183.514 98.4615C183.514 98.4615 149.759 19.2324 148.096 15.1937C146.432 11.1549 115.94 -0.660176 98.596 4.1197Z" fill="#C685FE" stroke="#AB52F8" stroke-width="6"/>
<path d="M217.763 170.725C217.763 170.725 240.534 211.832 249.494 211.788C258.453 211.744 286.699 211.788 286.699 211.788H328.317C333.439 211.788 371.003 178.947 371.003 163.678C371.003 148.41 355.636 129.245 355.636 129.245H314.658H256.734C245.661 129.245 236.078 138 236.078 138L217.763 170.725Z" fill="#C685FE"/>
<path d="M286.699 211.788C286.699 211.788 323.195 211.788 328.317 211.788M286.699 211.788C286.699 211.788 258.453 211.744 249.494 211.788C240.534 211.832 217.763 170.725 217.763 170.725L236.078 138C236.078 138 245.661 129.245 256.734 129.245M286.699 211.788H328.317M256.734 129.245C267.808 129.245 314.658 129.245 314.658 129.245M256.734 129.245H314.658M314.658 129.245H355.636C355.636 129.245 371.003 148.41 371.003 163.678C371.003 178.947 333.439 211.788 328.317 211.788" stroke="#AB52F8" stroke-width="6" stroke-linecap="round" stroke-linejoin="round"/>
<path fill-rule="evenodd" clip-rule="evenodd" d="M173.265 93.7177C171.131 99.2634 182.316 146.45 191.618 152.588C200.92 158.725 250.519 150.668 253.934 144.269C257.348 137.87 285.732 79.0001 285.732 79.0001C285.732 79.0001 280.003 37.4071 269.726 29.0885C259.449 20.7699 208.05 37.4071 208.05 37.4071C208.05 37.4071 175.399 88.1719 173.265 93.7177Z" fill="#C685FE"/>
<path fill-rule="evenodd" clip-rule="evenodd" d="M173.265 93.7177C171.131 99.2634 182.316 146.45 191.618 152.588C200.92 158.725 250.519 150.668 253.934 144.269C257.348 137.87 285.732 79.0001 285.732 79.0001C285.732 79.0001 280.003 37.4071 269.726 29.0885C259.449 20.7699 208.05 37.4071 208.05 37.4071C208.05 37.4071 175.399 88.1719 173.265 93.7177Z" stroke="#AB52F8" stroke-width="6" stroke-linecap="round" stroke-linejoin="round"/>
<path d="M205.792 89.1566C199.443 91.1324 200.038 90.5397 196.07 95.2818C196.07 95.2818 183.898 126.105 183.372 136.577C182.846 147.049 186.348 167.005 186.348 167.005C186.348 167.005 209.958 160.09 219.085 154.558C228.212 149.025 245.473 130.057 245.473 130.057C249.243 125.908 249.045 119.585 249.045 116.226C249.045 112.867 212.141 87.1807 205.792 89.1566Z" fill="#161616" stroke="black" stroke-width="6" stroke-linecap="round" stroke-linejoin="round"/>
<path d="M160.569 99.1993C166.869 103.456 166.412 102.609 169.193 109.125C171.974 115.642 170.923 151.348 169.48 158.694C168.037 166.041 156.189 191.17 156.189 191.17C156.189 191.17 127.623 169.581 124.451 166.735C121.28 163.89 101.488 131.201 101.488 131.201C98.7292 125.401 101.141 118.71 104.289 114.757C107.437 110.803 154.269 94.9424 160.569 99.1993Z" fill="#161616" stroke="black" stroke-width="6" stroke-linecap="round" stroke-linejoin="round"/>
<path d="M292.946 209.766H261.847C261.847 209.766 247.716 211.333 235.017 202.716C222.317 194.099 199.422 157.142 199.422 157.142C233.65 159.3 278.874 162.228 287.068 162.669C295.262 163.11 297.456 166.619 297.235 169C296.812 173.581 293.119 211.025 292.946 209.766Z" fill="#161616" stroke="black" stroke-width="6" stroke-linecap="round"/>
</svg>
