<svg width="1607" height="324" viewBox="0 0 1607 324" fill="none" xmlns="http://www.w3.org/2000/svg">
<path d="M1279.12 274.124C1284.45 274.124 1532.92 274.322 1532.92 274.322L1443.05 113.45C1443.05 113.45 1426.63 118.351 1419.38 111.106C1412.14 103.86 1391.94 68.3467 1391.94 68.3467L1310.88 122.613C1310.88 122.613 1315.36 152.02 1302.35 159.478C1289.35 166.937 1274.22 169.494 1265.9 174.821C1257.59 180.149 1231.04 200.287 1237.34 225.751C1243.64 251.216 1273.79 274.124 1279.12 274.124Z" fill="#C685FE"/>
<path opacity="0.4" d="M1487.55 272.411H1531.78L1523.16 237.806L1475.99 230.375L1487.55 272.411Z" fill="#AB52F8" stroke="#AB52F8" stroke-width="6" stroke-linecap="round" stroke-linejoin="round"/>
<path opacity="0.4" d="M1419.22 221.613L1432.88 219.479L1441.41 114.079C1434.34 117.565 1429.73 117.762 1422.64 114.932L1410.9 145.656C1410.9 145.656 1403.22 161.231 1401.3 173.393C1399.38 185.555 1406.42 199.423 1407.27 204.117C1408.13 208.811 1419.22 221.613 1419.22 221.613Z" fill="#AB52F8" stroke="#AB52F8" stroke-width="6" stroke-linecap="round" stroke-linejoin="round"/>
<path opacity="0.4" d="M1400.23 231.214L1387.86 238.042L1249.38 191.102L1260.48 180.647C1260.48 180.647 1348.6 181.074 1362.25 181.074C1375.91 181.074 1385.94 194.943 1389.99 198.783C1394.04 202.624 1400.23 231.214 1400.23 231.214Z" fill="#AB52F8" stroke="#AB52F8" stroke-width="6" stroke-linecap="round" stroke-linejoin="round"/>
<path d="M1376.98 272.153C1376.98 265.345 1378.48 258.603 1381.39 252.313C1384.31 246.022 1388.58 240.307 1393.97 235.492C1399.36 230.678 1405.76 226.859 1412.8 224.253C1419.84 221.648 1427.39 220.307 1435.01 220.307C1442.63 220.307 1450.18 221.648 1457.22 224.253C1464.26 226.859 1470.66 230.678 1476.05 235.492C1481.44 240.307 1485.71 246.022 1488.63 252.313C1491.54 258.603 1493.04 265.345 1493.04 272.153L1435.01 272.153H1376.98Z" fill="#F5EFF8" stroke="#D3CAD8" stroke-width="6"/>
<rect width="113.935" height="9.3879" transform="matrix(-1 0 0 1 1491.76 262.125)" fill="#D3CAD8"/>
<path d="M1491.98 262.765H1435.86M1435.86 262.765V220.093M1435.86 262.765H1377.83" stroke="#D3CAD8" stroke-width="6" stroke-linecap="round" stroke-linejoin="round"/>
<path d="M1441.96 273.059C1441.99 273.09 1442.61 273.838 1443.67 275.173C1444.48 276.185 1445.5 278.285 1446.75 281.013C1447.54 282.721 1447.55 284.713 1447.56 286.717C1447.56 288.005 1446.25 290.58 1445.14 292.279C1444.48 293.284 1442.53 293.704 1439.56 294.255C1438.53 294.445 1437.19 294.346 1435.78 294.175C1432.88 293.824 1430.95 293.067 1429.91 292.488C1428.57 291.746 1427.39 290.672 1426.52 289.776C1425.27 288.502 1424.95 286.889 1424.89 284.858C1424.84 283.389 1426.48 282.227 1428.32 280.939C1429.24 280.296 1431.69 280.341 1433.55 280.594C1436.23 280.959 1437.22 282.88 1437.96 283.906C1438.22 284.259 1438.48 285.154 1438.89 287.382C1439.16 288.87 1439.19 291.14 1439.19 292.634C1439.19 294.797 1438.73 296.14 1438.02 297.847C1436.96 300.403 1435.49 302.258 1434.22 303.436C1433.39 304.108 1432.19 304.93 1431.65 305.314C1431.11 305.699 1431.26 305.622 1431.43 305.543" stroke="#D3CAD8" stroke-width="6" stroke-linecap="round"/>
<path d="M1582.02 272.306H1532.94C1532.94 272.306 1516.44 263.475 1515.59 256.088C1514.73 248.702 1566.01 208.781 1571.77 208.781C1577.53 208.781 1603.4 233.542 1603.99 237.906C1604.58 242.269 1582.02 272.306 1582.02 272.306Z" fill="#C685FE" stroke="#AB52F8" stroke-width="6"/>
<path d="M1540.3 222.142C1535.52 221.198 1536.11 221.021 1531.87 222.719C1531.87 222.719 1510.49 242.69 1508.94 245.198C1507.4 247.707 1499.96 266.1 1499.96 266.1C1499.96 266.1 1522.67 269.338 1525.4 269.493C1528.12 269.648 1552.01 263.803 1552.01 263.803C1555.92 262.421 1556.7 258.916 1558.32 255.019C1563.97 241.507 1545.07 223.086 1540.3 222.142Z" fill="#161616" stroke="black" stroke-width="6" stroke-linecap="round" stroke-linejoin="round"/>
<path d="M1580.09 126.051C1589.82 132.464 1595.46 169.105 1595.46 169.105L1550.86 238.961L1517.58 254.367C1517.58 254.367 1485.1 247.065 1483.65 246.136C1482.21 245.208 1471.28 229.586 1471.28 229.586L1534.01 123.941C1534.01 123.941 1570.37 119.639 1580.09 126.051Z" fill="#C685FE" stroke="#AB52F8" stroke-width="6"/>
<path d="M1500.25 185.62C1493.63 186.289 1494.33 185.82 1489.46 189.73C1489.46 189.73 1469.46 224.355 1468.45 228.249C1467.43 232.143 1465.02 259.153 1465.02 259.153C1465.02 259.153 1496 254.338 1499.63 253.454C1503.26 252.57 1532.16 235.412 1532.16 235.412C1536.71 232.051 1537.46 228.672 1536.91 221.416C1536.35 214.16 1506.87 184.951 1500.25 185.62Z" fill="#161616" stroke="black" stroke-width="6" stroke-linecap="round" stroke-linejoin="round"/>
<path d="M1508.41 64.3604C1525.75 69.1403 1537 102.906 1537 102.906L1527.61 182.98L1508.41 223.655C1508.41 223.655 1456.52 231.933 1454.21 230.896C1451.9 229.859 1420.93 194.906 1420.93 194.906L1423.49 158.702C1423.49 158.702 1457.24 79.4732 1458.91 75.4344C1460.57 71.3956 1491.06 59.5805 1508.41 64.3604Z" fill="#C685FE" stroke="#AB52F8" stroke-width="6"/>
<path d="M1389.24 230.966C1389.24 230.966 1366.47 272.073 1357.51 272.029C1348.55 271.985 1320.3 272.029 1320.3 272.029H1278.69C1273.56 272.029 1236 239.188 1236 223.919C1236 208.651 1251.37 189.486 1251.37 189.486H1292.34H1350.27C1361.34 189.486 1370.93 198.24 1370.93 198.24L1389.24 230.966Z" fill="#C685FE"/>
<path d="M1320.3 272.029C1320.3 272.029 1283.81 272.029 1278.69 272.029M1320.3 272.029C1320.3 272.029 1348.55 271.985 1357.51 272.029C1366.47 272.073 1389.24 230.966 1389.24 230.966L1370.93 198.24C1370.93 198.24 1361.34 189.486 1350.27 189.486M1320.3 272.029H1278.69M1350.27 189.486C1339.19 189.486 1292.34 189.486 1292.34 189.486M1350.27 189.486H1292.34M1292.34 189.486H1251.37C1251.37 189.486 1236 208.651 1236 223.919C1236 239.188 1273.56 272.029 1278.69 272.029" stroke="#AB52F8" stroke-width="6" stroke-linecap="round" stroke-linejoin="round"/>
<path fill-rule="evenodd" clip-rule="evenodd" d="M1391.27 69.9584C1393.4 75.5042 1382.22 122.691 1372.91 128.829C1363.61 134.966 1314.01 126.909 1310.6 120.51C1307.18 114.111 1278.8 55.2409 1278.8 55.2409C1278.8 55.2409 1284.53 13.6478 1294.81 5.32921C1305.08 -2.98938 1356.48 13.6478 1356.48 13.6478C1356.48 13.6478 1389.13 64.4126 1391.27 69.9584Z" fill="#C685FE"/>
<path fill-rule="evenodd" clip-rule="evenodd" d="M1391.27 69.9584C1393.4 75.5042 1382.22 122.691 1372.91 128.829C1363.61 134.966 1314.01 126.909 1310.6 120.51C1307.18 114.111 1278.8 55.2409 1278.8 55.2409C1278.8 55.2409 1284.53 13.6478 1294.81 5.32921C1305.08 -2.98938 1356.48 13.6478 1356.48 13.6478C1356.48 13.6478 1389.13 64.4126 1391.27 69.9584Z" stroke="#AB52F8" stroke-width="6" stroke-linecap="round" stroke-linejoin="round"/>
<path d="M1358.74 65.3973C1365.09 67.3732 1364.49 66.7804 1368.46 71.5225C1368.46 71.5225 1380.63 102.346 1381.16 112.818C1381.69 123.29 1378.18 143.246 1378.18 143.246C1378.18 143.246 1354.57 136.331 1345.45 130.798C1336.32 125.266 1319.06 106.298 1319.06 106.298C1315.29 102.148 1315.49 95.8256 1315.49 92.4666C1315.49 89.1076 1352.39 63.4214 1358.74 65.3973Z" fill="#161616" stroke="black" stroke-width="6" stroke-linecap="round" stroke-linejoin="round"/>
<path d="M1446.43 159.44C1440.13 163.697 1440.59 162.85 1437.81 169.366C1435.03 175.882 1436.08 211.588 1437.52 218.935C1438.97 226.282 1450.81 251.41 1450.81 251.41C1450.81 251.41 1479.38 229.821 1482.55 226.976C1485.72 224.131 1505.51 191.441 1505.51 191.441C1508.27 185.642 1505.86 178.951 1502.71 174.998C1499.57 171.044 1452.73 155.183 1446.43 159.44Z" fill="#161616" stroke="black" stroke-width="6" stroke-linecap="round" stroke-linejoin="round"/>
<path d="M1314.06 270.007H1345.16C1345.16 270.007 1359.29 271.574 1371.99 262.957C1384.69 254.34 1407.58 217.382 1407.58 217.382C1373.35 219.541 1328.13 222.469 1319.93 222.91C1311.74 223.351 1309.55 226.86 1309.77 229.24C1310.19 233.822 1313.88 271.266 1314.06 270.007Z" fill="#161616" stroke="black" stroke-width="6" stroke-linecap="round"/>
<path d="M868.119 274.124C873.449 274.124 1121.92 274.322 1121.92 274.322L1032.05 113.45C1032.05 113.45 1015.63 118.351 1008.38 111.106C1001.14 103.86 980.938 68.3467 980.938 68.3467L899.882 122.613C899.882 122.613 904.358 152.02 891.355 159.478C878.352 166.937 863.217 169.494 854.903 174.821C846.589 180.149 820.041 200.287 826.338 225.751C832.635 251.216 862.79 274.124 868.119 274.124Z" fill="#C685FE"/>
<path opacity="0.4" d="M1076.55 272.411H1120.78L1112.16 237.806L1064.99 230.375L1076.55 272.411Z" fill="#AB52F8" stroke="#AB52F8" stroke-width="6" stroke-linecap="round" stroke-linejoin="round"/>
<path opacity="0.4" d="M1008.22 221.613L1021.88 219.479L1030.41 114.079C1023.34 117.565 1018.73 117.762 1011.64 114.932L999.9 145.656C999.9 145.656 992.219 161.231 990.299 173.393C988.379 185.555 995.42 199.423 996.273 204.117C997.127 208.811 1008.22 221.613 1008.22 221.613Z" fill="#AB52F8" stroke="#AB52F8" stroke-width="6" stroke-linecap="round" stroke-linejoin="round"/>
<path opacity="0.4" d="M989.231 231.214L976.856 238.042L838.385 191.102L849.48 180.647C849.48 180.647 937.598 181.074 951.253 181.074C964.908 181.074 974.936 194.943 978.99 198.783C983.044 202.624 989.231 231.214 989.231 231.214Z" fill="#AB52F8" stroke="#AB52F8" stroke-width="6" stroke-linecap="round" stroke-linejoin="round"/>
<path d="M965.975 272.153C965.975 265.345 967.476 258.603 970.393 252.313C973.309 246.022 977.584 240.307 982.973 235.492C988.362 230.678 994.76 226.859 1001.8 224.253C1008.84 221.648 1016.39 220.307 1024.01 220.307C1031.63 220.307 1039.18 221.648 1046.22 224.253C1053.26 226.859 1059.66 230.678 1065.05 235.492C1070.44 240.307 1074.71 246.022 1077.63 252.313C1080.54 258.603 1082.04 265.345 1082.04 272.153L1024.01 272.153H965.975Z" fill="#F5EFF8" stroke="#D3CAD8" stroke-width="6"/>
<rect width="113.935" height="9.3879" transform="matrix(-1 0 0 1 1080.76 262.125)" fill="#D3CAD8"/>
<path d="M1080.98 262.765H1024.86M1024.86 262.765V220.093M1024.86 262.765H966.829" stroke="#D3CAD8" stroke-width="6" stroke-linecap="round" stroke-linejoin="round"/>
<path d="M1030.96 273.059C1030.99 273.09 1031.61 273.838 1032.67 275.173C1033.48 276.185 1034.5 278.285 1035.75 281.013C1036.54 282.721 1036.55 284.713 1036.56 286.717C1036.56 288.005 1035.25 290.58 1034.14 292.279C1033.48 293.284 1031.53 293.704 1028.56 294.255C1027.53 294.445 1026.19 294.346 1024.78 294.175C1021.88 293.824 1019.95 293.067 1018.91 292.488C1017.57 291.746 1016.39 290.672 1015.52 289.776C1014.27 288.502 1013.95 286.889 1013.89 284.858C1013.84 283.389 1015.48 282.227 1017.32 280.939C1018.24 280.296 1020.69 280.341 1022.55 280.594C1025.23 280.959 1026.22 282.88 1026.96 283.906C1027.22 284.259 1027.48 285.154 1027.89 287.382C1028.16 288.87 1028.19 291.14 1028.19 292.634C1028.19 294.797 1027.73 296.14 1027.02 297.847C1025.96 300.403 1024.49 302.258 1023.22 303.436C1022.39 304.108 1021.19 304.93 1020.65 305.314C1020.11 305.699 1020.26 305.622 1020.43 305.543" stroke="#D3CAD8" stroke-width="6" stroke-linecap="round"/>
<path d="M1171.02 272.306H1121.94C1121.94 272.306 1105.44 263.475 1104.59 256.088C1103.73 248.702 1155.01 208.781 1160.77 208.781C1166.53 208.781 1192.4 233.542 1192.99 237.906C1193.58 242.269 1171.02 272.306 1171.02 272.306Z" fill="#C685FE" stroke="#AB52F8" stroke-width="6"/>
<path d="M1129.3 222.142C1124.52 221.198 1125.11 221.021 1120.87 222.719C1120.87 222.719 1099.49 242.69 1097.94 245.198C1096.4 247.707 1088.96 266.1 1088.96 266.1C1088.96 266.1 1111.67 269.338 1114.4 269.493C1117.12 269.648 1141.01 263.803 1141.01 263.803C1144.92 262.421 1145.7 258.916 1147.32 255.019C1152.97 241.507 1134.07 223.086 1129.3 222.142Z" fill="#161616" stroke="black" stroke-width="6" stroke-linecap="round" stroke-linejoin="round"/>
<path d="M1169.09 126.051C1178.82 132.464 1184.46 169.105 1184.46 169.105L1139.86 238.961L1106.58 254.367C1106.58 254.367 1074.1 247.065 1072.65 246.136C1071.21 245.208 1060.28 229.586 1060.28 229.586L1123.01 123.941C1123.01 123.941 1159.37 119.639 1169.09 126.051Z" fill="#C685FE" stroke="#AB52F8" stroke-width="6"/>
<path d="M1089.25 185.62C1082.63 186.289 1083.33 185.82 1078.46 189.73C1078.46 189.73 1058.46 224.355 1057.45 228.249C1056.43 232.143 1054.02 259.153 1054.02 259.153C1054.02 259.153 1085 254.338 1088.63 253.454C1092.26 252.57 1121.16 235.412 1121.16 235.412C1125.71 232.051 1126.46 228.672 1125.91 221.416C1125.35 214.16 1095.87 184.951 1089.25 185.62Z" fill="#161616" stroke="black" stroke-width="6" stroke-linecap="round" stroke-linejoin="round"/>
<path d="M1097.41 64.3604C1114.75 69.1403 1126 102.906 1126 102.906L1116.61 182.98L1097.41 223.655C1097.41 223.655 1045.52 231.933 1043.21 230.896C1040.9 229.859 1009.93 194.906 1009.93 194.906L1012.49 158.702C1012.49 158.702 1046.24 79.4732 1047.91 75.4344C1049.57 71.3956 1080.06 59.5805 1097.41 64.3604Z" fill="#C685FE" stroke="#AB52F8" stroke-width="6"/>
<path d="M978.239 230.966C978.239 230.966 955.468 272.073 946.509 272.029C937.55 271.985 909.304 272.029 909.304 272.029H867.685C862.563 272.029 825 239.188 825 223.919C825 208.651 840.367 189.486 840.367 189.486H881.345H939.269C950.342 189.486 959.925 198.24 959.925 198.24L978.239 230.966Z" fill="#C685FE"/>
<path d="M909.304 272.029C909.304 272.029 872.808 272.029 867.685 272.029M909.304 272.029C909.304 272.029 937.55 271.985 946.509 272.029C955.468 272.073 978.239 230.966 978.239 230.966L959.925 198.24C959.925 198.24 950.342 189.486 939.269 189.486M909.304 272.029H867.685M939.269 189.486C928.195 189.486 881.345 189.486 881.345 189.486M939.269 189.486H881.345M881.345 189.486H840.367C840.367 189.486 825 208.651 825 223.919C825 239.188 862.563 272.029 867.685 272.029" stroke="#AB52F8" stroke-width="6" stroke-linecap="round" stroke-linejoin="round"/>
<path fill-rule="evenodd" clip-rule="evenodd" d="M996.738 97.9584C998.872 103.504 987.687 150.691 978.385 156.829C969.083 162.966 919.484 154.909 916.069 148.51C912.654 142.111 884.271 83.2409 884.271 83.2409C884.271 83.2409 889.999 41.6478 900.277 33.3292C910.554 25.0106 961.952 41.6478 961.952 41.6478C961.952 41.6478 994.604 92.4126 996.738 97.9584Z" fill="#C685FE"/>
<path fill-rule="evenodd" clip-rule="evenodd" d="M996.738 97.9584C998.872 103.504 987.687 150.691 978.385 156.829C969.083 162.966 919.484 154.909 916.069 148.51C912.654 142.111 884.271 83.2409 884.271 83.2409C884.271 83.2409 889.999 41.6478 900.277 33.3292C910.554 25.0106 961.952 41.6478 961.952 41.6478C961.952 41.6478 994.604 92.4126 996.738 97.9584Z" stroke="#AB52F8" stroke-width="6" stroke-linecap="round" stroke-linejoin="round"/>
<path d="M964.211 93.3973C970.56 95.3732 969.965 94.7804 973.933 99.5225C973.933 99.5225 986.105 130.346 986.631 140.818C987.157 151.29 983.655 171.246 983.655 171.246C983.655 171.246 960.044 164.331 950.918 158.798C941.791 153.266 924.529 134.298 924.529 134.298C920.76 130.148 920.958 123.826 920.958 120.467C920.958 117.108 957.862 91.4214 964.211 93.3973Z" fill="#161616" stroke="black" stroke-width="6" stroke-linecap="round" stroke-linejoin="round"/>
<path d="M1035.43 159.44C1029.13 163.697 1029.59 162.85 1026.81 169.366C1024.03 175.882 1025.08 211.588 1026.52 218.935C1027.97 226.282 1039.81 251.41 1039.81 251.41C1039.81 251.41 1068.38 229.821 1071.55 226.976C1074.72 224.131 1094.51 191.441 1094.51 191.441C1097.27 185.642 1094.86 178.951 1091.71 174.998C1088.57 171.044 1041.73 155.183 1035.43 159.44Z" fill="#161616" stroke="black" stroke-width="6" stroke-linecap="round" stroke-linejoin="round"/>
<path d="M903.057 270.007H934.156C934.156 270.007 948.286 271.574 960.986 262.957C973.686 254.34 996.581 217.382 996.581 217.382C962.353 219.541 917.129 222.469 908.935 222.91C900.741 223.351 898.547 226.86 898.767 229.24C899.191 233.822 902.884 271.266 903.057 270.007Z" fill="#161616" stroke="black" stroke-width="6" stroke-linecap="round"/>
<path d="M457.119 274.124C462.449 274.124 710.925 274.322 710.925 274.322L621.046 113.45C621.046 113.45 604.632 118.351 597.385 111.106C590.137 103.86 582.003 96.5 582.003 96.5L493.503 121C493.503 121 493.358 152.02 480.355 159.478C467.352 166.937 452.217 169.494 443.903 174.821C435.589 180.149 409.041 200.287 415.338 225.751C421.635 251.216 451.79 274.124 457.119 274.124Z" fill="#C685FE"/>
<path opacity="0.4" d="M665.552 272.411H709.778L701.16 237.806L653.985 230.375L665.552 272.411Z" fill="#AB52F8" stroke="#AB52F8" stroke-width="6" stroke-linecap="round" stroke-linejoin="round"/>
<path opacity="0.4" d="M597.222 221.613L610.877 219.479L619.411 114.079C612.336 117.565 607.732 117.762 600.635 114.932L588.9 145.656C588.9 145.656 581.219 161.231 579.299 173.393C577.379 185.555 584.42 199.423 585.273 204.117C586.127 208.811 597.222 221.613 597.222 221.613Z" fill="#AB52F8" stroke="#AB52F8" stroke-width="6" stroke-linecap="round" stroke-linejoin="round"/>
<path opacity="0.4" d="M578.231 231.214L565.856 238.042L427.385 191.102L438.48 180.647C438.48 180.647 526.598 181.074 540.253 181.074C553.908 181.074 563.936 194.943 567.99 198.783C572.044 202.624 578.231 231.214 578.231 231.214Z" fill="#AB52F8" stroke="#AB52F8" stroke-width="6" stroke-linecap="round" stroke-linejoin="round"/>
<path d="M554.975 272.153C554.975 265.345 556.476 258.603 559.393 252.313C562.309 246.022 566.584 240.307 571.973 235.492C577.362 230.678 583.76 226.859 590.801 224.253C597.842 221.648 605.388 220.307 613.01 220.307C620.631 220.307 628.177 221.648 635.218 224.253C642.259 226.859 648.657 230.678 654.046 235.492C659.435 240.307 663.71 246.022 666.626 252.313C669.543 258.603 671.044 265.345 671.044 272.153L613.01 272.153H554.975Z" fill="#F5EFF8" stroke="#D3CAD8" stroke-width="6"/>
<rect width="113.935" height="9.3879" transform="matrix(-1 0 0 1 669.763 262.125)" fill="#D3CAD8"/>
<path d="M669.978 262.765H613.864M613.864 262.765V220.093M613.864 262.765H555.829" stroke="#D3CAD8" stroke-width="6" stroke-linecap="round" stroke-linejoin="round"/>
<path d="M619.962 273.059C619.993 273.09 620.614 273.838 621.673 275.173C622.476 276.185 623.496 278.285 624.754 281.013C625.541 282.721 625.554 284.713 625.558 286.717C625.56 288.005 624.249 290.58 623.136 292.279C622.478 293.284 620.525 293.704 617.558 294.255C616.534 294.445 615.192 294.346 613.779 294.175C610.883 293.824 608.949 293.067 607.906 292.488C606.57 291.746 605.392 290.672 604.517 289.776C603.275 288.502 602.953 286.889 602.89 284.858C602.845 283.389 604.479 282.227 606.321 280.939C607.241 280.296 609.688 280.341 611.548 280.594C614.231 280.959 615.224 282.88 615.965 283.906C616.219 284.259 616.479 285.154 616.889 287.382C617.163 288.87 617.187 291.14 617.188 292.634C617.19 294.797 616.735 296.14 616.023 297.847C614.957 300.403 613.492 302.258 612.223 303.436C611.394 304.108 610.189 304.93 609.648 305.314C609.106 305.699 609.265 305.622 609.429 305.543" stroke="#D3CAD8" stroke-width="6" stroke-linecap="round"/>
<path d="M760.015 272.306H710.942C710.942 272.306 694.44 263.475 693.586 256.088C692.733 248.702 744.013 208.781 749.774 208.781C755.535 208.781 781.399 233.542 781.991 237.906C782.584 242.269 760.015 272.306 760.015 272.306Z" fill="#C685FE" stroke="#AB52F8" stroke-width="6"/>
<path d="M718.296 222.142C713.519 221.198 714.113 221.021 709.872 222.719C709.872 222.719 688.487 242.69 686.945 245.198C685.403 247.707 677.956 266.1 677.956 266.1C677.956 266.1 700.667 269.338 703.395 269.493C706.123 269.648 730.014 263.803 730.014 263.803C733.916 262.421 734.696 258.916 736.324 255.019C741.966 241.507 723.073 223.086 718.296 222.142Z" fill="#161616" stroke="black" stroke-width="6" stroke-linecap="round" stroke-linejoin="round"/>
<path d="M758.094 126.051C767.818 132.464 773.456 169.105 773.456 169.105L728.864 238.961L695.579 254.367C695.579 254.367 663.099 247.065 661.655 246.136C660.21 245.208 649.283 229.586 649.283 229.586L712.008 123.941C712.008 123.941 748.37 119.639 758.094 126.051Z" fill="#C685FE" stroke="#AB52F8" stroke-width="6"/>
<path d="M678.245 185.62C671.625 186.289 672.331 185.82 667.463 189.73C667.463 189.73 647.464 224.355 646.447 228.249C645.43 232.143 643.023 259.153 643.023 259.153C643.023 259.153 674.002 254.338 677.629 253.454C681.257 252.57 710.16 235.412 710.16 235.412C714.71 232.051 715.463 228.672 714.909 221.416C714.355 214.16 684.866 184.951 678.245 185.62Z" fill="#161616" stroke="black" stroke-width="6" stroke-linecap="round" stroke-linejoin="round"/>
<path d="M686.407 64.3604C703.75 69.1403 714.997 102.906 714.997 102.906L705.609 182.98L686.407 223.655C686.407 223.655 634.522 231.933 632.213 230.896C629.903 229.859 598.928 194.906 598.928 194.906L601.489 158.702C601.489 158.702 635.243 79.4732 636.907 75.4344C638.57 71.3956 669.063 59.5805 686.407 64.3604Z" fill="#C685FE" stroke="#AB52F8" stroke-width="6"/>
<path d="M567.239 230.966C567.239 230.966 544.468 272.073 535.509 272.029C526.55 271.985 498.304 272.029 498.304 272.029H456.685C451.563 272.029 414 239.188 414 223.919C414 208.651 429.367 189.486 429.367 189.486H470.345H528.269C539.342 189.486 548.925 198.24 548.925 198.24L567.239 230.966Z" fill="#C685FE"/>
<path d="M498.304 272.029C498.304 272.029 461.808 272.029 456.685 272.029M498.304 272.029C498.304 272.029 526.55 271.985 535.509 272.029C544.468 272.073 567.239 230.966 567.239 230.966L548.925 198.24C548.925 198.24 539.342 189.486 528.269 189.486M498.304 272.029H456.685M528.269 189.486C517.195 189.486 470.345 189.486 470.345 189.486M528.269 189.486H470.345M470.345 189.486H429.367C429.367 189.486 414 208.651 414 223.919C414 239.188 451.563 272.029 456.685 272.029" stroke="#AB52F8" stroke-width="6" stroke-linecap="round" stroke-linejoin="round"/>
<path fill-rule="evenodd" clip-rule="evenodd" d="M603.738 129.958C605.872 135.504 594.687 182.691 585.385 188.829C576.083 194.966 526.484 186.909 523.069 180.51C519.654 174.111 491.271 115.241 491.271 115.241C491.271 115.241 496.999 73.6478 507.277 65.3292C517.554 57.0106 568.952 73.6478 568.952 73.6478C568.952 73.6478 601.604 124.413 603.738 129.958Z" fill="#C685FE"/>
<path fill-rule="evenodd" clip-rule="evenodd" d="M603.738 129.958C605.872 135.504 594.687 182.691 585.385 188.829C576.083 194.966 526.484 186.909 523.069 180.51C519.654 174.111 491.271 115.241 491.271 115.241C491.271 115.241 496.999 73.6478 507.277 65.3292C517.554 57.0106 568.952 73.6478 568.952 73.6478C568.952 73.6478 601.604 124.413 603.738 129.958Z" stroke="#AB52F8" stroke-width="6" stroke-linecap="round" stroke-linejoin="round"/>
<path d="M571.211 125.397C577.56 127.373 576.965 126.78 580.933 131.522C580.933 131.522 593.105 162.346 593.631 172.818C594.157 183.29 590.655 203.246 590.655 203.246C590.655 203.246 567.044 196.331 557.918 190.798C548.791 185.266 531.529 166.298 531.529 166.298C527.76 162.148 527.958 155.826 527.958 152.467C527.958 149.108 564.862 123.421 571.211 125.397Z" fill="#161616" stroke="black" stroke-width="6" stroke-linecap="round" stroke-linejoin="round"/>
<path d="M624.434 159.44C618.134 163.697 618.59 162.85 615.81 169.366C613.029 175.882 614.08 211.588 615.523 218.935C616.966 226.282 628.814 251.41 628.814 251.41C628.814 251.41 657.38 229.821 660.551 226.976C663.723 224.131 683.514 191.441 683.514 191.441C686.273 185.642 683.861 178.951 680.714 174.998C677.566 171.044 630.734 155.183 624.434 159.44Z" fill="#161616" stroke="black" stroke-width="6" stroke-linecap="round" stroke-linejoin="round"/>
<path d="M492.057 270.007H523.156C523.156 270.007 537.286 271.574 549.986 262.957C562.686 254.34 585.581 217.382 585.581 217.382C551.353 219.541 506.129 222.469 497.935 222.91C489.741 223.351 487.547 226.86 487.767 229.24C488.191 233.822 491.884 271.266 492.057 270.007Z" fill="#161616" stroke="black" stroke-width="6" stroke-linecap="round"/>
<path d="M46.1194 274.124C51.4486 274.124 299.925 274.321 299.925 274.321L210.046 113.449C210.046 113.449 194.751 120.695 187.503 113.449C180.255 106.204 170.503 105 170.503 105L88.5029 124.5C88.5029 124.5 82.3582 152.02 69.3548 159.478C56.3515 166.937 41.2166 169.494 32.903 174.821C24.5894 180.149 -1.95868 200.286 4.33832 225.751C10.6353 251.216 40.7902 274.124 46.1194 274.124Z" fill="#C685FE"/>
<path opacity="0.4" d="M254.552 272.411H298.778L290.16 237.806L242.985 230.375L254.552 272.411Z" fill="#AB52F8" stroke="#AB52F8" stroke-width="6" stroke-linecap="round" stroke-linejoin="round"/>
<path opacity="0.4" d="M186.222 221.613L199.877 219.479L208.411 114.079C201.336 117.565 196.732 117.762 189.635 114.932L177.9 145.656C177.9 145.656 170.219 161.231 168.299 173.393C166.379 185.555 173.42 199.423 174.273 204.117C175.127 208.811 186.222 221.613 186.222 221.613Z" fill="#AB52F8" stroke="#AB52F8" stroke-width="6" stroke-linecap="round" stroke-linejoin="round"/>
<path opacity="0.4" d="M167.231 231.214L154.856 238.042L16.3849 191.102L27.4797 180.647C27.4797 180.647 115.598 181.074 129.253 181.074C142.908 181.074 152.936 194.943 156.99 198.783C161.044 202.624 167.231 231.214 167.231 231.214Z" fill="#AB52F8" stroke="#AB52F8" stroke-width="6" stroke-linecap="round" stroke-linejoin="round"/>
<path d="M143.975 272.153C143.975 265.345 145.476 258.603 148.393 252.313C151.309 246.022 155.584 240.307 160.973 235.492C166.362 230.678 172.76 226.859 179.801 224.253C186.842 221.648 194.388 220.307 202.01 220.307C209.631 220.307 217.177 221.648 224.218 224.253C231.259 226.859 237.657 230.678 243.046 235.492C248.435 240.307 252.71 246.022 255.626 252.313C258.543 258.603 260.044 265.345 260.044 272.153L202.01 272.153H143.975Z" fill="#F5EFF8" stroke="#D3CAD8" stroke-width="6"/>
<rect width="113.935" height="9.3879" transform="matrix(-1 0 0 1 258.763 262.125)" fill="#D3CAD8"/>
<path d="M258.978 262.765H202.864M202.864 262.765V220.093M202.864 262.765H144.829" stroke="#D3CAD8" stroke-width="6" stroke-linecap="round" stroke-linejoin="round"/>
<path d="M208.962 273.059C208.993 273.09 209.614 273.838 210.673 275.173C211.476 276.185 212.496 278.285 213.754 281.013C214.541 282.721 214.554 284.713 214.558 286.717C214.56 288.005 213.249 290.58 212.136 292.279C211.478 293.284 209.525 293.704 206.558 294.255C205.534 294.445 204.192 294.346 202.779 294.175C199.883 293.824 197.949 293.067 196.906 292.488C195.57 291.746 194.392 290.672 193.517 289.776C192.275 288.502 191.953 286.889 191.89 284.858C191.845 283.389 193.479 282.227 195.321 280.939C196.241 280.296 198.688 280.341 200.548 280.594C203.231 280.959 204.224 282.88 204.965 283.906C205.219 284.259 205.479 285.154 205.889 287.382C206.163 288.87 206.187 291.14 206.188 292.634C206.19 294.797 205.735 296.14 205.023 297.847C203.957 300.403 202.492 302.258 201.223 303.436C200.394 304.108 199.189 304.93 198.648 305.314C198.106 305.699 198.265 305.622 198.429 305.543" stroke="#D3CAD8" stroke-width="6" stroke-linecap="round"/>
<path d="M349.015 272.306H299.942C299.942 272.306 283.44 263.475 282.586 256.088C281.733 248.702 333.013 208.781 338.774 208.781C344.535 208.781 370.399 233.542 370.991 237.906C371.584 242.269 349.015 272.306 349.015 272.306Z" fill="#C685FE" stroke="#AB52F8" stroke-width="6"/>
<path d="M307.296 222.142C302.519 221.198 303.113 221.021 298.872 222.719C298.872 222.719 277.487 242.69 275.945 245.198C274.403 247.707 266.956 266.1 266.956 266.1C266.956 266.1 289.667 269.338 292.395 269.493C295.123 269.648 319.014 263.803 319.014 263.803C322.916 262.421 323.696 258.916 325.324 255.019C330.966 241.507 312.073 223.086 307.296 222.142Z" fill="#161616" stroke="black" stroke-width="6" stroke-linecap="round" stroke-linejoin="round"/>
<path d="M347.094 126.051C356.818 132.464 362.456 169.105 362.456 169.105L317.864 238.961L284.579 254.367C284.579 254.367 252.099 247.065 250.655 246.136C249.21 245.208 238.283 229.586 238.283 229.586L301.008 123.941C301.008 123.941 337.37 119.639 347.094 126.051Z" fill="#C685FE" stroke="#AB52F8" stroke-width="6"/>
<path d="M267.245 185.62C260.625 186.289 261.331 185.82 256.463 189.73C256.463 189.73 236.464 224.355 235.447 228.249C234.43 232.143 232.023 259.153 232.023 259.153C232.023 259.153 263.002 254.338 266.629 253.454C270.257 252.57 299.16 235.412 299.16 235.412C303.71 232.051 304.463 228.672 303.909 221.416C303.355 214.16 273.866 184.951 267.245 185.62Z" fill="#161616" stroke="black" stroke-width="6" stroke-linecap="round" stroke-linejoin="round"/>
<path d="M275.407 64.3604C292.75 69.1403 303.997 102.906 303.997 102.906L294.609 182.98L275.407 223.655C275.407 223.655 223.522 231.933 221.213 230.896C218.903 229.859 187.928 194.906 187.928 194.906L190.489 158.702C190.489 158.702 224.243 79.4732 225.907 75.4344C227.57 71.3956 258.063 59.5805 275.407 64.3604Z" fill="#C685FE" stroke="#AB52F8" stroke-width="6"/>
<path d="M156.239 230.966C156.239 230.966 133.468 272.073 124.509 272.029C115.55 271.985 87.3038 272.029 87.3038 272.029H45.6855C40.5632 272.029 2.99997 239.188 2.99997 223.919C2.99997 208.651 18.3668 189.486 18.3668 189.486H59.3448H117.269C128.342 189.486 137.925 198.24 137.925 198.24L156.239 230.966Z" fill="#C685FE"/>
<path d="M87.3038 272.029C87.3038 272.029 50.8077 272.029 45.6855 272.029M87.3038 272.029C87.3038 272.029 115.55 271.985 124.509 272.029C133.468 272.073 156.239 230.966 156.239 230.966L137.925 198.24C137.925 198.24 128.342 189.486 117.269 189.486M87.3038 272.029H45.6855M117.269 189.486C106.195 189.486 59.3448 189.486 59.3448 189.486M117.269 189.486H59.3448M59.3448 189.486H18.3668C18.3668 189.486 2.99997 208.651 2.99997 223.919C2.99997 239.188 40.5632 272.029 45.6855 272.029" stroke="#AB52F8" stroke-width="6" stroke-linecap="round" stroke-linejoin="round"/>
<path fill-rule="evenodd" clip-rule="evenodd" d="M200.738 153.958C202.872 159.504 191.687 206.691 182.385 212.829C173.083 218.966 123.484 210.909 120.069 204.51C116.654 198.111 88.2708 139.241 88.2708 139.241C88.2708 139.241 93.9994 97.6478 104.277 89.3292C114.554 81.0106 165.952 97.6478 165.952 97.6478C165.952 97.6478 198.604 148.413 200.738 153.958Z" fill="#C685FE"/>
<path fill-rule="evenodd" clip-rule="evenodd" d="M200.738 153.958C202.872 159.504 191.687 206.691 182.385 212.829C173.083 218.966 123.484 210.909 120.069 204.51C116.654 198.111 88.2708 139.241 88.2708 139.241C88.2708 139.241 93.9994 97.6478 104.277 89.3292C114.554 81.0106 165.952 97.6478 165.952 97.6478C165.952 97.6478 198.604 148.413 200.738 153.958Z" stroke="#AB52F8" stroke-width="6" stroke-linecap="round" stroke-linejoin="round"/>
<path d="M168.211 149.397C174.56 151.373 173.965 150.78 177.933 155.522C177.933 155.522 190.105 186.346 190.631 196.818C191.157 207.29 187.655 227.246 187.655 227.246C187.655 227.246 164.044 220.331 154.918 214.798C145.791 209.266 128.529 190.298 128.529 190.298C124.76 186.148 124.958 179.826 124.958 176.467C124.958 173.108 161.862 147.421 168.211 149.397Z" fill="#161616" stroke="black" stroke-width="6" stroke-linecap="round" stroke-linejoin="round"/>
<path d="M213.434 159.44C207.134 163.697 207.59 162.85 204.81 169.366C202.029 175.882 203.08 211.588 204.523 218.935C205.966 226.282 217.814 251.41 217.814 251.41C217.814 251.41 246.38 229.821 249.551 226.976C252.723 224.131 272.514 191.441 272.514 191.441C275.273 185.642 272.861 178.951 269.714 174.998C266.566 171.044 219.734 155.183 213.434 159.44Z" fill="#161616" stroke="black" stroke-width="6" stroke-linecap="round" stroke-linejoin="round"/>
<path d="M81.0567 270.007H112.156C112.156 270.007 126.286 271.574 138.986 262.957C151.686 254.34 174.581 217.382 174.581 217.382C140.353 219.541 95.1292 222.469 86.935 222.91C78.7408 223.351 76.547 226.86 76.7672 229.24C77.191 233.822 80.8838 271.266 81.0567 270.007Z" fill="#161616" stroke="black" stroke-width="6" stroke-linecap="round"/>
<path d="M457.119 274.124C462.449 274.124 710.925 274.322 710.925 274.322L621.046 113.45C621.046 113.45 604.632 118.351 597.385 111.106C590.137 103.86 582.003 96.5 582.003 96.5L493.503 121C493.503 121 493.358 152.02 480.355 159.478C467.352 166.937 452.217 169.494 443.903 174.821C435.589 180.149 409.041 200.287 415.338 225.751C421.635 251.216 451.79 274.124 457.119 274.124Z" fill="#C685FE"/>
<path opacity="0.4" d="M665.552 272.411H709.778L701.16 237.806L653.985 230.375L665.552 272.411Z" fill="#AB52F8" stroke="#AB52F8" stroke-width="6" stroke-linecap="round" stroke-linejoin="round"/>
<path opacity="0.4" d="M597.222 221.613L610.877 219.479L619.411 114.079C612.336 117.565 607.732 117.762 600.635 114.932L588.9 145.656C588.9 145.656 581.219 161.231 579.299 173.393C577.379 185.555 584.42 199.423 585.273 204.117C586.127 208.811 597.222 221.613 597.222 221.613Z" fill="#AB52F8" stroke="#AB52F8" stroke-width="6" stroke-linecap="round" stroke-linejoin="round"/>
<path opacity="0.4" d="M578.231 231.214L565.856 238.042L427.385 191.102L438.48 180.647C438.48 180.647 526.598 181.074 540.253 181.074C553.908 181.074 563.936 194.943 567.99 198.783C572.044 202.624 578.231 231.214 578.231 231.214Z" fill="#AB52F8" stroke="#AB52F8" stroke-width="6" stroke-linecap="round" stroke-linejoin="round"/>
<path d="M554.975 272.153C554.975 265.345 556.476 258.603 559.393 252.313C562.309 246.022 566.584 240.307 571.973 235.492C577.362 230.678 583.76 226.859 590.801 224.253C597.842 221.648 605.388 220.307 613.01 220.307C620.631 220.307 628.177 221.648 635.218 224.253C642.259 226.859 648.657 230.678 654.046 235.492C659.435 240.307 663.71 246.022 666.626 252.313C669.543 258.603 671.044 265.345 671.044 272.153L613.01 272.153H554.975Z" fill="#F5EFF8" stroke="#D3CAD8" stroke-width="6"/>
<rect width="113.935" height="9.3879" transform="matrix(-1 0 0 1 669.763 262.125)" fill="#D3CAD8"/>
<path d="M669.978 262.765H613.864M613.864 262.765V220.093M613.864 262.765H555.829" stroke="#D3CAD8" stroke-width="6" stroke-linecap="round" stroke-linejoin="round"/>
<path d="M619.962 273.059C619.993 273.09 620.614 273.838 621.673 275.173C622.476 276.185 623.496 278.285 624.754 281.013C625.541 282.721 625.554 284.713 625.558 286.717C625.56 288.005 624.249 290.58 623.136 292.279C622.478 293.284 620.525 293.704 617.558 294.255C616.534 294.445 615.192 294.346 613.779 294.175C610.883 293.824 608.949 293.067 607.906 292.488C606.57 291.746 605.392 290.672 604.517 289.776C603.275 288.502 602.953 286.889 602.89 284.858C602.845 283.389 604.479 282.227 606.321 280.939C607.241 280.296 609.688 280.341 611.548 280.594C614.231 280.959 615.224 282.88 615.965 283.906C616.219 284.259 616.479 285.154 616.889 287.382C617.163 288.87 617.187 291.14 617.188 292.634C617.19 294.797 616.735 296.14 616.023 297.847C614.957 300.403 613.492 302.258 612.223 303.436C611.394 304.108 610.189 304.93 609.648 305.314C609.106 305.699 609.265 305.622 609.429 305.543" stroke="#D3CAD8" stroke-width="6" stroke-linecap="round"/>
<path d="M760.015 272.306H710.942C710.942 272.306 694.44 263.475 693.586 256.088C692.733 248.702 744.013 208.781 749.774 208.781C755.535 208.781 781.399 233.542 781.991 237.906C782.584 242.269 760.015 272.306 760.015 272.306Z" fill="#C685FE" stroke="#AB52F8" stroke-width="6"/>
<path d="M718.296 222.142C713.519 221.198 714.113 221.021 709.872 222.719C709.872 222.719 688.487 242.69 686.945 245.198C685.403 247.707 677.956 266.1 677.956 266.1C677.956 266.1 700.667 269.338 703.395 269.493C706.123 269.648 730.014 263.803 730.014 263.803C733.916 262.421 734.696 258.916 736.324 255.019C741.966 241.507 723.073 223.086 718.296 222.142Z" fill="#161616" stroke="black" stroke-width="6" stroke-linecap="round" stroke-linejoin="round"/>
<path d="M758.094 126.051C767.818 132.464 773.456 169.105 773.456 169.105L728.864 238.961L695.579 254.367C695.579 254.367 663.099 247.065 661.655 246.136C660.21 245.208 649.283 229.586 649.283 229.586L712.008 123.941C712.008 123.941 748.37 119.639 758.094 126.051Z" fill="#C685FE" stroke="#AB52F8" stroke-width="6"/>
<path d="M678.245 185.62C671.625 186.289 672.331 185.82 667.463 189.73C667.463 189.73 647.464 224.355 646.447 228.249C645.43 232.143 643.023 259.153 643.023 259.153C643.023 259.153 674.002 254.338 677.629 253.454C681.257 252.57 710.16 235.412 710.16 235.412C714.71 232.051 715.463 228.672 714.909 221.416C714.355 214.16 684.866 184.951 678.245 185.62Z" fill="#161616" stroke="black" stroke-width="6" stroke-linecap="round" stroke-linejoin="round"/>
<path d="M686.407 64.3604C703.75 69.1403 714.997 102.906 714.997 102.906L705.609 182.98L686.407 223.655C686.407 223.655 634.522 231.933 632.213 230.896C629.903 229.859 598.928 194.906 598.928 194.906L601.489 158.702C601.489 158.702 635.243 79.4732 636.907 75.4344C638.57 71.3956 669.063 59.5805 686.407 64.3604Z" fill="#C685FE" stroke="#AB52F8" stroke-width="6"/>
<path d="M567.239 230.966C567.239 230.966 544.468 272.073 535.509 272.029C526.55 271.985 498.304 272.029 498.304 272.029H456.685C451.563 272.029 414 239.188 414 223.919C414 208.651 429.367 189.486 429.367 189.486H470.345H528.269C539.342 189.486 548.925 198.24 548.925 198.24L567.239 230.966Z" fill="#C685FE"/>
<path d="M498.304 272.029C498.304 272.029 461.808 272.029 456.685 272.029M498.304 272.029C498.304 272.029 526.55 271.985 535.509 272.029C544.468 272.073 567.239 230.966 567.239 230.966L548.925 198.24C548.925 198.24 539.342 189.486 528.269 189.486M498.304 272.029H456.685M528.269 189.486C517.195 189.486 470.345 189.486 470.345 189.486M528.269 189.486H470.345M470.345 189.486H429.367C429.367 189.486 414 208.651 414 223.919C414 239.188 451.563 272.029 456.685 272.029" stroke="#AB52F8" stroke-width="6" stroke-linecap="round" stroke-linejoin="round"/>
<path fill-rule="evenodd" clip-rule="evenodd" d="M603.738 129.958C605.872 135.504 594.687 182.691 585.385 188.829C576.083 194.966 526.484 186.909 523.069 180.51C519.654 174.111 491.271 115.241 491.271 115.241C491.271 115.241 496.999 73.6478 507.277 65.3292C517.554 57.0106 568.952 73.6478 568.952 73.6478C568.952 73.6478 601.604 124.413 603.738 129.958Z" fill="#C685FE"/>
<path fill-rule="evenodd" clip-rule="evenodd" d="M603.738 129.958C605.872 135.504 594.687 182.691 585.385 188.829C576.083 194.966 526.484 186.909 523.069 180.51C519.654 174.111 491.271 115.241 491.271 115.241C491.271 115.241 496.999 73.6478 507.277 65.3292C517.554 57.0106 568.952 73.6478 568.952 73.6478C568.952 73.6478 601.604 124.413 603.738 129.958Z" stroke="#AB52F8" stroke-width="6" stroke-linecap="round" stroke-linejoin="round"/>
<path d="M571.211 125.397C577.56 127.373 576.965 126.78 580.933 131.522C580.933 131.522 593.105 162.346 593.631 172.818C594.157 183.29 590.655 203.246 590.655 203.246C590.655 203.246 567.044 196.331 557.918 190.798C548.791 185.266 531.529 166.298 531.529 166.298C527.76 162.148 527.958 155.826 527.958 152.467C527.958 149.108 564.862 123.421 571.211 125.397Z" fill="#161616" stroke="black" stroke-width="6" stroke-linecap="round" stroke-linejoin="round"/>
<path d="M624.434 159.44C618.134 163.697 618.59 162.85 615.81 169.366C613.029 175.882 614.08 211.588 615.523 218.935C616.966 226.282 628.814 251.41 628.814 251.41C628.814 251.41 657.38 229.821 660.551 226.976C663.723 224.131 683.514 191.441 683.514 191.441C686.273 185.642 683.861 178.951 680.714 174.998C677.566 171.044 630.734 155.183 624.434 159.44Z" fill="#161616" stroke="black" stroke-width="6" stroke-linecap="round" stroke-linejoin="round"/>
<path d="M492.057 270.007H523.156C523.156 270.007 537.286 271.574 549.986 262.957C562.686 254.34 585.581 217.382 585.581 217.382C551.353 219.541 506.129 222.469 497.935 222.91C489.741 223.351 487.547 226.86 487.767 229.24C488.191 233.822 491.884 271.266 492.057 270.007Z" fill="#161616" stroke="black" stroke-width="6" stroke-linecap="round"/>
</svg>
