<svg width="77" height="65" viewBox="0 0 77 65" fill="none" xmlns="http://www.w3.org/2000/svg">
<path d="M38.8218 63.4997C24.0218 63.4342 19.5174 53.0246 17.6514 52.108C15.7853 51.1915 8.77138 51.9116 8.38529 44.6445C7.99921 37.3774 13.2757 38.2285 12.8896 37.3774C12.5035 36.5263 13.3591 35.6897 13.5975 34.8895C13.8358 34.0894 1.50009 24.6108 1.50009 24.6108C1.50009 24.6108 12.6964 24.8073 13.5975 22.5813C14.4986 20.3553 11.3453 8.7672 11.3453 8.7672C11.3453 8.7672 19.5633 16.4057 23.2496 15.2487C28.7079 13.5356 28.8479 1.50009 28.8479 1.50009C28.8479 1.50009 34.673 9.4241 37.4366 12.3865C38.0304 13.023 38.5147 13.4304 38.8218 13.481C39.162 13.5371 39.7624 13.1097 40.5097 12.3865C43.5764 9.41873 49.1175 1.46921 49.3104 1.50009C49.5219 1.53395 51.6604 11.478 53.839 14.463C54.132 14.8644 54.4258 15.14 54.7156 15.2487C57.103 16.1436 67.0028 9.03009 67.3217 8.77358C67.3241 8.77026 67.3261 8.76812 67.3278 8.7672C67.3316 8.76516 67.3295 8.76737 67.3217 8.77358C67.1008 9.0838 63.9666 19.7683 65.9121 22.5813C65.5887 23.8416 75.2849 24.6245 75.4966 24.6117C75.4985 24.6108 75.4996 24.6105 75.5 24.6108C75.5005 24.6113 75.4994 24.6116 75.4966 24.6117C75.2745 24.7154 64.5378 32.8086 65.9121 34.0384C67.2982 35.2788 67.1991 36.5917 67.3278 37.3774C67.4565 38.163 70.5452 37.8357 70.2234 44.6445C69.9017 51.4533 62.1156 51.3224 60.8287 52.108C59.5417 52.8936 53.6217 63.5652 38.8218 63.4997Z" fill="#8029CA"/>
<path d="M17.6514 52.108L16.9901 53.4544H16.9901L17.6514 52.108ZM38.8218 63.4997L38.8284 61.9997L38.8218 63.4997ZM60.8287 52.108L61.6102 53.3883V53.3883L60.8287 52.108ZM70.2234 44.6445L68.7251 44.5737L70.2234 44.6445ZM67.3278 37.3774L68.8081 37.1349V37.1349L67.3278 37.3774ZM75.5 24.6108L76.457 23.4558L76.4515 23.4513L75.5 24.6108ZM65.9121 22.5813L67.365 22.9542L67.5352 22.2911L67.1458 21.728L65.9121 22.5813ZM67.3278 8.7672L66.6118 7.44915L66.6103 7.44993L67.3278 8.7672ZM54.7156 15.2487L55.2421 13.8441L55.2421 13.8441L54.7156 15.2487ZM28.8479 1.50009L30.0564 0.61164C29.6744 0.0918849 29.0028 -0.125377 28.3886 0.0721126C27.7745 0.269602 27.3555 0.837609 27.348 1.48265L28.8479 1.50009ZM23.2496 15.2487L22.8004 13.8175L23.2496 15.2487ZM11.3453 8.7672L12.3665 7.66851C11.8759 7.21249 11.1424 7.13702 10.5692 7.48359C9.996 7.83015 9.72205 8.51474 9.89792 9.16105L11.3453 8.7672ZM1.50009 24.6108L1.5264 23.1111C0.879234 23.0997 0.297773 23.5048 0.0841442 24.1158C-0.129485 24.7268 0.072908 25.4059 0.58616 25.8002L1.50009 24.6108ZM12.8896 37.3774L11.5236 37.9971L11.5236 37.9971L12.8896 37.3774ZM8.38529 44.6445L9.88318 44.5649L8.38529 44.6445ZM26.478 13.4162C25.8999 12.8229 24.9503 12.8105 24.3569 13.3885C23.7635 13.9666 23.7511 14.9163 24.3292 15.5097L25.4036 14.463L26.478 13.4162ZM38.8218 13.481L38.5779 14.961L38.5779 14.961L38.8218 13.481ZM49.3104 1.50009L49.0733 2.98123L49.0733 2.98123L49.3104 1.50009ZM17.6514 52.108L16.9901 53.4544C16.9241 53.422 17.0217 53.4636 17.368 53.8538C17.676 54.2007 18.028 54.6403 18.5101 55.2223C19.4439 56.3497 20.7103 57.8185 22.4155 59.2664C25.858 62.1896 31.017 64.9652 38.8151 64.9997L38.8218 63.4997L38.8284 61.9997C31.8265 61.9687 27.3334 59.5067 24.3573 56.9796C22.8531 55.7024 21.7185 54.3928 20.8204 53.3086C20.3866 52.7848 19.9649 52.2602 19.6115 51.8621C19.2965 51.5073 18.8452 51.0232 18.3126 50.7617L17.6514 52.108ZM38.8218 63.4997L38.8151 64.9997C46.6139 65.0342 52.1154 62.2287 55.8225 59.3C57.667 57.8428 59.058 56.363 60.0593 55.2141C60.5398 54.6626 60.9814 54.1269 61.2603 53.801C61.413 53.6226 61.5249 53.4969 61.6087 53.4106C61.7119 53.3042 61.7009 53.3329 61.6102 53.3883L60.8287 52.108L60.0471 50.8277C59.7955 50.9813 59.5875 51.1855 59.4554 51.3217C59.3038 51.478 59.1422 51.6621 58.9809 51.8505C58.6319 52.2583 58.2842 52.6847 57.7975 53.2431C56.8643 54.314 55.6091 55.6454 53.9627 56.946C50.688 59.5331 45.8295 62.0307 38.8284 61.9997L38.8218 63.4997ZM60.8287 52.108L61.6102 53.3883C61.5524 53.4236 61.6047 53.3839 61.9554 53.2955C62.2658 53.2172 62.6319 53.1411 63.1213 53.0318C64.0521 52.8239 65.2691 52.53 66.4768 52.0146C67.6875 51.4979 68.9587 50.7301 69.9546 49.5311C70.9686 48.3103 71.6268 46.7261 71.7218 44.7153L70.2234 44.6445L68.7251 44.5737C68.6593 45.9673 68.2235 46.92 67.6469 47.6142C67.0522 48.3302 66.2362 48.8555 65.2992 49.2554C64.3593 49.6565 63.3684 49.9027 62.4673 50.104C62.0407 50.1993 61.5849 50.295 61.2219 50.3866C60.8992 50.4679 60.4267 50.596 60.0471 50.8277L60.8287 52.108ZM70.2234 44.6445L71.7218 44.7153C71.8924 41.1053 71.1755 39.0425 70.0805 37.7727C69.5482 37.1553 68.9938 36.811 68.6658 36.6092C68.47 36.4888 68.4533 36.4758 68.4585 36.4801C68.4792 36.4973 68.7387 36.7112 68.8081 37.1349L67.3278 37.3774L65.8475 37.6199C65.9491 38.24 66.3333 38.6155 66.5463 38.7917C66.7438 38.9551 66.987 39.0987 67.0938 39.1644C67.371 39.3349 67.5929 39.4817 67.8086 39.7318C68.2096 40.1969 68.8763 41.3749 68.7251 44.5737L70.2234 44.6445ZM67.3278 37.3774L68.8081 37.1349C68.7254 36.6304 68.7939 34.6043 66.9124 32.9206L65.9121 34.0384L64.9119 35.1562C65.8026 35.9533 65.6728 36.5531 65.8475 37.6199L67.3278 37.3774ZM65.9121 34.0384L66.9124 32.9206C67.2125 33.1892 67.2961 33.5404 67.2904 33.7688C67.286 33.9413 67.2356 34.0109 67.2731 33.9326C67.345 33.7823 67.5426 33.4888 67.9275 33.0491C68.6723 32.198 69.8269 31.1236 71.0851 30.0389C72.331 28.9648 73.6306 27.9211 74.6344 27.1383C75.1358 26.7474 75.5601 26.424 75.8634 26.197C76.0156 26.0831 76.134 25.996 76.2147 25.9378C76.2558 25.9081 76.2816 25.89 76.2947 25.881C76.3643 25.8332 76.2632 25.9092 76.1312 25.9709L75.4966 24.6117L74.862 23.2526C74.7554 23.3024 74.6706 23.3586 74.6686 23.3599C74.6415 23.3772 74.6162 23.3943 74.5966 23.4078C74.5561 23.4356 74.5092 23.469 74.4598 23.5046C74.3595 23.5769 74.2258 23.6755 74.0658 23.7952C73.7448 24.0355 73.3046 24.371 72.7896 24.7726C71.7608 25.5749 70.4205 26.6508 69.1262 27.7667C67.8443 28.8719 66.5586 30.0579 65.6699 31.0734C65.238 31.567 64.8205 32.1083 64.5675 32.6365C64.4425 32.8974 64.3021 33.2671 64.2913 33.6932C64.2792 34.1754 64.44 34.734 64.9119 35.1562L65.9121 34.0384ZM75.4966 24.6117L76.13 25.9714C76.104 25.9835 76.0117 26.0265 75.8857 26.0601C75.826 26.076 75.6903 26.109 75.5138 26.1106C75.3691 26.112 74.9461 26.0968 74.5484 25.7704L75.5 24.6108L76.4515 23.4513C76.0536 23.1247 75.6304 23.1094 75.4853 23.1108C75.3084 23.1125 75.1723 23.1455 75.112 23.1616C74.9849 23.1955 74.891 23.239 74.8632 23.252L75.4966 24.6117ZM75.5 24.6108L74.5429 25.7659C74.4466 25.6861 74.1806 25.4487 74.0589 25.0269C73.9036 24.4887 74.0724 23.9891 74.3364 23.6646C74.5449 23.4083 74.7815 23.291 74.8674 23.2511C74.9765 23.2004 75.0687 23.1737 75.1173 23.1609C75.2156 23.135 75.2945 23.1252 75.3225 23.1219C75.3596 23.1175 75.3894 23.1155 75.4061 23.1145L75.4966 24.6117L75.5871 26.109C75.6052 26.1079 75.6361 26.1057 75.6742 26.1012C75.7032 26.0978 75.7829 26.0879 75.8817 26.0619C75.9307 26.049 76.023 26.0222 76.1323 25.9714C76.2184 25.9314 76.4551 25.814 76.6637 25.5577C76.9278 25.233 77.0966 24.7334 76.9413 24.1951C76.8195 23.7732 76.5534 23.5357 76.457 23.4558L75.5 24.6108ZM75.4966 24.6117L75.4065 23.1144C75.5127 23.108 75.5881 23.1171 75.4474 23.108C75.3746 23.1033 75.2676 23.0955 75.1297 23.0845C74.8546 23.0627 74.4688 23.029 74.0102 22.9842C73.0913 22.8943 71.8945 22.7609 70.7203 22.5896C69.5303 22.416 68.4247 22.2119 67.6598 21.9909C67.26 21.8754 67.0607 21.7849 66.9991 21.7476C66.9647 21.7268 67.0714 21.7807 67.1866 21.9427C67.3314 22.1463 67.4772 22.5171 67.365 22.9542L65.9121 22.5813L64.4592 22.2084C64.3066 22.8029 64.4902 23.3275 64.7417 23.6811C64.9634 23.993 65.2455 24.193 65.4457 24.3141C65.8533 24.5608 66.3601 24.7381 66.8272 24.8731C67.7959 25.1529 69.0669 25.3801 70.2871 25.5582C71.5229 25.7385 72.7697 25.8772 73.7183 25.9699C74.1934 26.0164 74.5973 26.0517 74.8918 26.0751C75.0385 26.0868 75.1613 26.0958 75.2537 26.1017C75.2781 26.1033 75.454 26.117 75.5867 26.109L75.4966 24.6117ZM65.9121 22.5813L67.1458 21.728C67.072 21.6213 66.9619 21.3801 66.8818 20.9301C66.8042 20.4939 66.7695 19.9475 66.7803 19.3061C66.802 18.022 67.0025 16.5046 67.2794 15.0125C67.5545 13.5293 67.8964 12.1168 68.1827 11.0578C68.3258 10.5285 68.4531 10.0948 68.5487 9.79097C68.597 9.6376 68.6342 9.52695 68.6592 9.45774C68.6721 9.42191 68.6773 9.40958 68.6757 9.4134C68.675 9.41505 68.6679 9.43202 68.6552 9.45792C68.649 9.47042 68.611 9.54901 68.5436 9.64364L67.3217 8.77358L66.0998 7.90353C65.983 8.06767 65.9162 8.2363 65.9098 8.2516C65.8835 8.31423 65.8588 8.37984 65.8371 8.43999C65.7928 8.56275 65.7419 8.71621 65.6872 8.89017C65.5767 9.24098 65.4381 9.71492 65.2867 10.2748C64.984 11.3944 64.6225 12.887 64.3297 14.4653C64.0385 16.0347 63.8064 17.7352 63.7808 19.2554C63.7679 20.016 63.8058 20.7683 63.9283 21.456C64.0483 22.13 64.2659 22.838 64.6785 23.4345L65.9121 22.5813ZM67.3217 8.77358L68.5442 9.64279C68.5182 9.67932 68.4736 9.73865 68.41 9.80525C68.3546 9.86328 68.2331 9.9822 68.0453 10.0845L67.3278 8.7672L66.6103 7.44993C66.286 7.62658 66.1176 7.8786 66.0992 7.90438L67.3217 8.77358ZM67.3278 8.7672L68.0439 10.0853C68.0278 10.094 67.982 10.1187 67.9206 10.145C67.8911 10.1577 67.8306 10.1827 67.7513 10.2059C67.7091 10.2183 67.4938 10.2839 67.2124 10.2619C67.0616 10.2501 66.7729 10.2046 66.4781 10.0014C66.1391 9.76762 65.9265 9.4172 65.856 9.04678C65.7953 8.72739 65.8532 8.47021 65.8908 8.3426C65.9316 8.20416 65.9841 8.10037 66.0161 8.0423C66.1195 7.85478 66.2436 7.73209 66.2452 7.73036C66.3003 7.67275 66.3485 7.63232 66.3518 7.62947C66.3663 7.6171 66.3774 7.60813 66.3817 7.60466L67.3217 8.77358L68.2617 9.9425C68.2699 9.93592 68.2842 9.92435 68.3011 9.90989C68.3069 9.90494 68.3568 9.86291 68.413 9.80423C68.4151 9.80196 68.5395 9.67886 68.6431 9.49107C68.6751 9.43293 68.7276 9.32908 68.7685 9.19058C68.8061 9.06292 68.864 8.8057 68.8032 8.48627C68.7328 8.11581 68.5201 7.76536 68.1811 7.5316C67.8863 7.32832 67.5975 7.28285 67.4467 7.27104C67.1652 7.249 66.9497 7.31465 66.9073 7.32709C66.8278 7.35039 66.7671 7.37545 66.7373 7.38826C66.6754 7.41483 66.6288 7.43989 66.6118 7.44915L67.3278 8.7672ZM67.3217 8.77358L66.3816 7.60476C66.3847 7.60225 66.238 7.71179 65.9177 7.93934C65.6194 8.15123 65.2051 8.44117 64.7081 8.78013C63.7125 9.45911 62.3948 10.3282 61.0191 11.1588C59.6344 11.9948 58.2312 12.7673 57.0556 13.2723C56.4654 13.5259 55.9789 13.6916 55.609 13.7726C55.1901 13.8642 55.1262 13.8006 55.2421 13.8441L54.7156 15.2487L54.1891 16.6533C54.902 16.9204 55.6696 16.8303 56.2503 16.7032C56.88 16.5654 57.5611 16.3203 58.2397 16.0288C59.6017 15.4437 61.1411 14.5895 62.5697 13.727C65.4184 12.007 68.0334 10.1262 68.2619 9.9424L67.3217 8.77358ZM28.8479 1.50009C27.348 1.48265 27.348 1.48236 27.348 1.48212C27.348 1.4821 27.348 1.48191 27.348 1.48187C27.348 1.48179 27.348 1.48189 27.348 1.48218C27.348 1.48274 27.3479 1.48402 27.3479 1.48601C27.3479 1.48998 27.3477 1.49678 27.3476 1.50632C27.3472 1.52541 27.3466 1.55544 27.3455 1.59576C27.3433 1.6764 27.3395 1.79804 27.3326 1.95528C27.3189 2.26997 27.2933 2.72592 27.2461 3.28007C27.1513 4.39282 26.971 5.88025 26.6314 7.40612C26.289 8.94472 25.8006 10.448 25.124 11.6348C24.4441 12.8272 23.6656 13.546 22.8004 13.8175L23.2496 15.2487L23.6988 16.6799C25.5628 16.0948 26.8486 14.6667 27.7301 13.1207C28.6149 11.569 29.1849 9.74222 29.5598 8.05782C29.9375 6.36067 30.1333 4.73217 30.2353 3.53473C30.2865 2.93379 30.3145 2.43608 30.3298 2.08589C30.3374 1.91069 30.3419 1.77208 30.3444 1.67559C30.3457 1.62733 30.3465 1.58958 30.347 1.56301C30.3473 1.54973 30.3474 1.53924 30.3476 1.53163C30.3476 1.52783 30.3477 1.52474 30.3477 1.52239C30.3477 1.52121 30.3477 1.52022 30.3477 1.51941C30.3477 1.519 30.3477 1.51853 30.3477 1.51833C30.3478 1.51791 30.3478 1.51753 28.8479 1.50009ZM23.2496 15.2487L22.8004 13.8175C22.4218 13.9363 21.652 13.8721 20.4262 13.3457C19.2731 12.8506 17.9963 12.0698 16.7767 11.2139C15.5666 10.3648 14.4604 9.4758 13.6537 8.79577C13.2516 8.45673 12.9265 8.17195 12.7034 7.97315C12.5919 7.8738 12.506 7.79607 12.4487 7.74394C12.4201 7.71788 12.3987 7.69823 12.3849 7.68549C12.378 7.67912 12.3729 7.67447 12.3699 7.67162C12.3683 7.6702 12.3673 7.66922 12.3667 7.6687C12.3664 7.66844 12.3663 7.66829 12.3662 7.66826C12.3662 7.66824 12.3663 7.66831 12.3663 7.6683C12.3664 7.66839 12.3665 7.66851 11.3453 8.7672C10.3241 9.8659 10.3243 9.86608 10.3245 9.86628C10.3246 9.86639 10.3249 9.86663 10.3251 9.86685C10.3256 9.86728 10.3262 9.86783 10.3269 9.86849C10.3283 9.86982 10.3302 9.87161 10.3327 9.87385C10.3375 9.87833 10.3443 9.88463 10.3531 9.89268C10.3705 9.90877 10.3957 9.93187 10.4282 9.96147C10.4932 10.0207 10.5874 10.1059 10.7078 10.2132C10.9485 10.4276 11.2943 10.7305 11.7202 11.0895C12.5695 11.8055 13.7483 12.7538 15.0535 13.6697C16.3492 14.5789 17.818 15.4907 19.2426 16.1024C20.5944 16.6828 22.2342 17.1395 23.6988 16.6799L23.2496 15.2487ZM11.3453 8.7672C9.89792 9.16105 9.89791 9.16101 9.89791 9.16102C9.89793 9.16108 9.89794 9.16112 9.89797 9.16124C9.89803 9.16148 9.89815 9.16189 9.89831 9.16248C9.89862 9.16365 9.89913 9.16552 9.89982 9.16807C9.90121 9.17318 9.90333 9.18103 9.90617 9.19154C9.91185 9.21257 9.92038 9.24424 9.93154 9.28592C9.95387 9.36929 9.98672 9.49266 10.0283 9.65094C10.1116 9.96755 10.2298 10.4235 10.3691 10.978C10.6479 12.0882 11.0093 13.5875 11.3421 15.1517C11.6763 16.722 11.9755 18.3291 12.1365 19.6635C12.2172 20.3322 12.2594 20.902 12.2594 21.3485C12.2594 21.8415 12.2057 22.0219 12.2071 22.0184L13.5975 22.5813L14.9879 23.1441C15.2145 22.5842 15.2594 21.9155 15.2594 21.3486C15.2594 20.7354 15.2031 20.0347 15.1149 19.304C14.9382 17.8395 14.618 16.1322 14.2764 14.5273C13.9336 12.9162 13.563 11.3794 13.2787 10.2473C13.1364 9.6806 13.0154 9.21382 12.9297 8.88802C12.8869 8.72508 12.8528 8.59732 12.8294 8.50985C12.8177 8.46611 12.8086 8.43245 12.8024 8.40948C12.7993 8.398 12.797 8.3892 12.7953 8.38315C12.7945 8.38013 12.7939 8.37779 12.7934 8.37616C12.7932 8.37534 12.793 8.37469 12.7929 8.37423C12.7928 8.37399 12.7928 8.37378 12.7927 8.37366C12.7927 8.37348 12.7927 8.37335 11.3453 8.7672ZM13.5975 22.5813L12.2071 22.0184C12.2919 21.8089 12.3951 21.8348 12.1173 21.9818C11.8754 22.1098 11.4941 22.2493 10.9627 22.3824C9.90734 22.6467 8.52077 22.8231 7.09318 22.9354C5.67944 23.0467 4.28551 23.0908 3.24051 23.1069C2.71932 23.1149 2.2879 23.1159 1.98793 23.1149C1.838 23.1144 1.72108 23.1134 1.64238 23.1126C1.60304 23.1121 1.57326 23.1118 1.55371 23.1115C1.54394 23.1113 1.53672 23.1112 1.53214 23.1111C1.52985 23.1111 1.52822 23.1111 1.52726 23.1111C1.52678 23.1111 1.52647 23.1111 1.52633 23.1111C1.52625 23.1111 1.52627 23.1111 1.52624 23.111C1.5263 23.1111 1.5264 23.1111 1.50009 24.6108C1.47378 26.1106 1.47397 26.1106 1.4742 26.1106C1.47433 26.1106 1.47461 26.1106 1.47488 26.1106C1.47542 26.1106 1.47612 26.1106 1.477 26.1106C1.47875 26.1107 1.48118 26.1107 1.48428 26.1108C1.49047 26.1109 1.49932 26.111 1.51076 26.1112C1.53363 26.1115 1.56684 26.1119 1.60972 26.1124C1.69547 26.1133 1.81997 26.1144 1.97795 26.1149C2.2938 26.116 2.74413 26.1149 3.28666 26.1066C4.36912 26.0899 5.83058 26.0441 7.32854 25.9262C8.81265 25.8094 10.3941 25.6175 11.6915 25.2925C12.3365 25.131 12.9777 24.9207 13.5206 24.6334C14.0275 24.3651 14.6778 23.9102 14.9879 23.1441L13.5975 22.5813ZM1.50009 24.6108C0.58616 25.8002 0.586178 25.8003 0.586243 25.8003C0.586327 25.8004 0.586439 25.8005 0.586606 25.8006C0.586942 25.8008 0.587465 25.8012 0.588172 25.8018C0.589587 25.8029 0.591743 25.8045 0.594627 25.8068C0.600395 25.8112 0.609078 25.8179 0.620579 25.8267C0.643582 25.8444 0.67786 25.8708 0.722653 25.9054C0.812243 25.9744 0.943883 26.0761 1.1115 26.2058C1.44676 26.4653 1.92579 26.8372 2.50002 27.2861C3.64909 28.1844 5.17662 29.3887 6.695 30.6165C8.21745 31.8476 9.71438 33.0891 10.8096 34.0656C11.3618 34.5578 11.7838 34.958 12.0513 35.2436C12.1161 35.3127 12.1663 35.3694 12.2038 35.414C12.2223 35.4361 12.2362 35.4536 12.2463 35.4667C12.2513 35.4731 12.255 35.4781 12.2576 35.4816C12.2601 35.4852 12.2613 35.4869 12.2613 35.4869C12.2613 35.4869 12.2609 35.4863 12.2601 35.4852C12.2594 35.484 12.2583 35.4823 12.2568 35.48C12.254 35.4755 12.2494 35.4679 12.2434 35.4573C12.2328 35.4384 12.2114 35.3985 12.1886 35.3406C12.1654 35.2819 12.022 34.9241 12.1599 34.4613L13.5975 34.8895L15.035 35.3178C15.1878 34.8049 15.0348 34.3802 14.9789 34.2387C14.905 34.0517 14.8095 33.8989 14.7405 33.7976C14.5983 33.589 14.4164 33.3801 14.2408 33.1927C13.8794 32.8068 13.3768 32.3351 12.806 31.8263C11.6553 30.8004 10.113 29.5223 8.58133 28.2837C7.04557 27.0419 5.50407 25.8266 4.34763 24.9226C3.76911 24.4703 3.28628 24.0955 2.94786 23.8335C2.77863 23.7025 2.64548 23.5997 2.55449 23.5296C2.50899 23.4945 2.47403 23.4676 2.45036 23.4494C2.43853 23.4402 2.42952 23.4333 2.42344 23.4286C2.42039 23.4263 2.41808 23.4245 2.4165 23.4233C2.41572 23.4227 2.41512 23.4222 2.4147 23.4219C2.4145 23.4218 2.41433 23.4216 2.41422 23.4216C2.4141 23.4215 2.41402 23.4214 1.50009 24.6108ZM13.5975 34.8895L12.1599 34.4613C12.1448 34.512 12.1059 34.6054 12.0052 34.7965C11.9284 34.9421 11.7687 35.2279 11.652 35.476C11.4117 35.987 11.0457 36.9436 11.5236 37.9971L12.8896 37.3774L14.2556 36.7577C14.3475 36.9601 14.2162 37.0728 14.3668 36.7527C14.4455 36.5853 14.5202 36.4587 14.6589 36.1958C14.7735 35.9783 14.931 35.6671 15.035 35.3178L13.5975 34.8895ZM12.8896 37.3774L11.5236 37.9971C11.4136 37.7545 11.3404 37.3652 11.5106 36.9503C11.6531 36.6028 11.8895 36.435 11.9484 36.395C12.0358 36.3357 12.0693 36.3386 11.7948 36.4356C11.3928 36.5776 10.604 36.8329 9.81472 37.3507C8.99615 37.8877 8.1807 38.6977 7.61499 39.9421C7.05694 41.1697 6.78157 42.7319 6.88741 44.7241L8.38529 44.6445L9.88318 44.5649C9.79598 42.9235 10.0354 41.867 10.346 41.1836C10.649 40.5172 11.0562 40.1242 11.4602 39.8591C11.8935 39.5749 12.3273 39.4292 12.7941 39.2643C12.9539 39.2079 13.3333 39.0809 13.6338 38.8768C13.7992 38.7645 14.1091 38.5206 14.2863 38.0886C14.4911 37.589 14.4139 37.1066 14.2556 36.7577L12.8896 37.3774ZM8.38529 44.6445L6.88741 44.7241C6.99735 46.7936 7.5898 48.4139 8.54216 49.6589C9.48742 50.8947 10.7044 51.6527 11.8893 52.1435C13.0608 52.6288 14.2565 52.8743 15.1922 53.051C15.6835 53.1439 16.0683 53.2113 16.4088 53.2867C16.7602 53.3646 16.9265 53.4232 16.9901 53.4544L17.6514 52.108L18.3126 50.7617C17.9097 50.5637 17.4486 50.4443 17.0577 50.3577C16.656 50.2688 16.1836 50.1853 15.749 50.1032C14.8327 49.9301 13.9008 49.7296 13.0374 49.3719C12.1872 49.0198 11.4618 48.538 10.925 47.8363C10.3953 47.1438 9.96628 46.129 9.88318 44.5649L8.38529 44.6445ZM25.4036 14.463C24.3292 15.5097 24.3294 15.5099 24.3297 15.5102C24.3298 15.5103 24.3301 15.5106 24.3303 15.5108C24.3307 15.5112 24.3312 15.5117 24.3317 15.5122C24.3327 15.5133 24.334 15.5146 24.3355 15.5161C24.3384 15.5191 24.3422 15.5229 24.3468 15.5276C24.356 15.5369 24.3686 15.5495 24.3843 15.5652C24.4158 15.5966 24.4602 15.6404 24.5165 15.6947C24.6291 15.8031 24.7899 15.9544 24.9913 16.134C25.3925 16.4917 25.9639 16.9697 26.6437 17.4487C27.9314 18.3559 29.897 19.4762 31.9349 19.4325L31.9027 17.9328L31.8706 16.4332C30.8535 16.455 29.5696 15.8403 28.3715 14.9962C27.8084 14.5995 27.3277 14.1978 26.9877 13.8947C26.8185 13.7439 26.6864 13.6194 26.5986 13.5348C26.5548 13.4926 26.5222 13.4604 26.5018 13.4401C26.4915 13.4299 26.4844 13.4227 26.4804 13.4186C26.4784 13.4166 26.4772 13.4154 26.4768 13.415C26.4766 13.4148 26.4766 13.4148 26.4768 13.415C26.4769 13.4151 26.477 13.4152 26.4773 13.4154C26.4774 13.4155 26.4776 13.4157 26.4776 13.4158C26.4778 13.416 26.478 13.4162 25.4036 14.463ZM38.8218 13.481L39.0656 12.001C39.1528 12.0153 39.215 12.0369 39.2476 12.0497C39.2649 12.0565 39.2775 12.0623 39.2851 12.066C39.2928 12.0697 39.2967 12.072 39.2968 12.072C39.2969 12.0721 39.2941 12.0704 39.2882 12.0667C39.2823 12.063 39.274 12.0575 39.2633 12.05C39.2415 12.0348 39.2126 12.0133 39.1762 11.9841C39.0219 11.8602 38.8076 11.6571 38.5334 11.3632L37.4366 12.3865L36.3398 13.4097C36.6594 13.7523 36.9841 14.0713 37.2972 14.3228C37.5538 14.529 38.0124 14.8679 38.5779 14.961L38.8218 13.481ZM37.4366 12.3865L38.5334 11.3632C37.2092 9.94375 35.1048 7.27992 33.2965 4.92004C32.4004 3.75062 31.5898 2.67272 31.0031 1.88703C30.7098 1.4943 30.4728 1.17488 30.3092 0.953889C30.2274 0.843402 30.164 0.75754 30.1211 0.699447C30.0997 0.6704 30.0834 0.648298 30.0725 0.633532C30.0671 0.626149 30.063 0.620601 30.0603 0.616935C30.059 0.615103 30.058 0.613741 30.0573 0.612857C30.057 0.612414 30.0568 0.612091 30.0566 0.611888C30.0565 0.611786 30.0565 0.611724 30.0565 0.611674C30.0564 0.611642 30.0564 0.61164 28.8479 1.50009C27.6393 2.38854 27.6393 2.3886 27.6394 2.38869C27.6394 2.38876 27.6395 2.38888 27.6396 2.38902C27.6398 2.38929 27.6401 2.38969 27.6405 2.39021C27.6413 2.39125 27.6424 2.39277 27.6439 2.39475C27.6468 2.39873 27.6511 2.40459 27.6568 2.41229C27.6681 2.42769 27.6849 2.45045 27.7068 2.48016C27.7506 2.53959 27.8151 2.62686 27.8979 2.73883C28.0637 2.96276 28.3033 3.28554 28.5993 3.68198C29.1912 4.47461 30.0096 5.56286 30.9152 6.74474C32.7104 9.08746 34.9004 11.8668 36.3398 13.4097L37.4366 12.3865ZM31.9027 17.9328L31.9349 19.4325C33.147 19.4065 34.1839 18.8494 34.9861 18.2156C35.7957 17.5759 36.4842 16.7662 37.0287 16.0169C37.579 15.2597 38.0186 14.5132 38.3191 13.9608C38.4703 13.6829 38.5886 13.45 38.6702 13.284C38.7111 13.2009 38.7429 13.1343 38.7652 13.0869C38.7764 13.0632 38.7852 13.0442 38.7915 13.0304C38.7947 13.0235 38.7973 13.0179 38.7993 13.0136C38.8003 13.0114 38.8011 13.0096 38.8018 13.0081C38.8021 13.0074 38.8024 13.0067 38.8027 13.0061C38.8028 13.0058 38.803 13.0055 38.803 13.0053C38.8032 13.005 38.8033 13.0046 37.4366 12.3865C36.0699 11.7683 36.0701 11.768 36.0702 11.7678C36.0702 11.7677 36.0703 11.7675 36.0704 11.7673C36.0705 11.7671 36.0706 11.7669 36.0706 11.7669C36.0707 11.7667 36.0706 11.7669 36.0704 11.7673C36.0699 11.7683 36.0689 11.7705 36.0673 11.774C36.0641 11.7809 36.0586 11.7928 36.0509 11.8092C36.0354 11.8422 36.011 11.8934 35.9781 11.9603C35.9122 12.0942 35.8129 12.29 35.684 12.527C35.4243 13.0043 35.0532 13.6322 34.6018 14.2534C34.1447 14.8824 33.6406 15.4552 33.1263 15.8616C32.6044 16.2739 32.1859 16.4264 31.8706 16.4332L31.9027 17.9328ZM49.3104 1.50009L49.5475 0.0189456C49.2157 -0.0341669 48.9525 0.0367006 48.8259 0.0793686C48.687 0.126194 48.583 0.183768 48.5246 0.218908C48.4086 0.288626 48.3251 0.3598 48.2884 0.391985C48.2071 0.463219 48.1404 0.535028 48.1025 0.576881C48.0179 0.670139 47.9232 0.785317 47.8308 0.900878C47.6406 1.13899 47.3851 1.47355 47.0881 1.86678C46.4834 2.66757 45.6901 3.73358 44.7943 4.91011C42.9877 7.28286 40.9039 9.91764 39.4666 11.3086L40.5097 12.3865L41.5528 13.4644C43.1822 11.8876 45.4023 9.06372 47.1812 6.72749C48.0781 5.54952 48.8979 4.44846 49.4822 3.67466C49.7798 3.28059 50.0128 2.97598 50.1745 2.77367C50.2581 2.66902 50.3053 2.61368 50.3245 2.59243C50.3385 2.57703 50.3143 2.60559 50.2654 2.64837C50.2449 2.66633 50.1752 2.72698 50.0704 2.78997C50.0176 2.82174 49.9186 2.8769 49.784 2.92227C49.6617 2.96349 49.4021 3.03386 49.0733 2.98123L49.3104 1.50009ZM40.5097 12.3865L39.4666 11.3086C39.1196 11.6443 38.858 11.8602 38.6824 11.977C38.5947 12.0353 38.569 12.0415 38.5967 12.0311C38.6112 12.0256 38.792 11.9559 39.0656 12.001L38.8218 13.481L38.5779 14.961C39.0216 15.0342 39.4051 14.932 39.6512 14.8396C39.9105 14.7423 40.1454 14.6069 40.3437 14.475C40.7402 14.2113 41.1524 13.8519 41.5528 13.4644L40.5097 12.3865ZM54.7156 15.2487L55.2421 13.8441C55.3257 13.8754 55.339 13.9024 55.2861 13.8544C55.236 13.8091 55.1561 13.7232 55.0506 13.5786L53.839 14.463L52.6274 15.3473C52.9704 15.8173 53.4797 16.3873 54.1892 16.6533L54.7156 15.2487ZM53.839 14.463L55.0506 13.5787C54.6329 13.0064 54.1487 11.9876 53.6455 10.6536C53.155 9.35309 52.6892 7.87094 52.2773 6.45567C51.8659 5.04232 51.5153 3.7201 51.2495 2.73088C51.1185 2.24316 51.0042 1.82162 50.915 1.51958C50.8717 1.37309 50.8254 1.22369 50.7796 1.09947C50.7591 1.0441 50.7214 0.945409 50.6675 0.841439C50.6432 0.794465 50.5863 0.688469 50.4935 0.572423C50.4644 0.535974 50.1517 0.115654 49.5475 0.0189449L49.3104 1.50009L49.0733 2.98123C48.4758 2.88558 48.1706 2.47116 48.15 2.44532C48.0657 2.33988 48.0182 2.2492 48.0041 2.22213C47.9709 2.15795 47.9575 2.11739 47.9649 2.13744C47.9747 2.16406 47.9981 2.23468 48.0378 2.36918C48.1145 2.62909 48.219 3.0133 48.3522 3.50923C48.615 4.48732 48.9748 5.84401 49.3968 7.29402C49.8183 8.74211 50.3088 10.3078 50.8385 11.7123C51.3557 13.0834 51.9557 14.427 52.6274 15.3473L53.839 14.463ZM40.5097 12.3865L39.2165 13.1465C40.149 14.7332 41.0727 16.0957 42.0713 17.1291C43.0826 18.1756 44.2343 18.9505 45.6195 19.2367C48.3481 19.8004 51.2673 18.3306 54.7529 15.6524L53.839 14.463L52.9251 13.2735C49.4229 15.9644 47.5029 16.5624 46.2265 16.2987C45.6093 16.1712 44.9671 15.8085 44.2287 15.0444C43.4776 14.2671 42.6959 13.1459 41.8029 11.6265L40.5097 12.3865ZM13.5975 22.5813C12.7836 23.8412 12.7832 23.841 12.7828 23.8407C12.7827 23.8407 12.7823 23.8404 12.7821 23.8403C12.7816 23.84 12.7813 23.8398 12.781 23.8396C12.7803 23.8392 12.78 23.8389 12.7798 23.8388C12.7795 23.8386 12.7801 23.839 12.7817 23.84C12.7847 23.8421 12.7914 23.8465 12.8015 23.8533C12.8216 23.8669 12.855 23.89 12.9 23.9221C12.9901 23.9864 13.1252 24.0864 13.2904 24.2194C13.623 24.487 14.0655 24.8786 14.5045 25.3713C15.4078 26.3852 16.1514 27.6609 16.1514 29.0627H17.6514H19.1514C19.1514 26.6017 17.868 24.6368 16.7444 23.3756C16.1698 22.7307 15.5989 22.2263 15.1713 21.8822C14.9565 21.7093 14.7749 21.5746 14.6433 21.4806C14.5774 21.4335 14.5238 21.3965 14.4845 21.3699C14.4649 21.3566 14.4488 21.3459 14.4365 21.3378C14.4304 21.3337 14.4252 21.3303 14.421 21.3275C14.4189 21.3262 14.417 21.325 14.4154 21.3239C14.4146 21.3234 14.4139 21.3229 14.4132 21.3225C14.4129 21.3223 14.4124 21.322 14.4122 21.3219C14.4118 21.3216 14.4114 21.3213 13.5975 22.5813ZM17.6514 29.0627H16.1514C16.1514 30.4305 15.4391 31.5224 14.5851 32.343C14.1648 32.7469 13.7397 33.0547 13.4193 33.2608C13.2605 33.3629 13.1312 33.4377 13.0462 33.4847C13.0038 33.5081 12.9727 33.5245 12.9549 33.5337C12.946 33.5383 12.9404 33.5411 12.9384 33.5421C12.9374 33.5426 12.9373 33.5426 12.9381 33.5422C12.9385 33.542 12.9392 33.5417 12.9401 33.5413C12.9405 33.541 12.941 33.5408 12.9416 33.5405C12.9418 33.5404 12.9423 33.5402 12.9424 33.5401C12.9429 33.5399 12.9434 33.5396 13.5975 34.8895C14.2515 36.2394 14.252 36.2392 14.2526 36.2389C14.2528 36.2388 14.2533 36.2385 14.2537 36.2384C14.2545 36.238 14.2554 36.2375 14.2563 36.2371C14.2582 36.2362 14.2603 36.2351 14.2627 36.234C14.2674 36.2317 14.2731 36.2288 14.2798 36.2255C14.2931 36.2188 14.3103 36.2101 14.3311 36.1994C14.3727 36.1779 14.4287 36.1483 14.4971 36.1105C14.6338 36.035 14.8212 35.9261 15.0424 35.7838C15.4822 35.5009 16.0705 35.0762 16.6637 34.5062C17.8366 33.3791 19.1514 31.5576 19.1514 29.0627H17.6514ZM65.9121 34.0384C66.0659 32.5463 66.0665 32.5464 66.0671 32.5465C66.0673 32.5465 66.0679 32.5465 66.0682 32.5466C66.0689 32.5466 66.0695 32.5467 66.0701 32.5468C66.0712 32.5469 66.072 32.547 66.0725 32.547C66.0735 32.5471 66.0734 32.5471 66.0721 32.547C66.0697 32.5467 66.0628 32.5459 66.0517 32.5444C66.0296 32.5415 65.9912 32.5361 65.9388 32.5274C65.8336 32.51 65.6747 32.4799 65.4803 32.4315C65.0855 32.3331 64.577 32.1673 64.0841 31.9006C63.1295 31.3843 62.3287 30.5699 62.3287 29.0627H60.8287H59.3287C59.3287 32.0073 61.0695 33.6808 62.6567 34.5393C63.4346 34.9601 64.1971 35.2035 64.7554 35.3426C65.0376 35.4128 65.2758 35.4584 65.4486 35.4871C65.5352 35.5014 65.606 35.5116 65.6584 35.5185C65.6846 35.522 65.7062 35.5246 65.723 35.5266C65.7313 35.5276 65.7385 35.5284 65.7444 35.529C65.7474 35.5294 65.75 35.5296 65.7523 35.5299C65.7535 35.53 65.7546 35.5301 65.7556 35.5302C65.7561 35.5303 65.7568 35.5304 65.757 35.5304C65.7577 35.5305 65.7583 35.5305 65.9121 34.0384ZM60.8287 29.0627H62.3287C62.3287 27.4627 63.233 26.2238 64.3332 25.3027C64.8736 24.8503 65.4211 24.511 65.8359 24.2849C66.0415 24.1728 66.21 24.091 66.3226 24.039C66.3787 24.013 66.4206 23.9947 66.4458 23.9839C66.4583 23.9785 66.4667 23.9751 66.4706 23.9735C66.4725 23.9727 66.4733 23.9723 66.473 23.9725C66.4728 23.9726 66.4723 23.9727 66.4715 23.9731C66.4711 23.9732 66.4707 23.9734 66.4701 23.9736C66.4699 23.9737 66.4694 23.9739 66.4693 23.974C66.4688 23.9741 66.4683 23.9743 65.9121 22.5813C65.3559 21.1882 65.3554 21.1884 65.3549 21.1886C65.3547 21.1887 65.3541 21.1889 65.3537 21.1891C65.3528 21.1894 65.3519 21.1898 65.3509 21.1902C65.3489 21.191 65.3466 21.192 65.3439 21.193C65.3387 21.1952 65.3322 21.1978 65.3245 21.201C65.3092 21.2073 65.289 21.2158 65.2643 21.2264C65.215 21.2475 65.1477 21.2771 65.0648 21.3154C64.8994 21.3918 64.6707 21.5033 64.3998 21.651C63.8614 21.9445 63.138 22.3908 62.4076 23.0023C60.9661 24.209 59.3287 26.2108 59.3287 29.0627H60.8287Z" fill="#661EA2"/>
</svg>
