<svg width="893" height="147" viewBox="0 0 893 147" fill="none" xmlns="http://www.w3.org/2000/svg">
<path d="M83.8555 278.898C144.972 270.955 158.326 228.214 165.574 223.687C172.821 219.161 202.164 218.311 200.09 189.907C198.016 161.502 176.644 167.546 177.81 164.043C178.975 160.539 175.018 157.737 173.629 154.755C172.24 151.773 218.422 108.578 218.422 108.578C218.422 108.578 172.261 115.157 167.414 106.986C162.567 98.815 169.744 52.2028 169.744 52.2028C169.744 52.2028 139.647 86.1178 123.832 83.5427C100.415 79.7299 93.7593 33.0923 93.7593 33.0923C93.7593 33.0923 73.6927 66.8723 63.7698 79.8054C61.6379 82.5841 59.8428 84.417 58.5995 84.7729C57.2221 85.1673 54.5257 83.8206 51.0728 81.402C36.9036 71.4773 9.99528 43.5037 9.21373 43.7238C8.35694 43.9651 4.54272 83.6694 -2.95156 96.3863C-3.95952 98.0967 -5.03406 99.3189 -6.17691 99.8912C-15.5887 104.605 -60.0818 82.1415 -61.5312 81.3106C-61.5427 81.2989 -61.5522 81.2917 -61.5596 81.289C-61.5762 81.283 -61.5664 81.2904 -61.5312 81.3106C-60.4619 82.3998 -42.1172 122.238 -48.7352 134.167C-46.7624 138.89 -86.4274 146.966 -87.3101 147.027C-87.3185 147.024 -87.3233 147.024 -87.3246 147.025C-87.3266 147.027 -87.3217 147.027 -87.3101 147.027C-86.3368 147.315 -37.8929 173.146 -42.9502 178.632C-48.0508 184.166 -46.9784 189.211 -47.1134 192.327C-47.2485 195.443 -60.1753 195.777 -55.408 222.035C-50.6407 248.293 -18.5368 243.74 -12.8228 246.12C-7.10879 248.501 22.7393 286.842 83.8555 278.898Z" fill="#A646F8"/>
<path d="M340.828 266.977C401.493 256.109 412.78 212.777 419.802 207.908C426.824 203.038 456.092 200.782 452.657 172.509C449.222 144.237 428.166 151.3 429.162 147.745C430.157 144.189 426.07 141.58 424.54 138.668C423.009 135.757 467.065 90.394 467.065 90.394C467.065 90.394 421.273 99.1814 416.039 91.2525C410.806 83.3235 415.737 36.4205 415.737 36.4205C415.737 36.4205 387.302 71.741 371.382 69.928C347.809 67.2435 338.923 20.9791 338.923 20.9791C338.923 20.9791 320.501 55.6833 311.21 69.0777C309.214 71.9556 307.509 73.8725 306.284 74.2877C304.927 74.7477 302.169 73.532 298.604 71.2819C283.975 62.0488 255.755 35.3989 254.985 35.6563C254.141 35.9384 252.236 75.78 245.361 88.8419C244.437 90.5987 243.422 91.8711 242.308 92.4976C233.133 97.6573 187.613 77.3556 186.125 76.5952C186.113 76.5841 186.104 76.5774 186.096 76.575C186.079 76.5698 186.089 76.5768 186.125 76.5952C187.246 77.6319 207.482 116.544 201.444 128.776C203.641 133.399 164.409 143.37 163.53 143.473C163.522 143.471 163.517 143.47 163.516 143.472C163.514 143.474 163.519 143.474 163.53 143.473C164.516 143.715 214.144 167.19 209.356 172.913C204.527 178.686 205.84 183.672 205.855 186.791C205.87 189.91 192.974 190.865 198.996 216.864C205.018 242.863 236.866 236.774 242.688 238.877C248.51 240.981 280.164 277.845 340.828 266.977Z" fill="#A646F8"/>
<path d="M553.022 267.48C614.399 273.063 636.757 234.266 644.818 231.43C652.878 228.593 681.7 234.167 685.873 205.994C690.046 177.821 667.871 179.057 669.773 175.892C671.675 172.727 668.424 169.129 667.719 165.916C667.015 162.703 721.509 130.624 721.509 130.624C721.509 130.624 675.025 126.973 672.077 117.942C669.13 108.91 686.304 64.9868 686.304 64.9868C686.304 64.9868 649.532 91.5177 634.66 85.554C612.639 76.7237 616.32 29.7576 616.32 29.7576C616.32 29.7576 589.366 58.3454 576.86 68.8018C574.174 71.0484 572.022 72.4455 570.731 72.5216C569.301 72.6059 566.963 70.7033 564.121 67.5896C552.459 54.8125 532.302 21.6417 531.491 21.686C530.603 21.7345 518.217 59.65 508.129 70.4253C506.772 71.8746 505.457 72.8329 504.216 73.142C494.003 75.6883 455.483 44.0585 454.25 42.9313C454.241 42.9174 454.234 42.9083 454.227 42.9041C454.212 42.8946 454.22 42.904 454.25 42.9313C455.056 44.2277 464.266 87.1091 455.205 97.3058C456.1 102.346 415.628 101.573 414.754 101.439C414.746 101.435 414.741 101.433 414.74 101.434C414.737 101.436 414.742 101.438 414.754 101.439C415.64 101.934 457.281 137.711 451.149 141.963C444.963 146.25 444.909 151.407 444.098 154.418C443.286 157.43 430.598 154.936 429.521 181.601C428.444 208.267 460.768 210.828 465.825 214.398C470.882 217.968 491.645 261.898 553.022 267.48Z" fill="#A646F8"/>
<path d="M828.691 266.221C890.269 263.674 907.325 222.271 914.941 218.398C922.558 214.525 951.863 216.255 952.29 187.778C952.718 159.301 930.898 163.446 932.367 160.058C933.836 156.67 930.14 153.531 929.018 150.439C927.896 147.347 977.692 108.373 977.692 108.373C977.692 108.373 931.132 110.874 927.021 102.309C922.91 93.7438 934.152 47.9416 934.152 47.9416C934.152 47.9416 901.193 79.0831 885.665 75.1295C862.673 69.2754 860.138 22.2336 860.138 22.2336C860.138 22.2336 837.184 54.1213 826.163 66.1332C823.796 68.714 821.847 70.3822 820.577 70.6276C819.17 70.8995 816.603 69.3213 813.375 66.6089C800.132 55.4785 775.784 25.2504 774.986 25.401C774.111 25.5661 766.826 64.7822 758.244 76.792C757.09 78.4073 755.912 79.5304 754.723 80.0002C744.934 83.869 702.585 57.5862 701.214 56.6313C701.204 56.6186 701.195 56.6106 701.188 56.6073C701.172 56.5998 701.181 56.6081 701.214 56.6313C702.184 57.8102 716.96 99.1056 709.32 110.407C710.871 115.285 670.65 119.847 669.765 119.83C669.757 119.827 669.752 119.826 669.751 119.827C669.749 119.829 669.753 119.83 669.765 119.83C670.709 120.203 716.698 150.187 711.179 155.209C705.612 160.274 706.237 165.392 705.829 168.484C705.421 171.577 692.515 170.775 694.958 197.35C697.402 223.925 729.781 222.208 735.264 225.081C740.747 227.954 767.114 268.768 828.691 266.221Z" fill="#A646F8"/>
<rect width="723" height="41" transform="translate(127.001 117)" fill="#A646F8"/>
</svg>
