<svg width="893" height="113" viewBox="0 0 893 113" fill="none" xmlns="http://www.w3.org/2000/svg">
<path d="M820.368 -143.227C758.811 -140.215 742.069 -98.6845 734.481 -94.7542C726.894 -90.8238 697.578 -92.3328 697.365 -63.8533C697.152 -35.3737 718.94 -39.6832 717.497 -36.2844C716.054 -32.8856 719.773 -29.7746 720.918 -26.6911C722.064 -23.6076 672.563 15.7417 672.563 15.7417C672.563 15.7417 719.103 12.889 723.279 21.4227C727.454 29.9564 716.558 75.8421 716.558 75.8421C716.558 75.8421 749.281 44.4527 764.838 48.2889C787.874 53.9692 790.764 100.991 790.764 100.991C790.764 100.991 813.478 68.9304 824.407 56.8357C826.755 54.2371 828.691 52.5542 829.959 52.2992C831.364 52.0167 833.943 53.5755 837.191 56.2634C850.518 67.2935 875.094 97.3369 875.89 97.1802C876.764 97.0085 883.753 57.7385 892.244 45.6643C893.386 44.0403 894.555 42.9084 895.74 42.4296C905.5 38.487 948.046 64.4492 949.424 65.3938C949.435 65.4064 949.443 65.4143 949.451 65.4176C949.467 65.4249 949.458 65.4167 949.424 65.3938C948.446 64.2222 933.358 23.0396 940.912 11.6812C939.325 6.81499 979.51 1.94908 980.395 1.95924C980.403 1.96238 980.408 1.96337 980.409 1.96217C980.412 1.96034 980.407 1.95938 980.395 1.95924C979.448 1.5932 933.234 -28.0424 938.716 -33.1056C944.244 -38.2123 943.58 -43.3263 943.965 -46.4214C944.349 -49.5164 957.261 -48.8119 954.617 -75.3682C951.973 -101.924 919.607 -99.9629 914.103 -102.794C908.598 -105.626 881.924 -146.239 820.368 -143.227Z" fill="#9036DD"/>
<path d="M560.375 -141.264C498.819 -138.252 482.076 -96.7212 474.489 -92.7909C466.901 -88.8606 437.585 -90.3695 437.372 -61.89C437.16 -33.4105 458.947 -37.7199 457.504 -34.3212C456.061 -30.9223 459.781 -27.8113 460.926 -24.7278C462.071 -21.6443 412.571 17.705 412.571 17.705C412.571 17.705 459.11 14.8522 463.286 23.386C467.462 31.9197 456.566 77.8054 456.566 77.8054C456.566 77.8054 489.289 46.4159 504.846 50.2522C527.881 55.9325 530.771 102.954 530.771 102.954C530.771 102.954 553.485 70.8937 564.414 58.7989C566.762 56.2003 568.699 54.5174 569.966 54.2624C571.371 53.9799 573.951 55.5387 577.198 58.2267C590.525 69.2568 615.101 99.3002 615.898 99.1435C616.771 98.9718 623.76 59.7018 632.251 47.6276C633.393 46.0036 634.562 44.8716 635.747 44.3929C645.507 40.4502 688.053 66.4125 689.431 67.3571C689.442 67.3696 689.451 67.3776 689.458 67.3809C689.474 67.3882 689.465 67.38 689.431 67.3571C688.453 66.1855 673.366 25.0028 680.92 13.6444C679.332 8.77824 719.518 3.91234 720.403 3.9225C720.411 3.92564 720.415 3.92662 720.417 3.92542C720.419 3.92359 720.414 3.92263 720.403 3.9225C719.456 3.55645 673.241 -26.0791 678.723 -31.1423C684.251 -36.249 683.587 -41.363 683.972 -44.4581C684.357 -47.5532 697.269 -46.8487 694.625 -73.4049C691.981 -99.9611 659.615 -97.9996 654.11 -100.831C648.606 -103.662 621.932 -144.276 560.375 -141.264Z" fill="#9036DD"/>
<path d="M297.382 -139.278C235.825 -136.266 219.083 -94.7353 211.495 -90.8049C203.908 -86.8746 174.592 -88.3835 174.379 -59.904C174.166 -31.4245 195.954 -35.734 194.511 -32.3352C193.068 -28.9364 196.788 -25.8254 197.933 -22.7419C199.078 -19.6584 149.577 19.6909 149.577 19.6909C149.577 19.6909 196.117 16.8382 200.293 25.3719C204.468 33.9056 193.572 79.7914 193.572 79.7914C193.572 79.7914 226.295 48.4019 241.853 52.2381C264.888 57.9184 267.778 104.94 267.778 104.94C267.778 104.94 290.492 72.8797 301.421 60.7849C303.769 58.1863 305.705 56.5034 306.973 56.2484C308.378 55.9659 310.957 57.5247 314.205 60.2127C327.532 71.2427 352.108 101.286 352.904 101.129C353.778 100.958 360.767 61.6878 369.258 49.6135C370.4 47.9896 371.569 46.8576 372.754 46.3788C382.514 42.4362 425.06 68.3984 426.438 69.343C426.449 69.3556 426.458 69.3636 426.465 69.3668C426.481 69.3741 426.472 69.3659 426.438 69.343C425.46 68.1714 410.372 26.9888 417.927 15.6304C416.339 10.7642 456.524 5.8983 457.409 5.90846C457.417 5.9116 457.422 5.91259 457.424 5.91139C457.426 5.90956 457.421 5.9086 457.409 5.90846C456.462 5.54241 410.248 -24.0931 415.73 -29.1564C421.258 -34.2631 420.594 -39.3771 420.979 -42.4721C421.363 -45.5672 434.275 -44.8627 431.631 -71.4189C428.987 -97.9752 396.621 -96.0137 391.117 -98.845C385.613 -101.676 358.939 -142.29 297.382 -139.278Z" fill="#9036DD"/>
<path d="M42.4092 -137.353C-19.1475 -134.341 -35.8899 -92.81 -43.4772 -88.8796C-51.0645 -84.9493 -80.3811 -86.4583 -80.5938 -57.9787C-80.8064 -29.4992 -59.0188 -33.8087 -60.4618 -30.4099C-61.9048 -27.0111 -58.1852 -23.9001 -57.0401 -20.8166C-55.8951 -17.7331 -105.395 21.6162 -105.395 21.6162C-105.395 21.6162 -58.8555 18.7635 -54.68 27.2972C-50.5045 35.8309 -61.4004 81.7166 -61.4004 81.7166C-61.4004 81.7166 -28.6774 50.3272 -13.1201 54.1634C9.9154 59.8437 12.8054 106.865 12.8054 106.865C12.8054 106.865 35.519 74.805 46.448 62.7102C48.7961 60.1116 50.7326 58.4287 52.0004 58.1737C53.405 57.8912 55.9846 59.45 59.2322 62.1379C72.559 73.168 97.1349 103.211 97.9316 103.055C98.805 102.883 105.794 63.613 114.285 51.5388C115.427 49.9149 116.596 48.7829 117.781 48.3041C127.541 44.3615 170.088 70.3237 171.466 71.2683C171.476 71.2809 171.485 71.2888 171.492 71.2921C171.508 71.2994 171.499 71.2912 171.466 71.2683C170.487 70.0967 155.4 28.9141 162.954 17.5557C161.366 12.6895 201.552 7.8236 202.437 7.83375C202.445 7.83689 202.449 7.83788 202.451 7.83668C202.453 7.83485 202.448 7.83389 202.437 7.83375C201.49 7.46771 155.275 -22.1678 160.757 -27.2311C166.285 -32.3378 165.621 -37.4518 166.006 -40.5468C166.391 -43.6419 179.303 -42.9374 176.659 -69.4936C174.015 -96.0499 141.649 -94.0884 136.144 -96.9197C130.64 -99.751 103.966 -140.365 42.4092 -137.353Z" fill="#9036DD"/>
<rect width="723" height="41" transform="translate(770.202 8.37671) rotate(179.567)" fill="#9036DD"/>
</svg>
