<svg width="988" height="245" viewBox="0 0 988 245" fill="none" xmlns="http://www.w3.org/2000/svg">
<rect width="499" height="80" transform="translate(389.02 165)" fill="#892ED6"/>
<rect width="764" height="139" transform="translate(127.02)" fill="#892ED6"/>
<path d="M123.62 18.36C133.454 18.36 142.891 19.952 151.672 23.4635C157.689 25.7047 163.266 28.6712 168.312 32.399V18.36H543.581C553.415 18.36 562.852 19.952 571.633 23.4635C580.219 26.6619 587.913 31.3364 594.441 37.5944C601.073 43.7774 606.043 51.2389 609.383 59.7096C612.934 68.1032 614.621 77.0276 614.621 86.2799C614.621 98.6229 611.616 110.247 605.229 120.61C605.22 120.623 605.212 120.637 605.204 120.65C605.191 120.671 605.179 120.693 605.166 120.714L605.165 120.714C603.947 122.701 602.624 124.579 601.201 126.345C601.494 126.767 601.778 127.198 602.057 127.635C602.084 127.677 602.11 127.719 602.137 127.76C602.189 127.843 602.243 127.924 602.295 128.007H602.294C604.383 131.278 605.95 134.832 607.103 138.56L645.741 30.3092L650.006 18.36H717.295L721.53 30.3776L771.123 171.103L803.035 120.787L756.257 45.8961L739.058 18.36H824.731L829.881 27.5875L845.429 55.444L861.138 27.5319L866.299 18.36H951.388L933.892 45.9899L887.434 119.354L937.58 199.448L954.83 227H867.806L862.658 217.759L844.944 185.958L826.042 218.121L820.823 227H712.825L708.924 214.276L701.904 191.38H664.368L656.319 214.841L652.148 227H538.581V164.54C538.581 162.47 538.402 161.074 538.224 160.207C538.218 160.205 538.211 160.203 538.205 160.202C536.577 159.785 533.806 159.4 529.541 159.4H509.061V227H437.961V154.2H378.831V227H118.62V164.54C118.62 162.47 118.441 161.074 118.263 160.207C118.257 160.205 118.25 160.203 118.244 160.202C116.616 159.785 113.845 159.4 109.58 159.4H89.0996V227H18V18.36H123.62ZM239.412 160.32H306.691V151.86H239.412V160.32ZM89.0996 94.2799H116.34C119.953 94.2799 122.152 93.8647 123.324 93.4938C123.585 93.4113 123.769 93.3381 123.893 93.2848C124.379 92.6574 124.86 91.6453 124.86 89.4C124.86 86.593 124.185 85.5745 123.708 85.0338C123.642 85.0073 123.557 84.9745 123.449 84.9381C122.599 84.6508 120.796 84.2604 117.64 84.2604H89.0996V94.2799ZM509.061 94.2799H536.301C539.914 94.2799 542.113 93.8647 543.285 93.4938C543.546 93.4111 543.731 93.3381 543.854 93.2848C544.341 92.6574 544.821 91.6447 544.821 89.4C544.821 86.593 544.146 85.5745 543.669 85.0338C543.603 85.0073 543.518 84.9745 543.41 84.9381C542.56 84.6508 540.757 84.2604 537.601 84.2604H509.061V94.2799ZM378.831 87.7799H437.961V84.5201H378.831V87.7799ZM239.412 85.4401H306.691V84.5201H239.412V85.4401Z" fill="#892ED6" stroke="#892ED6" stroke-width="36"/>
</svg>
