<svg width="287" height="255" viewBox="0 0 287 255" fill="none" xmlns="http://www.w3.org/2000/svg">
<path fill-rule="evenodd" clip-rule="evenodd" d="M129.319 159.458C123.358 161.75 115.564 170.232 112.584 175.734C110.301 179.95 101.559 207.307 96.3576 223.585C94.7696 228.555 93.5116 232.492 92.8681 234.423C90.1171 242.676 75.6743 249.783 65.358 250.241C55.0417 250.7 39.6819 243.822 34.8676 234.423C30.0533 225.023 -0.666407 126.675 4.60648 101.916C9.87936 77.1565 16.4838 48.3574 32.8043 44.1444C32.8043 44.1444 36.4725 31.9941 41.7452 29.7016C47.018 27.4091 71.5479 18.0098 75.4451 18.4683C79.3424 18.9268 85.7613 24.8873 85.7613 24.8873C87.5802 22.5286 88.7958 22.2731 90.7007 21.8727C90.8817 21.8347 91.0689 21.7953 91.2635 21.7527C91.2635 21.7527 115.793 62.7137 118.086 68.445C120.141 73.5835 129.015 75.4049 133.803 76.3876C134.355 76.501 134.853 76.6032 135.28 76.698C139.406 77.615 179.525 70.0497 183.652 68.445C187.224 67.0559 187.611 65.0078 188.474 60.4434L188.474 60.4428C188.608 59.7343 188.754 58.9653 188.924 58.1287C190.165 52.0468 179.661 15.6618 177.382 14.8003H177.232C175.04 14.8003 172.977 13.3762 171.043 12.0415C169.337 10.8644 167.732 9.75675 166.228 9.75675C166.228 9.75675 167.146 4.71323 172.189 4.71323C173.592 4.71323 175.936 4.58902 178.667 4.44426C185.753 4.06872 195.447 3.55493 198.094 4.71323C201.762 6.31798 204.743 14.8003 204.743 14.8003C209.786 14.8003 211.391 14.8003 215.747 17.0928C216.996 17.7505 217.887 18.295 218.788 18.8454C221.027 20.2134 223.325 21.6178 231.336 24.8873C242.569 29.4723 285.897 129.426 282.688 148.224C281.893 152.88 281.492 156.762 281.15 160.07C280.112 170.117 279.622 174.859 270.308 179.861C257.929 186.509 242.34 183.987 236.838 179.861C231.46 175.828 210.316 149.459 209.361 148.266C209.331 148.228 209.314 148.212 209.278 148.18C208.623 147.604 201.629 141.631 194.426 142.722C186.861 143.869 135.28 157.165 129.319 159.458Z" fill="#F5EFF8"/>
<path d="M95.6191 20.3023C101.121 17.7805 150.41 9.75675 155.224 9.75675L166.228 9.75675C167.732 9.75675 169.337 10.8644 171.043 12.0415C172.977 13.3762 175.04 14.8003 177.232 14.8003H177.382C179.661 15.6618 190.165 52.0468 188.924 58.1287C188.754 58.9653 188.608 59.7343 188.474 60.4428L188.474 60.4434C187.611 65.0078 187.224 67.0559 183.652 68.445C179.525 70.0497 139.406 77.615 135.28 76.698C134.853 76.6032 134.355 76.501 133.803 76.3876C129.015 75.4049 120.141 73.5835 118.086 68.445C115.793 62.7137 91.2635 21.7527 91.2635 21.7527C92.3948 21.5051 93.774 21.148 95.6191 20.3023Z" fill="#F5EFF8"/>
<path d="M32.8043 44.1444C16.4838 48.3574 9.87936 77.1565 4.60648 101.916C-0.666407 126.675 30.0533 225.023 34.8676 234.423C39.6819 243.822 55.0417 250.7 65.358 250.241C75.6743 249.783 90.1171 242.676 92.8681 234.423C93.5116 232.492 94.7696 228.555 96.3576 223.585C101.559 207.307 110.301 179.95 112.584 175.734C115.564 170.232 123.358 161.75 129.319 159.458C135.28 157.165 186.861 143.869 194.426 142.722C201.629 141.631 208.623 147.604 209.278 148.18M32.8043 44.1444C49.1248 39.9314 82.7647 28.7734 85.7613 24.8873M32.8043 44.1444C32.8043 44.1444 36.4725 31.9941 41.7452 29.7016C47.018 27.4091 71.5479 18.0098 75.4451 18.4683C79.3424 18.9268 85.7613 24.8873 85.7613 24.8873M85.7613 24.8873C87.5802 22.5286 88.7958 22.2731 90.7007 21.8727C90.8817 21.8347 91.0689 21.7953 91.2635 21.7527M155.224 9.75675C150.41 9.75675 101.121 17.7805 95.6191 20.3023C93.774 21.148 92.3948 21.5051 91.2635 21.7527M155.224 9.75675C160.039 9.75675 163.019 9.75675 166.228 9.75675M155.224 9.75675L166.228 9.75675M166.228 9.75675C166.228 9.75675 167.146 4.71323 172.189 4.71323C173.592 4.71323 175.936 4.58902 178.667 4.44426C185.753 4.06872 195.447 3.55493 198.094 4.71323C201.762 6.31798 204.743 14.8003 204.743 14.8003M166.228 9.75675C167.732 9.75675 169.337 10.8644 171.043 12.0415C172.977 13.3762 175.04 14.8003 177.232 14.8003M177.232 14.8003C181.359 14.8003 199.699 14.8003 204.743 14.8003M177.232 14.8003H177.382M177.232 14.8003C177.277 14.7794 177.327 14.7797 177.382 14.8003M204.743 14.8003C209.786 14.8003 211.391 14.8003 215.747 17.0928C216.996 17.7505 217.887 18.295 218.788 18.8454C221.027 20.2134 223.325 21.6178 231.336 24.8873C242.569 29.4723 285.897 129.426 282.688 148.224C281.893 152.88 281.492 156.762 281.15 160.07C280.112 170.117 279.622 174.859 270.308 179.861C257.929 186.509 242.34 183.987 236.838 179.861C231.46 175.828 210.316 149.459 209.361 148.266M91.2635 21.7527C91.2635 21.7527 115.793 62.7137 118.086 68.445C120.141 73.5835 129.015 75.4049 133.803 76.3876C134.355 76.501 134.853 76.6032 135.28 76.698C139.406 77.615 179.525 70.0497 183.652 68.445C187.224 67.0559 187.611 65.0078 188.474 60.4434L188.474 60.4428C188.608 59.7343 188.754 58.9653 188.924 58.1287C190.165 52.0468 179.661 15.6618 177.382 14.8003M209.278 148.18C209.314 148.212 209.331 148.228 209.361 148.266M209.278 148.18C209.281 148.183 209.285 148.186 209.288 148.189C209.314 148.212 209.339 148.238 209.361 148.266" stroke="#D3CAD8" stroke-width="8" stroke-linecap="round"/>
<path d="M77.7386 51.7122C78.7118 57.0645 80.6898 63.1971 81.607 65.8988C81.887 66.7235 82.703 67.2293 83.5667 67.1167C86.108 66.7852 91.8391 65.9861 99.976 64.5502C111.209 62.5678 113.731 81.744 106.853 84.7243C101.678 86.9672 95.4631 88.9503 92.7047 89.7944C91.8636 90.0518 91.3043 90.8472 91.3736 91.724C91.631 94.9821 92.3639 102.877 93.7862 108.566C95.6202 115.902 72.9244 120.592 71.5489 113.839C70.4884 108.633 68.2018 100.963 67.2098 97.7219C66.9384 96.8353 66.0615 96.2918 65.1463 96.4403C62.2232 96.9146 55.6646 98.0143 48.853 99.3964C39.683 101.257 36.2441 77.6175 44.0387 76.242C49.7231 75.2389 56.3827 74.1139 59.5721 73.5782C60.611 73.4037 61.303 72.4146 61.1207 71.377C60.5416 68.0807 59.3858 61.0569 58.9401 55.1509C58.3344 47.1271 76.4464 44.6054 77.7386 51.7122Z" fill="#D3CAD8"/>
<circle cx="24.5299" cy="24.5299" r="24.5299" transform="matrix(-1 0 0 1 229.957 77.8441)" fill="#D3CAD8"/>
<circle cx="24.5299" cy="24.5299" r="24.5299" transform="matrix(-1 0 0 1 156.602 94.3513)" fill="#D3CAD8"/>
<circle cx="4.58502" cy="4.58502" r="4.58502" transform="matrix(-1 0 0 1 227.211 59.0467)" fill="#D3CAD8"/>
<circle cx="4.58502" cy="4.58502" r="4.58502" transform="matrix(-1 0 0 1 214.373 49.876)" fill="#D3CAD8"/>
<circle cx="4.58502" cy="4.58502" r="4.58502" transform="matrix(-1 0 0 1 236.383 45.2913)" fill="#D3CAD8"/>
<circle cx="4.58502" cy="4.58502" r="4.58502" transform="matrix(-1 0 0 1 222.625 35.2047)" fill="#D3CAD8"/>
</svg>
