<svg width="374" height="296" viewBox="0 0 374 296" fill="none" xmlns="http://www.w3.org/2000/svg">
<path d="M327.883 246.124C322.554 246.124 74.0779 246.322 74.0779 246.322L163.956 85.4496C163.956 85.4496 180.37 90.3509 187.618 83.1056C194.866 75.8603 215.064 40.3467 215.064 40.3467L296.121 94.6128C296.121 94.6128 291.645 124.02 304.648 131.478C317.651 138.937 332.786 141.494 341.1 146.821C349.413 152.149 375.961 172.287 369.664 197.751C363.367 223.216 333.212 246.124 327.883 246.124Z" fill="#F5EFF8"/>
<path opacity="0.4" d="M119.45 244.411H75.2244L83.8428 209.806L131.017 202.375L119.45 244.411Z" fill="#D3CAD8" stroke="#D3CAD8" stroke-width="6" stroke-linecap="round" stroke-linejoin="round"/>
<path opacity="0.4" d="M187.781 193.613L174.126 191.479L165.592 86.0786C172.667 89.5645 177.271 89.7621 184.367 86.9321L196.102 117.656C196.102 117.656 203.783 133.231 205.704 145.393C207.624 157.555 200.583 171.423 199.729 176.117C198.876 180.811 187.781 193.613 187.781 193.613Z" fill="#D3CAD8" stroke="#D3CAD8" stroke-width="6" stroke-linecap="round" stroke-linejoin="round"/>
<path opacity="0.4" d="M206.771 203.214L219.146 210.042L357.618 163.102L346.523 152.647C346.523 152.647 258.405 153.074 244.75 153.074C231.094 153.074 221.066 166.943 217.013 170.783C212.959 174.624 206.771 203.214 206.771 203.214Z" fill="#D3CAD8" stroke="#D3CAD8" stroke-width="6" stroke-linecap="round" stroke-linejoin="round"/>
<path d="M230.027 244.153C230.027 237.345 228.526 230.603 225.61 224.313C222.693 218.022 218.418 212.307 213.03 207.492C207.641 202.678 201.243 198.859 194.202 196.253C187.161 193.648 179.614 192.307 171.993 192.307C164.372 192.307 156.825 193.648 149.784 196.253C142.743 198.859 136.346 202.678 130.957 207.492C125.568 212.307 121.293 218.022 118.376 224.313C115.46 230.603 113.959 237.345 113.959 244.153L171.993 244.153H230.027Z" fill="#8029CA" stroke="#6B22A9" stroke-width="6"/>
<rect x="115.24" y="234.125" width="113.935" height="9.3879" fill="#6B22A9"/>
<path d="M115.025 234.765H171.139M171.139 234.765V192.093M171.139 234.765H229.173" stroke="#6B22A9" stroke-width="6" stroke-linecap="round" stroke-linejoin="round"/>
<path d="M165.041 245.059C165.009 245.09 164.389 245.838 163.33 247.173C162.526 248.185 161.507 250.285 160.249 253.013C159.461 254.721 159.449 256.713 159.445 258.717C159.443 260.005 160.754 262.58 161.867 264.279C162.525 265.284 164.477 265.704 167.444 266.255C168.469 266.445 169.811 266.346 171.224 266.175C174.12 265.824 176.054 265.067 177.097 264.488C178.432 263.746 179.61 262.672 180.485 261.776C181.728 260.502 182.049 258.889 182.112 256.858C182.158 255.389 180.523 254.227 178.682 252.939C177.762 252.296 175.315 252.341 173.455 252.594C170.772 252.959 169.778 254.88 169.038 255.906C168.784 256.259 168.524 257.154 168.114 259.382C167.84 260.87 167.816 263.14 167.814 264.634C167.812 266.797 168.268 268.14 168.98 269.847C170.046 272.403 171.511 274.258 172.78 275.436C173.609 276.108 174.814 276.93 175.355 277.314C175.897 277.699 175.738 277.622 175.574 277.543" stroke="#6B22A9" stroke-width="6" stroke-linecap="round"/>
<path d="M24.9874 244.306H74.0606C74.0606 244.306 90.5628 235.475 91.4163 228.088C92.2697 220.702 40.9895 180.781 35.2288 180.781C29.468 180.781 3.60328 205.542 3.01121 209.906C2.41913 214.269 24.9874 244.306 24.9874 244.306Z" fill="#F5EFF8" stroke="#D3CAD8" stroke-width="6"/>
<path d="M66.7067 194.142C71.4835 193.198 70.8897 193.021 75.1311 194.719C75.1311 194.719 96.5155 214.69 98.0578 217.198C99.6001 219.707 107.047 238.1 107.047 238.1C107.047 238.1 84.3354 241.338 81.6075 241.493C78.8796 241.648 54.9888 235.803 54.9888 235.803C51.0869 234.421 50.3065 230.916 48.6791 227.019C43.0368 213.507 61.9299 195.086 66.7067 194.142Z" fill="#161616" stroke="black" stroke-width="6" stroke-linecap="round" stroke-linejoin="round"/>
<path d="M26.9087 98.0512C17.1843 104.464 11.5466 141.105 11.5466 141.105L56.1392 210.961L89.4235 226.367C89.4235 226.367 121.903 219.065 123.348 218.136C124.793 217.208 135.719 201.586 135.719 201.586L72.9947 95.9407C72.9947 95.9407 36.633 91.6386 26.9087 98.0512Z" fill="#F5EFF8" stroke="#D3CAD8" stroke-width="6"/>
<path d="M106.757 157.62C113.378 158.289 112.672 157.82 117.54 161.73C117.54 161.73 137.539 196.355 138.556 200.249C139.572 204.143 141.98 231.153 141.98 231.153C141.98 231.153 111.001 226.338 107.373 225.454C103.745 224.57 74.8432 207.412 74.8432 207.412C70.2928 204.051 69.5398 200.672 70.0939 193.416C70.6481 186.16 100.137 156.951 106.757 157.62Z" fill="#161616" stroke="black" stroke-width="6" stroke-linecap="round" stroke-linejoin="round"/>
<path d="M98.596 36.3604C81.2526 41.1403 70.0056 74.9064 70.0056 74.9064L79.3935 154.98L98.596 195.655C98.596 195.655 150.48 203.933 152.79 202.896C155.099 201.859 186.074 166.906 186.074 166.906L183.514 130.702C183.514 130.702 149.759 51.4732 148.096 47.4344C146.432 43.3956 115.94 31.5805 98.596 36.3604Z" fill="#F5EFF8" stroke="#D3CAD8" stroke-width="6"/>
<path d="M217.763 202.966C217.763 202.966 240.534 244.073 249.494 244.029C258.453 243.985 286.699 244.029 286.699 244.029H328.317C333.439 244.029 371.003 211.188 371.003 195.919C371.003 180.651 355.636 161.486 355.636 161.486H314.658H256.734C245.661 161.486 236.078 170.24 236.078 170.24L217.763 202.966Z" fill="#F5EFF8"/>
<path d="M286.699 244.029C286.699 244.029 323.195 244.029 328.317 244.029M286.699 244.029C286.699 244.029 258.453 243.985 249.494 244.029C240.534 244.073 217.763 202.966 217.763 202.966L236.078 170.24C236.078 170.24 245.661 161.486 256.734 161.486M286.699 244.029H328.317M256.734 161.486C267.808 161.486 314.658 161.486 314.658 161.486M256.734 161.486H314.658M314.658 161.486H355.636C355.636 161.486 371.003 180.651 371.003 195.919C371.003 211.188 333.439 244.029 328.317 244.029" stroke="#D3CAD8" stroke-width="6" stroke-linecap="round" stroke-linejoin="round"/>
<path fill-rule="evenodd" clip-rule="evenodd" d="M199.265 69.9584C197.131 75.5042 208.316 122.691 217.618 128.829C226.92 134.966 276.519 126.909 279.934 120.51C283.348 114.111 311.732 55.2409 311.732 55.2409C311.732 55.2409 306.003 13.6478 295.726 5.32921C285.449 -2.98938 234.05 13.6478 234.05 13.6478C234.05 13.6478 201.399 64.4126 199.265 69.9584Z" fill="#F5EFF8"/>
<path fill-rule="evenodd" clip-rule="evenodd" d="M199.265 69.9584C197.131 75.5042 208.316 122.691 217.618 128.829C226.92 134.966 276.519 126.909 279.934 120.51C283.348 114.111 311.732 55.2409 311.732 55.2409C311.732 55.2409 306.003 13.6478 295.726 5.32921C285.449 -2.98938 234.05 13.6478 234.05 13.6478C234.05 13.6478 201.399 64.4126 199.265 69.9584Z" stroke="#D3CAD8" stroke-width="6" stroke-linecap="round" stroke-linejoin="round"/>
<path d="M231.792 65.3973C225.443 67.3732 226.038 66.7804 222.07 71.5225C222.07 71.5225 209.898 102.346 209.372 112.818C208.846 123.29 212.348 143.246 212.348 143.246C212.348 143.246 235.958 136.331 245.085 130.798C254.212 125.266 271.473 106.298 271.473 106.298C275.243 102.148 275.045 95.8256 275.045 92.4666C275.045 89.1076 238.141 63.4214 231.792 65.3973Z" fill="#161616" stroke="black" stroke-width="6" stroke-linecap="round" stroke-linejoin="round"/>
<path d="M160.569 131.44C166.869 135.697 166.412 134.85 169.193 141.366C171.974 147.882 170.923 183.588 169.48 190.935C168.037 198.282 156.189 223.41 156.189 223.41C156.189 223.41 127.623 201.821 124.451 198.976C121.28 196.131 101.488 163.441 101.488 163.441C98.7292 157.642 101.141 150.951 104.289 146.998C107.437 143.044 154.269 127.183 160.569 131.44Z" fill="#161616" stroke="black" stroke-width="6" stroke-linecap="round" stroke-linejoin="round"/>
<path d="M292.946 242.007H261.847C261.847 242.007 247.716 243.574 235.017 234.957C222.317 226.34 199.422 189.382 199.422 189.382C233.65 191.541 278.874 194.469 287.068 194.91C295.262 195.351 297.456 198.86 297.235 201.24C296.812 205.822 293.119 243.266 292.946 242.007Z" fill="#161616" stroke="black" stroke-width="6" stroke-linecap="round"/>
</svg>
