<svg width="125" height="141" viewBox="0 0 125 141" fill="none" xmlns="http://www.w3.org/2000/svg">
<path d="M71.2871 8.834L119.248 49.0127L108.872 107.157L49.5012 130.911L5.94076 88.7879L16.3172 30.6436L71.2871 8.834Z" fill="#F5EFF8"/>
<path d="M16.3172 30.6436L15.5796 28.7846L14.544 29.1954L14.3483 30.2922L16.3172 30.6436ZM119.248 49.0127L121.217 49.3641L121.421 48.2236L120.533 47.4796L119.248 49.0127ZM71.2871 8.834L72.5714 7.30088C72.0084 6.82923 71.2322 6.70411 70.5495 6.97497L71.2871 8.834ZM5.94076 88.7879L3.97186 88.4365L3.78472 89.4851L4.55046 90.2256L5.94076 88.7879ZM49.5012 130.911L48.1109 132.349C48.6773 132.896 49.5126 133.06 50.2441 132.768L49.5012 130.911ZM108.872 107.157L109.615 109.014L110.646 108.601L110.841 107.508L108.872 107.157ZM16.3172 30.6436L14.9821 32.1327L59.0146 71.6103L60.3497 70.1212L61.6848 68.632L17.6523 29.1545L16.3172 30.6436ZM60.3497 70.1212L61.0245 72.0039L119.923 50.8954L119.248 49.0127L118.573 47.13L59.675 68.2384L60.3497 70.1212ZM119.248 49.0127L120.533 47.4796L72.5714 7.30088L71.2871 8.834L70.0027 10.3671L117.964 50.5458L119.248 49.0127ZM71.2871 8.834L70.5495 6.97497L15.5796 28.7846L16.3172 30.6436L17.0548 32.5026L72.0246 10.693L71.2871 8.834ZM5.94076 88.7879L4.55046 90.2256L48.1109 132.349L49.5012 130.911L50.8915 129.473L7.33105 87.3501L5.94076 88.7879ZM49.5012 130.911L51.4701 131.262L62.3186 70.4726L60.3497 70.1212L58.3808 69.7698L47.5323 130.559L49.5012 130.911ZM16.3172 30.6436L14.3483 30.2922L3.97186 88.4365L5.94076 88.7879L7.90965 89.1392L18.2861 30.995L16.3172 30.6436ZM49.5012 130.911L50.2441 132.768L109.615 109.014L108.872 107.157L108.129 105.3L48.7583 129.054L49.5012 130.911ZM108.872 107.157L110.841 107.508L121.217 49.3641L119.248 49.0127L117.279 48.6613L106.903 106.806L108.872 107.157Z" fill="#D3CAD8"/>
<ellipse cx="67.3914" cy="39.7577" rx="8.77962" ry="7.18332" transform="rotate(10.1185 67.3914 39.7577)" fill="#D3CAD8"/>
<circle cx="25.6387" cy="64.7368" r="7.18332" transform="rotate(10.1185 25.6387 64.7368)" fill="#D3CAD8"/>
<circle cx="35.295" cy="92.4049" r="7.18332" transform="rotate(10.1185 35.295 92.4049)" fill="#D3CAD8"/>
<circle cx="71.8889" cy="105.422" r="7.18332" transform="rotate(10.1185 71.8889 105.422)" fill="#D3CAD8"/>
<circle cx="86.255" cy="88.5259" r="7.18332" transform="rotate(10.1185 86.255 88.5259)" fill="#D3CAD8"/>
<circle cx="100.339" cy="73.2038" r="7.18332" transform="rotate(10.1185 100.339 73.2038)" fill="#D3CAD8"/>
</svg>
