<svg width="1607" height="324" viewBox="0 0 1607 324" fill="none" xmlns="http://www.w3.org/2000/svg">
<path d="M327.883 274.124C322.554 274.124 74.0778 274.322 74.0778 274.322L163.956 113.45C163.956 113.45 180.37 118.351 187.618 111.106C194.866 103.86 215.064 68.3467 215.064 68.3467L296.121 122.613C296.121 122.613 291.644 152.02 304.648 159.478C317.651 166.937 332.786 169.494 341.1 174.821C349.413 180.149 375.961 200.287 369.664 225.751C363.367 251.216 333.212 274.124 327.883 274.124Z" fill="#F5EFF8"/>
<path opacity="0.4" d="M119.45 272.411H75.2242L83.8427 237.806L131.017 230.375L119.45 272.411Z" fill="#D3CAD8" stroke="#D3CAD8" stroke-width="6" stroke-linecap="round" stroke-linejoin="round"/>
<path opacity="0.4" d="M187.781 221.613L174.126 219.479L165.591 114.079C172.666 117.565 177.271 117.762 184.367 114.932L196.102 145.656C196.102 145.656 203.783 161.231 205.703 173.393C207.624 185.555 200.583 199.423 199.729 204.117C198.876 208.811 187.781 221.613 187.781 221.613Z" fill="#D3CAD8" stroke="#D3CAD8" stroke-width="6" stroke-linecap="round" stroke-linejoin="round"/>
<path opacity="0.4" d="M206.771 231.214L219.146 238.042L357.618 191.102L346.523 180.647C346.523 180.647 258.405 181.074 244.749 181.074C231.094 181.074 221.066 194.943 217.012 198.783C212.959 202.624 206.771 231.214 206.771 231.214Z" fill="#D3CAD8" stroke="#D3CAD8" stroke-width="6" stroke-linecap="round" stroke-linejoin="round"/>
<path d="M230.027 272.153C230.027 265.345 228.526 258.603 225.61 252.313C222.693 246.022 218.418 240.307 213.029 235.492C207.64 230.678 201.243 226.859 194.202 224.253C187.161 221.648 179.614 220.307 171.993 220.307C164.372 220.307 156.825 221.648 149.784 224.253C142.743 226.859 136.345 230.678 130.956 235.492C125.567 240.307 121.293 246.022 118.376 252.313C115.46 258.603 113.959 265.345 113.959 272.153L171.993 272.153H230.027Z" fill="#8029CA" stroke="#6B22A9" stroke-width="6"/>
<rect x="115.24" y="262.125" width="113.935" height="9.3879" fill="#6B22A9"/>
<path d="M115.025 262.765H171.139M171.139 262.765V220.093M171.139 262.765H229.173" stroke="#6B22A9" stroke-width="6" stroke-linecap="round" stroke-linejoin="round"/>
<path d="M165.041 273.059C165.009 273.09 164.389 273.838 163.329 275.173C162.526 276.185 161.507 278.285 160.249 281.013C159.461 282.721 159.449 284.713 159.445 286.717C159.443 288.005 160.754 290.58 161.867 292.279C162.525 293.284 164.477 293.704 167.444 294.255C168.469 294.445 169.811 294.346 171.224 294.175C174.12 293.824 176.054 293.067 177.097 292.488C178.432 291.746 179.61 290.672 180.485 289.776C181.728 288.502 182.049 286.889 182.112 284.858C182.158 283.389 180.523 282.227 178.682 280.939C177.762 280.296 175.315 280.341 173.455 280.594C170.772 280.959 169.778 282.88 169.038 283.906C168.784 284.259 168.524 285.154 168.114 287.382C167.84 288.87 167.816 291.14 167.814 292.634C167.812 294.797 168.268 296.14 168.98 297.847C170.046 300.403 171.511 302.258 172.779 303.436C173.609 304.108 174.814 304.93 175.355 305.314C175.896 305.699 175.738 305.622 175.574 305.543" stroke="#6B22A9" stroke-width="6" stroke-linecap="round"/>
<path d="M24.9873 272.306H74.0604C74.0604 272.306 90.5627 263.475 91.4161 256.088C92.2696 248.702 40.9894 208.781 35.2287 208.781C29.4679 208.781 3.60316 233.542 3.01108 237.906C2.41901 242.269 24.9873 272.306 24.9873 272.306Z" fill="#F5EFF8" stroke="#D3CAD8" stroke-width="6"/>
<path d="M66.7066 222.142C71.4834 221.198 70.8896 221.021 75.131 222.719C75.131 222.719 96.5154 242.69 98.0577 245.198C99.6 247.707 107.047 266.1 107.047 266.1C107.047 266.1 84.3353 269.338 81.6074 269.493C78.8795 269.648 54.9887 263.803 54.9887 263.803C51.0867 262.421 50.3064 258.916 48.679 255.019C43.0367 241.507 61.9298 223.086 66.7066 222.142Z" fill="#161616" stroke="black" stroke-width="6" stroke-linecap="round" stroke-linejoin="round"/>
<path d="M26.9085 126.051C17.1842 132.464 11.5465 169.105 11.5465 169.105L56.139 238.961L89.4234 254.367C89.4234 254.367 121.903 247.065 123.348 246.136C124.793 245.208 135.719 229.586 135.719 229.586L72.9946 123.941C72.9946 123.941 36.6329 119.639 26.9085 126.051Z" fill="#F5EFF8" stroke="#D3CAD8" stroke-width="6"/>
<path d="M106.757 185.62C113.378 186.289 112.672 185.82 117.54 189.73C117.54 189.73 137.539 224.355 138.555 228.249C139.572 232.143 141.98 259.153 141.98 259.153C141.98 259.153 111.001 254.338 107.373 253.454C103.745 252.57 74.843 235.412 74.843 235.412C70.2926 232.051 69.5396 228.672 70.0938 221.416C70.648 214.16 100.137 184.951 106.757 185.62Z" fill="#161616" stroke="black" stroke-width="6" stroke-linecap="round" stroke-linejoin="round"/>
<path d="M98.5959 64.3604C81.2524 69.1403 70.0055 102.906 70.0055 102.906L79.3934 182.98L98.5959 223.655C98.5959 223.655 150.48 231.933 152.79 230.896C155.099 229.859 186.074 194.906 186.074 194.906L183.514 158.702C183.514 158.702 149.759 79.4732 148.096 75.4344C146.432 71.3956 115.939 59.5805 98.5959 64.3604Z" fill="#F5EFF8" stroke="#D3CAD8" stroke-width="6"/>
<path d="M217.763 230.966C217.763 230.966 240.534 272.073 249.494 272.029C258.453 271.985 286.699 272.029 286.699 272.029H328.317C333.439 272.029 371.003 239.188 371.003 223.919C371.003 208.651 355.636 189.486 355.636 189.486H314.658H256.734C245.66 189.486 236.077 198.24 236.077 198.24L217.763 230.966Z" fill="#F5EFF8"/>
<path d="M286.699 272.029C286.699 272.029 323.195 272.029 328.317 272.029M286.699 272.029C286.699 272.029 258.453 271.985 249.494 272.029C240.534 272.073 217.763 230.966 217.763 230.966L236.077 198.24C236.077 198.24 245.66 189.486 256.734 189.486M286.699 272.029H328.317M256.734 189.486C267.808 189.486 314.658 189.486 314.658 189.486M256.734 189.486H314.658M314.658 189.486H355.636C355.636 189.486 371.003 208.651 371.003 223.919C371.003 239.188 333.439 272.029 328.317 272.029" stroke="#D3CAD8" stroke-width="6" stroke-linecap="round" stroke-linejoin="round"/>
<path fill-rule="evenodd" clip-rule="evenodd" d="M215.735 69.9584C213.601 75.5042 224.787 122.691 234.089 128.829C243.391 134.966 292.99 126.909 296.405 120.51C299.819 114.111 328.203 55.2409 328.203 55.2409C328.203 55.2409 322.474 13.6478 312.197 5.32921C301.92 -2.98938 250.521 13.6478 250.521 13.6478C250.521 13.6478 217.869 64.4126 215.735 69.9584Z" fill="#F5EFF8"/>
<path fill-rule="evenodd" clip-rule="evenodd" d="M215.735 69.9584C213.601 75.5042 224.787 122.691 234.089 128.829C243.391 134.966 292.99 126.909 296.405 120.51C299.819 114.111 328.203 55.2409 328.203 55.2409C328.203 55.2409 322.474 13.6478 312.197 5.32921C301.92 -2.98938 250.521 13.6478 250.521 13.6478C250.521 13.6478 217.869 64.4126 215.735 69.9584Z" stroke="#D3CAD8" stroke-width="6" stroke-linecap="round" stroke-linejoin="round"/>
<path d="M248.263 65.3973C241.914 67.3732 242.509 66.7804 238.541 71.5225C238.541 71.5225 226.368 102.346 225.843 112.818C225.317 123.29 228.819 143.246 228.819 143.246C228.819 143.246 252.429 136.331 261.556 130.798C270.683 125.266 287.944 106.298 287.944 106.298C291.714 102.148 291.515 95.8256 291.515 92.4666C291.515 89.1076 254.612 63.4214 248.263 65.3973Z" fill="#161616" stroke="black" stroke-width="6" stroke-linecap="round" stroke-linejoin="round"/>
<path d="M160.569 159.44C166.868 163.697 166.412 162.85 169.193 169.366C171.974 175.882 170.923 211.588 169.48 218.935C168.036 226.282 156.189 251.41 156.189 251.41C156.189 251.41 127.623 229.821 124.451 226.976C121.279 224.131 101.488 191.441 101.488 191.441C98.7291 185.642 101.141 178.951 104.289 174.998C107.437 171.044 154.269 155.183 160.569 159.44Z" fill="#161616" stroke="black" stroke-width="6" stroke-linecap="round" stroke-linejoin="round"/>
<path d="M292.946 270.007H261.847C261.847 270.007 247.716 271.574 235.017 262.957C222.317 254.34 199.422 217.382 199.422 217.382C233.649 219.541 278.873 222.469 287.068 222.91C295.262 223.351 297.456 226.86 297.235 229.24C296.812 233.822 293.119 271.266 292.946 270.007Z" fill="#161616" stroke="black" stroke-width="6" stroke-linecap="round"/>
<path d="M738.883 274.124C733.554 274.124 485.078 274.322 485.078 274.322L574.956 113.45C574.956 113.45 591.37 118.351 598.618 111.106C605.866 103.86 626.064 68.3467 626.064 68.3467L707.121 122.613C707.121 122.613 702.644 152.02 715.648 159.478C728.651 166.937 743.786 169.494 752.1 174.821C760.413 180.149 786.961 200.287 780.664 225.751C774.367 251.216 744.212 274.124 738.883 274.124Z" fill="#F5EFF8"/>
<path opacity="0.4" d="M530.45 272.411H486.224L494.843 237.806L542.017 230.375L530.45 272.411Z" fill="#D3CAD8" stroke="#D3CAD8" stroke-width="6" stroke-linecap="round" stroke-linejoin="round"/>
<path opacity="0.4" d="M598.781 221.613L585.126 219.479L576.591 114.079C583.666 117.565 588.271 117.762 595.367 114.932L607.102 145.656C607.102 145.656 614.783 161.231 616.703 173.393C618.624 185.555 611.583 199.423 610.729 204.117C609.876 208.811 598.781 221.613 598.781 221.613Z" fill="#D3CAD8" stroke="#D3CAD8" stroke-width="6" stroke-linecap="round" stroke-linejoin="round"/>
<path opacity="0.4" d="M617.771 231.214L630.146 238.042L768.618 191.102L757.523 180.647C757.523 180.647 669.405 181.074 655.749 181.074C642.094 181.074 632.066 194.943 628.012 198.783C623.959 202.624 617.771 231.214 617.771 231.214Z" fill="#D3CAD8" stroke="#D3CAD8" stroke-width="6" stroke-linecap="round" stroke-linejoin="round"/>
<path d="M641.027 272.153C641.027 265.345 639.526 258.603 636.61 252.313C633.693 246.022 629.418 240.307 624.029 235.492C618.64 230.678 612.243 226.859 605.202 224.253C598.161 221.648 590.614 220.307 582.993 220.307C575.372 220.307 567.825 221.648 560.784 224.253C553.743 226.859 547.345 230.678 541.956 235.492C536.567 240.307 532.293 246.022 529.376 252.313C526.46 258.603 524.959 265.345 524.959 272.153L582.993 272.153H641.027Z" fill="#8029CA" stroke="#6B22A9" stroke-width="6"/>
<rect x="526.24" y="262.125" width="113.935" height="9.3879" fill="#6B22A9"/>
<path d="M526.025 262.765H582.139M582.139 262.765V220.093M582.139 262.765H640.173" stroke="#6B22A9" stroke-width="6" stroke-linecap="round" stroke-linejoin="round"/>
<path d="M576.041 273.059C576.009 273.09 575.389 273.838 574.329 275.173C573.526 276.185 572.507 278.285 571.249 281.013C570.461 282.721 570.449 284.713 570.445 286.717C570.443 288.005 571.754 290.58 572.867 292.279C573.525 293.284 575.477 293.704 578.444 294.255C579.469 294.445 580.811 294.346 582.224 294.175C585.12 293.824 587.054 293.067 588.097 292.488C589.432 291.746 590.61 290.672 591.485 289.776C592.728 288.502 593.049 286.889 593.112 284.858C593.158 283.389 591.523 282.227 589.682 280.939C588.762 280.296 586.315 280.341 584.455 280.594C581.772 280.959 580.778 282.88 580.038 283.906C579.784 284.259 579.524 285.154 579.114 287.382C578.84 288.87 578.816 291.14 578.814 292.634C578.812 294.797 579.268 296.14 579.98 297.847C581.046 300.403 582.511 302.258 583.779 303.436C584.609 304.108 585.814 304.93 586.355 305.314C586.896 305.699 586.738 305.622 586.574 305.543" stroke="#6B22A9" stroke-width="6" stroke-linecap="round"/>
<path d="M435.987 272.306H485.06C485.06 272.306 501.563 263.475 502.416 256.088C503.27 248.702 451.989 208.781 446.229 208.781C440.468 208.781 414.603 233.542 414.011 237.906C413.419 242.269 435.987 272.306 435.987 272.306Z" fill="#F5EFF8" stroke="#D3CAD8" stroke-width="6"/>
<path d="M477.707 222.142C482.483 221.198 481.89 221.021 486.131 222.719C486.131 222.719 507.515 242.69 509.058 245.198C510.6 247.707 518.047 266.1 518.047 266.1C518.047 266.1 495.335 269.338 492.607 269.493C489.88 269.648 465.989 263.803 465.989 263.803C462.087 262.421 461.306 258.916 459.679 255.019C454.037 241.507 472.93 223.086 477.707 222.142Z" fill="#161616" stroke="black" stroke-width="6" stroke-linecap="round" stroke-linejoin="round"/>
<path d="M437.909 126.051C428.184 132.464 422.547 169.105 422.547 169.105L467.139 238.961L500.423 254.367C500.423 254.367 532.903 247.065 534.348 246.136C535.793 245.208 546.719 229.586 546.719 229.586L483.995 123.941C483.995 123.941 447.633 119.639 437.909 126.051Z" fill="#F5EFF8" stroke="#D3CAD8" stroke-width="6"/>
<path d="M517.757 185.62C524.378 186.289 523.672 185.82 528.54 189.73C528.54 189.73 548.539 224.355 549.555 228.249C550.572 232.143 552.98 259.153 552.98 259.153C552.98 259.153 522.001 254.338 518.373 253.454C514.745 252.57 485.843 235.412 485.843 235.412C481.293 232.051 480.54 228.672 481.094 221.416C481.648 214.16 511.137 184.951 517.757 185.62Z" fill="#161616" stroke="black" stroke-width="6" stroke-linecap="round" stroke-linejoin="round"/>
<path d="M509.596 64.3604C492.252 69.1403 481.005 102.906 481.005 102.906L490.393 182.98L509.596 223.655C509.596 223.655 561.48 231.933 563.79 230.896C566.099 229.859 597.074 194.906 597.074 194.906L594.514 158.702C594.514 158.702 560.759 79.4732 559.096 75.4344C557.432 71.3956 526.939 59.5805 509.596 64.3604Z" fill="#F5EFF8" stroke="#D3CAD8" stroke-width="6"/>
<path d="M628.763 230.966C628.763 230.966 651.534 272.073 660.494 272.029C669.453 271.985 697.699 272.029 697.699 272.029H739.317C744.439 272.029 782.003 239.188 782.003 223.919C782.003 208.651 766.636 189.486 766.636 189.486H725.658H667.734C656.66 189.486 647.077 198.24 647.077 198.24L628.763 230.966Z" fill="#F5EFF8"/>
<path d="M697.699 272.029C697.699 272.029 734.195 272.029 739.317 272.029M697.699 272.029C697.699 272.029 669.453 271.985 660.494 272.029C651.534 272.073 628.763 230.966 628.763 230.966L647.077 198.24C647.077 198.24 656.66 189.486 667.734 189.486M697.699 272.029H739.317M667.734 189.486C678.808 189.486 725.658 189.486 725.658 189.486M667.734 189.486H725.658M725.658 189.486H766.636C766.636 189.486 782.003 208.651 782.003 223.919C782.003 239.188 744.439 272.029 739.317 272.029" stroke="#D3CAD8" stroke-width="6" stroke-linecap="round" stroke-linejoin="round"/>
<path fill-rule="evenodd" clip-rule="evenodd" d="M610.264 97.9584C608.13 103.504 619.316 150.691 628.618 156.829C637.92 162.966 687.519 154.909 690.934 148.51C694.348 142.111 722.732 83.2409 722.732 83.2409C722.732 83.2409 717.003 41.6478 706.726 33.3292C696.449 25.0106 645.05 41.6478 645.05 41.6478C645.05 41.6478 612.399 92.4126 610.264 97.9584Z" fill="#F5EFF8"/>
<path fill-rule="evenodd" clip-rule="evenodd" d="M610.264 97.9584C608.13 103.504 619.316 150.691 628.618 156.829C637.92 162.966 687.519 154.909 690.934 148.51C694.348 142.111 722.732 83.2409 722.732 83.2409C722.732 83.2409 717.003 41.6478 706.726 33.3292C696.449 25.0106 645.05 41.6478 645.05 41.6478C645.05 41.6478 612.399 92.4126 610.264 97.9584Z" stroke="#D3CAD8" stroke-width="6" stroke-linecap="round" stroke-linejoin="round"/>
<path d="M642.792 93.3973C636.443 95.3732 637.038 94.7804 633.07 99.5225C633.07 99.5225 620.898 130.346 620.372 140.818C619.846 151.29 623.348 171.246 623.348 171.246C623.348 171.246 646.958 164.331 656.085 158.798C665.212 153.266 682.473 134.298 682.473 134.298C686.243 130.148 686.045 123.826 686.045 120.467C686.044 117.108 649.141 91.4214 642.792 93.3973Z" fill="#161616" stroke="black" stroke-width="6" stroke-linecap="round" stroke-linejoin="round"/>
<path d="M571.569 159.44C577.868 163.697 577.412 162.85 580.193 169.366C582.974 175.882 581.923 211.588 580.48 218.935C579.036 226.282 567.189 251.41 567.189 251.41C567.189 251.41 538.623 229.821 535.451 226.976C532.279 224.131 512.488 191.441 512.488 191.441C509.729 185.642 512.141 178.951 515.289 174.998C518.437 171.044 565.269 155.183 571.569 159.44Z" fill="#161616" stroke="black" stroke-width="6" stroke-linecap="round" stroke-linejoin="round"/>
<path d="M703.946 270.007H672.847C672.847 270.007 658.716 271.574 646.017 262.957C633.317 254.34 610.422 217.382 610.422 217.382C644.649 219.541 689.873 222.469 698.068 222.91C706.262 223.351 708.456 226.86 708.235 229.24C707.812 233.822 704.119 271.266 703.946 270.007Z" fill="#161616" stroke="black" stroke-width="6" stroke-linecap="round"/>
<path d="M1149.88 274.124C1144.55 274.124 896.078 274.322 896.078 274.322L985.956 113.45C985.956 113.45 1002.37 118.351 1009.62 111.106C1016.87 103.86 1025 96.5 1025 96.5L1113.5 121C1113.5 121 1113.64 152.02 1126.65 159.478C1139.65 166.937 1154.79 169.494 1163.1 174.821C1171.41 180.149 1197.96 200.287 1191.66 225.751C1185.37 251.216 1155.21 274.124 1149.88 274.124Z" fill="#F5EFF8"/>
<path opacity="0.4" d="M941.45 272.411H897.224L905.843 237.806L953.017 230.375L941.45 272.411Z" fill="#D3CAD8" stroke="#D3CAD8" stroke-width="6" stroke-linecap="round" stroke-linejoin="round"/>
<path opacity="0.4" d="M1009.78 221.613L996.126 219.479L987.591 114.079C994.666 117.565 999.271 117.762 1006.37 114.932L1018.1 145.656C1018.1 145.656 1025.78 161.231 1027.7 173.393C1029.62 185.555 1022.58 199.423 1021.73 204.117C1020.88 208.811 1009.78 221.613 1009.78 221.613Z" fill="#D3CAD8" stroke="#D3CAD8" stroke-width="6" stroke-linecap="round" stroke-linejoin="round"/>
<path opacity="0.4" d="M1028.77 231.214L1041.15 238.042L1179.62 191.102L1168.52 180.647C1168.52 180.647 1080.4 181.074 1066.75 181.074C1053.09 181.074 1043.07 194.943 1039.01 198.783C1034.96 202.624 1028.77 231.214 1028.77 231.214Z" fill="#D3CAD8" stroke="#D3CAD8" stroke-width="6" stroke-linecap="round" stroke-linejoin="round"/>
<path d="M1052.03 272.153C1052.03 265.345 1050.53 258.603 1047.61 252.313C1044.69 246.022 1040.42 240.307 1035.03 235.492C1029.64 230.678 1023.24 226.859 1016.2 224.253C1009.16 221.648 1001.61 220.307 993.993 220.307C986.372 220.307 978.825 221.648 971.784 224.253C964.743 226.859 958.345 230.678 952.956 235.492C947.567 240.307 943.293 246.022 940.376 252.313C937.46 258.603 935.959 265.345 935.959 272.153L993.993 272.153H1052.03Z" fill="#8029CA" stroke="#6B22A9" stroke-width="6"/>
<rect x="937.24" y="262.125" width="113.935" height="9.3879" fill="#6B22A9"/>
<path d="M937.025 262.765H993.139M993.139 262.765V220.093M993.139 262.765H1051.17" stroke="#6B22A9" stroke-width="6" stroke-linecap="round" stroke-linejoin="round"/>
<path d="M987.041 273.059C987.009 273.09 986.389 273.838 985.329 275.173C984.526 276.185 983.507 278.285 982.249 281.013C981.461 282.721 981.449 284.713 981.445 286.717C981.443 288.005 982.754 290.58 983.867 292.279C984.525 293.284 986.477 293.704 989.444 294.255C990.469 294.445 991.811 294.346 993.224 294.175C996.12 293.824 998.054 293.067 999.097 292.488C1000.43 291.746 1001.61 290.672 1002.49 289.776C1003.73 288.502 1004.05 286.889 1004.11 284.858C1004.16 283.389 1002.52 282.227 1000.68 280.939C999.762 280.296 997.315 280.341 995.455 280.594C992.772 280.959 991.778 282.88 991.038 283.906C990.784 284.259 990.524 285.154 990.114 287.382C989.84 288.87 989.816 291.14 989.814 292.634C989.812 294.797 990.268 296.14 990.98 297.847C992.046 300.403 993.511 302.258 994.779 303.436C995.609 304.108 996.814 304.93 997.355 305.314C997.896 305.699 997.738 305.622 997.574 305.543" stroke="#6B22A9" stroke-width="6" stroke-linecap="round"/>
<path d="M846.987 272.306H896.06C896.06 272.306 912.563 263.475 913.416 256.088C914.27 248.702 862.989 208.781 857.229 208.781C851.468 208.781 825.603 233.542 825.011 237.906C824.419 242.269 846.987 272.306 846.987 272.306Z" fill="#F5EFF8" stroke="#D3CAD8" stroke-width="6"/>
<path d="M888.707 222.142C893.483 221.198 892.89 221.021 897.131 222.719C897.131 222.719 918.515 242.69 920.058 245.198C921.6 247.707 929.047 266.1 929.047 266.1C929.047 266.1 906.335 269.338 903.607 269.493C900.88 269.648 876.989 263.803 876.989 263.803C873.087 262.421 872.306 258.916 870.679 255.019C865.037 241.507 883.93 223.086 888.707 222.142Z" fill="#161616" stroke="black" stroke-width="6" stroke-linecap="round" stroke-linejoin="round"/>
<path d="M848.909 126.051C839.184 132.464 833.547 169.105 833.547 169.105L878.139 238.961L911.423 254.367C911.423 254.367 943.903 247.065 945.348 246.136C946.793 245.208 957.719 229.586 957.719 229.586L894.995 123.941C894.995 123.941 858.633 119.639 848.909 126.051Z" fill="#F5EFF8" stroke="#D3CAD8" stroke-width="6"/>
<path d="M928.757 185.62C935.378 186.289 934.672 185.82 939.54 189.73C939.54 189.73 959.539 224.355 960.555 228.249C961.572 232.143 963.98 259.153 963.98 259.153C963.98 259.153 933.001 254.338 929.373 253.454C925.745 252.57 896.843 235.412 896.843 235.412C892.293 232.051 891.54 228.672 892.094 221.416C892.648 214.16 922.137 184.951 928.757 185.62Z" fill="#161616" stroke="black" stroke-width="6" stroke-linecap="round" stroke-linejoin="round"/>
<path d="M920.596 64.3604C903.252 69.1403 892.005 102.906 892.005 102.906L901.393 182.98L920.596 223.655C920.596 223.655 972.48 231.933 974.79 230.896C977.099 229.859 1008.07 194.906 1008.07 194.906L1005.51 158.702C1005.51 158.702 971.759 79.4732 970.096 75.4344C968.432 71.3956 937.939 59.5805 920.596 64.3604Z" fill="#F5EFF8" stroke="#D3CAD8" stroke-width="6"/>
<path d="M1039.76 230.966C1039.76 230.966 1062.53 272.073 1071.49 272.029C1080.45 271.985 1108.7 272.029 1108.7 272.029H1150.32C1155.44 272.029 1193 239.188 1193 223.919C1193 208.651 1177.64 189.486 1177.64 189.486H1136.66H1078.73C1067.66 189.486 1058.08 198.24 1058.08 198.24L1039.76 230.966Z" fill="#F5EFF8"/>
<path d="M1108.7 272.029C1108.7 272.029 1145.19 272.029 1150.32 272.029M1108.7 272.029C1108.7 272.029 1080.45 271.985 1071.49 272.029C1062.53 272.073 1039.76 230.966 1039.76 230.966L1058.08 198.24C1058.08 198.24 1067.66 189.486 1078.73 189.486M1108.7 272.029H1150.32M1078.73 189.486C1089.81 189.486 1136.66 189.486 1136.66 189.486M1078.73 189.486H1136.66M1136.66 189.486H1177.64C1177.64 189.486 1193 208.651 1193 223.919C1193 239.188 1155.44 272.029 1150.32 272.029" stroke="#D3CAD8" stroke-width="6" stroke-linecap="round" stroke-linejoin="round"/>
<path fill-rule="evenodd" clip-rule="evenodd" d="M1003.26 129.958C1001.13 135.504 1012.32 182.691 1021.62 188.829C1030.92 194.966 1080.52 186.909 1083.93 180.51C1087.35 174.111 1115.73 115.241 1115.73 115.241C1115.73 115.241 1110 73.6478 1099.73 65.3292C1089.45 57.0106 1038.05 73.6478 1038.05 73.6478C1038.05 73.6478 1005.4 124.413 1003.26 129.958Z" fill="#F5EFF8"/>
<path fill-rule="evenodd" clip-rule="evenodd" d="M1003.26 129.958C1001.13 135.504 1012.32 182.691 1021.62 188.829C1030.92 194.966 1080.52 186.909 1083.93 180.51C1087.35 174.111 1115.73 115.241 1115.73 115.241C1115.73 115.241 1110 73.6478 1099.73 65.3292C1089.45 57.0106 1038.05 73.6478 1038.05 73.6478C1038.05 73.6478 1005.4 124.413 1003.26 129.958Z" stroke="#D3CAD8" stroke-width="6" stroke-linecap="round" stroke-linejoin="round"/>
<path d="M1035.79 125.397C1029.44 127.373 1030.04 126.78 1026.07 131.522C1026.07 131.522 1013.9 162.346 1013.37 172.818C1012.85 183.29 1016.35 203.246 1016.35 203.246C1016.35 203.246 1039.96 196.331 1049.08 190.798C1058.21 185.266 1075.47 166.298 1075.47 166.298C1079.24 162.148 1079.04 155.826 1079.04 152.467C1079.04 149.108 1042.14 123.421 1035.79 125.397Z" fill="#161616" stroke="black" stroke-width="6" stroke-linecap="round" stroke-linejoin="round"/>
<path d="M982.569 159.44C988.868 163.697 988.412 162.85 991.193 169.366C993.974 175.882 992.923 211.588 991.48 218.935C990.036 226.282 978.189 251.41 978.189 251.41C978.189 251.41 949.623 229.821 946.451 226.976C943.279 224.131 923.488 191.441 923.488 191.441C920.729 185.642 923.141 178.951 926.289 174.998C929.437 171.044 976.269 155.183 982.569 159.44Z" fill="#161616" stroke="black" stroke-width="6" stroke-linecap="round" stroke-linejoin="round"/>
<path d="M1114.95 270.007H1083.85C1083.85 270.007 1069.72 271.574 1057.02 262.957C1044.32 254.34 1021.42 217.382 1021.42 217.382C1055.65 219.541 1100.87 222.469 1109.07 222.91C1117.26 223.351 1119.46 226.86 1119.24 229.24C1118.81 233.822 1115.12 271.266 1114.95 270.007Z" fill="#161616" stroke="black" stroke-width="6" stroke-linecap="round"/>
<path d="M1560.88 274.124C1555.55 274.124 1307.08 274.321 1307.08 274.321L1396.96 113.449C1396.96 113.449 1412.25 120.695 1419.5 113.449C1426.75 106.204 1436.5 105 1436.5 105L1518.5 124.5C1518.5 124.5 1524.64 152.02 1537.65 159.478C1550.65 166.937 1565.79 169.494 1574.1 174.821C1582.41 180.149 1608.96 200.286 1602.66 225.751C1596.37 251.216 1566.21 274.124 1560.88 274.124Z" fill="#F5EFF8"/>
<path opacity="0.4" d="M1352.45 272.411H1308.22L1316.84 237.806L1364.02 230.375L1352.45 272.411Z" fill="#D3CAD8" stroke="#D3CAD8" stroke-width="6" stroke-linecap="round" stroke-linejoin="round"/>
<path opacity="0.4" d="M1420.78 221.613L1407.13 219.479L1398.59 114.079C1405.67 117.565 1410.27 117.762 1417.37 114.932L1429.1 145.656C1429.1 145.656 1436.78 161.231 1438.7 173.393C1440.62 185.555 1433.58 199.423 1432.73 204.117C1431.88 208.811 1420.78 221.613 1420.78 221.613Z" fill="#D3CAD8" stroke="#D3CAD8" stroke-width="6" stroke-linecap="round" stroke-linejoin="round"/>
<path opacity="0.4" d="M1439.77 231.214L1452.15 238.042L1590.62 191.102L1579.52 180.647C1579.52 180.647 1491.4 181.074 1477.75 181.074C1464.09 181.074 1454.07 194.943 1450.01 198.783C1445.96 202.624 1439.77 231.214 1439.77 231.214Z" fill="#D3CAD8" stroke="#D3CAD8" stroke-width="6" stroke-linecap="round" stroke-linejoin="round"/>
<path d="M1463.03 272.153C1463.03 265.345 1461.53 258.603 1458.61 252.313C1455.69 246.022 1451.42 240.307 1446.03 235.492C1440.64 230.678 1434.24 226.859 1427.2 224.253C1420.16 221.648 1412.61 220.307 1404.99 220.307C1397.37 220.307 1389.83 221.648 1382.78 224.253C1375.74 226.859 1369.35 230.678 1363.96 235.492C1358.57 240.307 1354.29 246.022 1351.38 252.313C1348.46 258.603 1346.96 265.345 1346.96 272.153L1404.99 272.153H1463.03Z" fill="#8029CA" stroke="#6B22A9" stroke-width="6"/>
<rect x="1348.24" y="262.125" width="113.935" height="9.3879" fill="#6B22A9"/>
<path d="M1348.02 262.765H1404.14M1404.14 262.765V220.093M1404.14 262.765H1462.17" stroke="#6B22A9" stroke-width="6" stroke-linecap="round" stroke-linejoin="round"/>
<path d="M1398.04 273.059C1398.01 273.09 1397.39 273.838 1396.33 275.173C1395.53 276.185 1394.51 278.285 1393.25 281.013C1392.46 282.721 1392.45 284.713 1392.44 286.717C1392.44 288.005 1393.75 290.58 1394.87 292.279C1395.52 293.284 1397.48 293.704 1400.44 294.255C1401.47 294.445 1402.81 294.346 1404.22 294.175C1407.12 293.824 1409.05 293.067 1410.1 292.488C1411.43 291.746 1412.61 290.672 1413.49 289.776C1414.73 288.502 1415.05 286.889 1415.11 284.858C1415.16 283.389 1413.52 282.227 1411.68 280.939C1410.76 280.296 1408.31 280.341 1406.45 280.594C1403.77 280.959 1402.78 282.88 1402.04 283.906C1401.78 284.259 1401.52 285.154 1401.11 287.382C1400.84 288.87 1400.82 291.14 1400.81 292.634C1400.81 294.797 1401.27 296.14 1401.98 297.847C1403.05 300.403 1404.51 302.258 1405.78 303.436C1406.61 304.108 1407.81 304.93 1408.36 305.314C1408.9 305.699 1408.74 305.622 1408.57 305.543" stroke="#6B22A9" stroke-width="6" stroke-linecap="round"/>
<path d="M1257.99 272.306H1307.06C1307.06 272.306 1323.56 263.475 1324.42 256.088C1325.27 248.702 1273.99 208.781 1268.23 208.781C1262.47 208.781 1236.6 233.542 1236.01 237.906C1235.42 242.269 1257.99 272.306 1257.99 272.306Z" fill="#F5EFF8" stroke="#D3CAD8" stroke-width="6"/>
<path d="M1299.71 222.142C1304.48 221.198 1303.89 221.021 1308.13 222.719C1308.13 222.719 1329.52 242.69 1331.06 245.198C1332.6 247.707 1340.05 266.1 1340.05 266.1C1340.05 266.1 1317.34 269.338 1314.61 269.493C1311.88 269.648 1287.99 263.803 1287.99 263.803C1284.09 262.421 1283.31 258.916 1281.68 255.019C1276.04 241.507 1294.93 223.086 1299.71 222.142Z" fill="#161616" stroke="black" stroke-width="6" stroke-linecap="round" stroke-linejoin="round"/>
<path d="M1259.91 126.051C1250.18 132.464 1244.55 169.105 1244.55 169.105L1289.14 238.961L1322.42 254.367C1322.42 254.367 1354.9 247.065 1356.35 246.136C1357.79 245.208 1368.72 229.586 1368.72 229.586L1305.99 123.941C1305.99 123.941 1269.63 119.639 1259.91 126.051Z" fill="#F5EFF8" stroke="#D3CAD8" stroke-width="6"/>
<path d="M1339.76 185.62C1346.38 186.289 1345.67 185.82 1350.54 189.73C1350.54 189.73 1370.54 224.355 1371.56 228.249C1372.57 232.143 1374.98 259.153 1374.98 259.153C1374.98 259.153 1344 254.338 1340.37 253.454C1336.75 252.57 1307.84 235.412 1307.84 235.412C1303.29 232.051 1302.54 228.672 1303.09 221.416C1303.65 214.16 1333.14 184.951 1339.76 185.62Z" fill="#161616" stroke="black" stroke-width="6" stroke-linecap="round" stroke-linejoin="round"/>
<path d="M1331.6 64.3604C1314.25 69.1403 1303.01 102.906 1303.01 102.906L1312.39 182.98L1331.6 223.655C1331.6 223.655 1383.48 231.933 1385.79 230.896C1388.1 229.859 1419.07 194.906 1419.07 194.906L1416.51 158.702C1416.51 158.702 1382.76 79.4732 1381.1 75.4344C1379.43 71.3956 1348.94 59.5805 1331.6 64.3604Z" fill="#F5EFF8" stroke="#D3CAD8" stroke-width="6"/>
<path d="M1450.76 230.966C1450.76 230.966 1473.53 272.073 1482.49 272.029C1491.45 271.985 1519.7 272.029 1519.7 272.029H1561.32C1566.44 272.029 1604 239.188 1604 223.919C1604 208.651 1588.64 189.486 1588.64 189.486H1547.66H1489.73C1478.66 189.486 1469.08 198.24 1469.08 198.24L1450.76 230.966Z" fill="#F5EFF8"/>
<path d="M1519.7 272.029C1519.7 272.029 1556.19 272.029 1561.32 272.029M1519.7 272.029C1519.7 272.029 1491.45 271.985 1482.49 272.029C1473.53 272.073 1450.76 230.966 1450.76 230.966L1469.08 198.24C1469.08 198.24 1478.66 189.486 1489.73 189.486M1519.7 272.029H1561.32M1489.73 189.486C1500.81 189.486 1547.66 189.486 1547.66 189.486M1489.73 189.486H1547.66M1547.66 189.486H1588.64C1588.64 189.486 1604 208.651 1604 223.919C1604 239.188 1566.44 272.029 1561.32 272.029" stroke="#D3CAD8" stroke-width="6" stroke-linecap="round" stroke-linejoin="round"/>
<path fill-rule="evenodd" clip-rule="evenodd" d="M1406.26 153.958C1404.13 159.504 1415.32 206.691 1424.62 212.829C1433.92 218.966 1483.52 210.909 1486.93 204.51C1490.35 198.111 1518.73 139.241 1518.73 139.241C1518.73 139.241 1513 97.6478 1502.73 89.3292C1492.45 81.0106 1441.05 97.6478 1441.05 97.6478C1441.05 97.6478 1408.4 148.413 1406.26 153.958Z" fill="#F5EFF8"/>
<path fill-rule="evenodd" clip-rule="evenodd" d="M1406.26 153.958C1404.13 159.504 1415.32 206.691 1424.62 212.829C1433.92 218.966 1483.52 210.909 1486.93 204.51C1490.35 198.111 1518.73 139.241 1518.73 139.241C1518.73 139.241 1513 97.6478 1502.73 89.3292C1492.45 81.0106 1441.05 97.6478 1441.05 97.6478C1441.05 97.6478 1408.4 148.413 1406.26 153.958Z" stroke="#D3CAD8" stroke-width="6" stroke-linecap="round" stroke-linejoin="round"/>
<path d="M1438.79 149.397C1432.44 151.373 1433.04 150.78 1429.07 155.522C1429.07 155.522 1416.9 186.346 1416.37 196.818C1415.85 207.29 1419.35 227.246 1419.35 227.246C1419.35 227.246 1442.96 220.331 1452.08 214.798C1461.21 209.266 1478.47 190.298 1478.47 190.298C1482.24 186.148 1482.04 179.826 1482.04 176.467C1482.04 173.108 1445.14 147.421 1438.79 149.397Z" fill="#161616" stroke="black" stroke-width="6" stroke-linecap="round" stroke-linejoin="round"/>
<path d="M1393.57 159.44C1399.87 163.697 1399.41 162.85 1402.19 169.366C1404.97 175.882 1403.92 211.588 1402.48 218.935C1401.04 226.282 1389.19 251.41 1389.19 251.41C1389.19 251.41 1360.62 229.821 1357.45 226.976C1354.28 224.131 1334.49 191.441 1334.49 191.441C1331.73 185.642 1334.14 178.951 1337.29 174.998C1340.44 171.044 1387.27 155.183 1393.57 159.44Z" fill="#161616" stroke="black" stroke-width="6" stroke-linecap="round" stroke-linejoin="round"/>
<path d="M1525.95 270.007H1494.85C1494.85 270.007 1480.72 271.574 1468.02 262.957C1455.32 254.34 1432.42 217.382 1432.42 217.382C1466.65 219.541 1511.87 222.469 1520.07 222.91C1528.26 223.351 1530.46 226.86 1530.24 229.24C1529.81 233.822 1526.12 271.266 1525.95 270.007Z" fill="#161616" stroke="black" stroke-width="6" stroke-linecap="round"/>
</svg>
