<svg width="374" height="324" viewBox="0 0 374 324" fill="none" xmlns="http://www.w3.org/2000/svg">
<path d="M327.883 274.124C322.554 274.124 74.0778 274.322 74.0778 274.322L163.956 113.45C163.956 113.45 180.37 118.351 187.618 111.106C194.866 103.86 215.064 68.3467 215.064 68.3467L296.121 122.613C296.121 122.613 291.644 152.02 304.648 159.478C317.651 166.937 332.786 169.494 341.1 174.821C349.413 180.149 375.961 200.287 369.664 225.751C363.367 251.216 333.212 274.124 327.883 274.124Z" fill="#F5EFF8"/>
<path opacity="0.4" d="M119.45 272.411H75.2242L83.8427 237.806L131.017 230.375L119.45 272.411Z" fill="#D3CAD8" stroke="#D3CAD8" stroke-width="6" stroke-linecap="round" stroke-linejoin="round"/>
<path opacity="0.4" d="M187.781 221.613L174.126 219.479L165.591 114.079C172.666 117.565 177.271 117.762 184.367 114.932L196.102 145.656C196.102 145.656 203.783 161.231 205.703 173.393C207.624 185.555 200.583 199.423 199.729 204.117C198.876 208.811 187.781 221.613 187.781 221.613Z" fill="#D3CAD8" stroke="#D3CAD8" stroke-width="6" stroke-linecap="round" stroke-linejoin="round"/>
<path opacity="0.4" d="M206.771 231.214L219.146 238.042L357.618 191.102L346.523 180.647C346.523 180.647 258.405 181.074 244.749 181.074C231.094 181.074 221.066 194.943 217.012 198.783C212.959 202.624 206.771 231.214 206.771 231.214Z" fill="#D3CAD8" stroke="#D3CAD8" stroke-width="6" stroke-linecap="round" stroke-linejoin="round"/>
<path d="M230.027 272.153C230.027 265.345 228.526 258.603 225.61 252.313C222.693 246.022 218.418 240.307 213.029 235.492C207.64 230.678 201.243 226.859 194.202 224.253C187.161 221.648 179.614 220.307 171.993 220.307C164.372 220.307 156.825 221.648 149.784 224.253C142.743 226.859 136.345 230.678 130.956 235.492C125.567 240.307 121.293 246.022 118.376 252.313C115.46 258.603 113.959 265.345 113.959 272.153L171.993 272.153H230.027Z" fill="#8029CA" stroke="#6B22A9" stroke-width="6"/>
<rect x="115.24" y="262.125" width="113.935" height="9.3879" fill="#6B22A9"/>
<path d="M115.025 262.765H171.139M171.139 262.765V220.093M171.139 262.765H229.173" stroke="#6B22A9" stroke-width="6" stroke-linecap="round" stroke-linejoin="round"/>
<path d="M165.041 273.059C165.009 273.09 164.389 273.838 163.329 275.173C162.526 276.185 161.507 278.285 160.249 281.013C159.461 282.721 159.449 284.713 159.445 286.717C159.443 288.005 160.754 290.58 161.867 292.279C162.525 293.284 164.477 293.704 167.444 294.255C168.469 294.445 169.811 294.346 171.224 294.175C174.12 293.824 176.054 293.067 177.097 292.488C178.432 291.746 179.61 290.672 180.485 289.776C181.728 288.502 182.049 286.889 182.112 284.858C182.158 283.389 180.523 282.227 178.682 280.939C177.762 280.296 175.315 280.341 173.455 280.594C170.772 280.959 169.778 282.88 169.038 283.906C168.784 284.259 168.524 285.154 168.114 287.382C167.84 288.87 167.816 291.14 167.814 292.634C167.812 294.797 168.268 296.14 168.98 297.847C170.046 300.403 171.511 302.258 172.779 303.436C173.609 304.108 174.814 304.93 175.355 305.314C175.896 305.699 175.738 305.622 175.574 305.543" stroke="#6B22A9" stroke-width="6" stroke-linecap="round"/>
<path d="M24.9873 272.306H74.0604C74.0604 272.306 90.5627 263.475 91.4161 256.088C92.2696 248.702 40.9894 208.781 35.2287 208.781C29.4679 208.781 3.60316 233.542 3.01108 237.906C2.41901 242.269 24.9873 272.306 24.9873 272.306Z" fill="#F5EFF8" stroke="#D3CAD8" stroke-width="6"/>
<path d="M66.7066 222.142C71.4834 221.198 70.8896 221.021 75.131 222.719C75.131 222.719 96.5154 242.69 98.0577 245.198C99.6 247.707 107.047 266.1 107.047 266.1C107.047 266.1 84.3353 269.338 81.6074 269.493C78.8795 269.648 54.9887 263.803 54.9887 263.803C51.0867 262.421 50.3064 258.916 48.679 255.019C43.0367 241.507 61.9298 223.086 66.7066 222.142Z" fill="#161616" stroke="black" stroke-width="6" stroke-linecap="round" stroke-linejoin="round"/>
<path d="M26.9085 126.051C17.1842 132.464 11.5465 169.105 11.5465 169.105L56.139 238.961L89.4234 254.367C89.4234 254.367 121.903 247.065 123.348 246.136C124.793 245.208 135.719 229.586 135.719 229.586L72.9946 123.941C72.9946 123.941 36.6329 119.639 26.9085 126.051Z" fill="#F5EFF8" stroke="#D3CAD8" stroke-width="6"/>
<path d="M106.757 185.62C113.378 186.289 112.672 185.82 117.54 189.73C117.54 189.73 137.539 224.355 138.555 228.249C139.572 232.143 141.98 259.153 141.98 259.153C141.98 259.153 111.001 254.338 107.373 253.454C103.745 252.57 74.843 235.412 74.843 235.412C70.2926 232.051 69.5396 228.672 70.0938 221.416C70.648 214.16 100.137 184.951 106.757 185.62Z" fill="#161616" stroke="black" stroke-width="6" stroke-linecap="round" stroke-linejoin="round"/>
<path d="M98.5959 64.3604C81.2524 69.1403 70.0055 102.906 70.0055 102.906L79.3934 182.98L98.5959 223.655C98.5959 223.655 150.48 231.933 152.79 230.896C155.099 229.859 186.074 194.906 186.074 194.906L183.514 158.702C183.514 158.702 149.759 79.4732 148.096 75.4344C146.432 71.3956 115.939 59.5805 98.5959 64.3604Z" fill="#F5EFF8" stroke="#D3CAD8" stroke-width="6"/>
<path d="M217.763 230.966C217.763 230.966 240.534 272.073 249.494 272.029C258.453 271.985 286.699 272.029 286.699 272.029H328.317C333.439 272.029 371.003 239.188 371.003 223.919C371.003 208.651 355.636 189.486 355.636 189.486H314.658H256.734C245.66 189.486 236.077 198.24 236.077 198.24L217.763 230.966Z" fill="#F5EFF8"/>
<path d="M286.699 272.029C286.699 272.029 323.195 272.029 328.317 272.029M286.699 272.029C286.699 272.029 258.453 271.985 249.494 272.029C240.534 272.073 217.763 230.966 217.763 230.966L236.077 198.24C236.077 198.24 245.66 189.486 256.734 189.486M286.699 272.029H328.317M256.734 189.486C267.808 189.486 314.658 189.486 314.658 189.486M256.734 189.486H314.658M314.658 189.486H355.636C355.636 189.486 371.003 208.651 371.003 223.919C371.003 239.188 333.439 272.029 328.317 272.029" stroke="#D3CAD8" stroke-width="6" stroke-linecap="round" stroke-linejoin="round"/>
<path fill-rule="evenodd" clip-rule="evenodd" d="M215.735 69.9584C213.601 75.5042 224.787 122.691 234.089 128.829C243.391 134.966 292.99 126.909 296.405 120.51C299.819 114.111 328.203 55.2409 328.203 55.2409C328.203 55.2409 322.474 13.6478 312.197 5.32921C301.92 -2.98938 250.521 13.6478 250.521 13.6478C250.521 13.6478 217.869 64.4126 215.735 69.9584Z" fill="#F5EFF8"/>
<path fill-rule="evenodd" clip-rule="evenodd" d="M215.735 69.9584C213.601 75.5042 224.787 122.691 234.089 128.829C243.391 134.966 292.99 126.909 296.405 120.51C299.819 114.111 328.203 55.2409 328.203 55.2409C328.203 55.2409 322.474 13.6478 312.197 5.32921C301.92 -2.98938 250.521 13.6478 250.521 13.6478C250.521 13.6478 217.869 64.4126 215.735 69.9584Z" stroke="#D3CAD8" stroke-width="6" stroke-linecap="round" stroke-linejoin="round"/>
<path d="M248.263 65.3973C241.914 67.3732 242.509 66.7804 238.541 71.5225C238.541 71.5225 226.368 102.346 225.843 112.818C225.317 123.29 228.819 143.246 228.819 143.246C228.819 143.246 252.429 136.331 261.556 130.798C270.683 125.266 287.944 106.298 287.944 106.298C291.714 102.148 291.515 95.8256 291.515 92.4666C291.515 89.1076 254.612 63.4214 248.263 65.3973Z" fill="#161616" stroke="black" stroke-width="6" stroke-linecap="round" stroke-linejoin="round"/>
<path d="M160.569 159.44C166.868 163.697 166.412 162.85 169.193 169.366C171.974 175.882 170.923 211.588 169.48 218.935C168.036 226.282 156.189 251.41 156.189 251.41C156.189 251.41 127.623 229.821 124.451 226.976C121.279 224.131 101.488 191.441 101.488 191.441C98.7291 185.642 101.141 178.951 104.289 174.998C107.437 171.044 154.269 155.183 160.569 159.44Z" fill="#161616" stroke="black" stroke-width="6" stroke-linecap="round" stroke-linejoin="round"/>
<path d="M292.946 270.007H261.847C261.847 270.007 247.716 271.574 235.017 262.957C222.317 254.34 199.422 217.382 199.422 217.382C233.649 219.541 278.873 222.469 287.068 222.91C295.262 223.351 297.456 226.86 297.235 229.24C296.812 233.822 293.119 271.266 292.946 270.007Z" fill="#161616" stroke="black" stroke-width="6" stroke-linecap="round"/>
</svg>
