<svg width="76" height="69" viewBox="0 0 76 69" fill="none" xmlns="http://www.w3.org/2000/svg">
<path d="M37.4518 67.4997C20.0029 67.4285 14.6923 56.1173 12.4922 55.1214C10.2922 54.1254 2.02288 54.9079 1.56769 47.0114C1.1125 39.1149 7.33342 40.0397 6.87823 39.1149C6.42305 38.1901 7.43172 37.281 7.71275 36.4116C7.71275 36.4116 1.56769 35.4868 1.56769 30.5151C1.56769 25.5434 7.71275 23.9151 7.71275 23.9151C7.71275 23.9151 0.754065 21.9849 1.56769 16.817C2.38132 11.6491 9.38602 14.0151 9.38602 14.0151C9.38602 14.0151 5.86679 6.79245 12.4922 5.42264C19.1177 4.05283 22.1348 8.7849 22.1348 8.7849C22.1348 8.7849 20.0763 1.5 27.4467 1.5C34.8172 1.5 36.3443 8.7849 36.3443 8.7849C36.3443 8.7849 36.3443 1.5 43.7811 1.5C51.2178 1.5 51.6826 8.7849 51.6826 8.7849C51.6826 8.7849 55.7993 3.11887 62.1738 5.42264C68.5482 7.72641 63.3975 14.0151 63.3975 14.0151C63.3975 14.0151 69.3909 12.0849 71.0599 16.817C72.729 21.5491 67.3529 23.9151 67.3529 23.9151C67.3529 23.9151 74.4738 25.4094 74.4738 30.5151C74.4738 35.6208 69.3909 35.4868 69.3909 35.4868C71.025 36.8345 70.9082 38.2612 71.0599 39.1149C71.2117 39.9686 74.8532 39.6129 74.4738 47.0114C74.0945 54.41 64.9148 54.2677 63.3975 55.1214C61.8802 55.975 54.9007 67.5708 37.4518 67.4997Z" fill="#F7C97E" stroke="#E2AE58" stroke-width="3" stroke-linecap="round"/>
</svg>
