<svg width="228" height="185" viewBox="0 0 228 185" fill="none" xmlns="http://www.w3.org/2000/svg">
<path d="M169.933 95.0408C173.367 103.741 169.933 181.129 169.933 181.129C169.933 181.129 134.457 159.149 131.023 154.112C131.023 154.112 118.201 117.479 117.057 112.442C115.912 107.405 107.44 108.778 105.838 112.442C104.235 116.105 90.0393 142.664 90.0393 142.664C85.4601 142.206 34.8605 134.65 28.6786 134.65C22.4967 134.65 11.9647 149.762 6.69868 149.075C1.43265 148.388 2.33581 57.7207 2.33581 57.7207C2.33581 57.7207 63.4677 51.9968 97.1242 53.3705C130.781 54.7443 166.499 86.3404 169.933 95.0408Z" fill="#FADBA7"/>
<path fill-rule="evenodd" clip-rule="evenodd" d="M55.9119 2.99988C48.6275 4.57524 7.98357 59.2016 2.33581 57.7207C2.33581 57.7207 63.4677 51.9968 97.1242 53.3705C130.781 54.7443 166.499 86.3404 169.933 95.0408C173.367 103.741 169.933 181.129 169.933 181.129C173.893 182.229 218.875 138.291 222.377 134.862C222.358 135.078 222.532 134.71 222.377 134.862C222.869 129.372 229.636 52.2633 222.349 45.4187C214.794 38.321 171.535 2.99988 132.842 2.99988L55.9119 2.99988ZM126.129 146.954L126.129 146.955C126.208 147.148 126.285 147.34 126.362 147.53C126.285 147.34 126.207 147.148 126.129 146.954Z" fill="#FADBA7"/>
<path d="M113.392 128.469C104.233 129.385 90.0377 142.664 90.0377 142.664C90.0377 142.664 104.233 116.105 105.836 112.442C107.439 108.778 115.91 107.405 117.055 112.442C118.2 117.479 128.899 149.402 131.021 154.112C131.021 154.112 122.55 127.553 113.392 128.469Z" fill="#E2AE58"/>
<path d="M171.547 181.129V95.8525C171.547 95.3321 171.362 94.8503 170.993 94.4826C166.126 89.6227 130.053 54.6488 98.738 53.3707C78.8824 52.5602 49.4643 54.2201 28.677 55.7176M171.547 181.129L131.021 154.112M171.547 181.129L223.53 135.248C223.96 134.868 224.207 134.322 224.207 133.748V45.8452C224.207 45.2464 223.961 44.6975 223.493 44.3239C217.192 39.2953 170.469 3 134.455 3C99.0609 3 64.0493 3 58.3362 3C57.8043 3 57.3147 3.21187 56.9394 3.58876L3.03383 57.7209M28.677 134.651L90.0377 142.664M28.677 134.651V55.7176M28.677 134.651L5.55236 150.449M90.0377 142.664C90.0377 142.664 104.233 129.385 113.392 128.469C122.55 127.553 131.021 154.112 131.021 154.112M90.0377 142.664C90.0377 142.664 104.233 116.105 105.836 112.442C107.439 108.778 115.91 107.405 117.055 112.442C118.2 117.479 128.899 149.402 131.021 154.112M28.677 55.7176L3.03383 57.7209M28.677 55.7176L17.1147 103.083L5.55236 150.449M3.03383 57.7209L5.55236 150.449" stroke="#E2AE58" stroke-width="6"/>
<circle cx="10.0741" cy="10.0741" r="10.0741" transform="matrix(-1 0 0 1 215.277 85.4227)" fill="#E2AE58"/>
<circle cx="17.6297" cy="17.6297" r="17.6297" transform="matrix(-1 0 0 1 93.475 89.0873)" fill="#E2AE58"/>
<circle cx="17.6297" cy="17.6297" r="17.6297" transform="matrix(-1 0 0 1 164.451 105.574)" fill="#E2AE58"/>
</svg>
