<svg width="130" height="145" viewBox="0 0 130 145" fill="none" xmlns="http://www.w3.org/2000/svg">
<path d="M81.2553 12.5714L21.5134 30.1284L7.83259 87.2952L52.5317 132.596L109.033 111.514L122.714 54.3471L81.2553 12.5714Z" fill="#FADBA7"/>
<path d="M122.714 54.3471L124.134 52.9383L124.919 53.7291L124.659 54.8126L122.714 54.3471ZM21.5134 30.1284L19.5683 29.6629L19.838 28.5362L20.9495 28.2095L21.5134 30.1284ZM81.2553 12.5714L80.6914 10.6526C81.396 10.4455 82.1575 10.6413 82.6749 11.1626L81.2553 12.5714ZM109.033 111.514L110.978 111.979L110.731 113.015L109.733 113.388L109.033 111.514ZM52.5317 132.596L53.2309 134.47C52.4927 134.745 51.6615 134.562 51.1081 134.001L52.5317 132.596ZM7.83259 87.2952L6.40896 88.6999L5.62909 87.9096L5.88751 86.8297L7.83259 87.2952ZM122.714 54.3471L123.342 56.2459L67.463 74.7272L66.835 72.8284L66.2069 70.9296L122.086 52.4483L122.714 54.3471ZM66.835 72.8284L65.4635 74.2841L20.1419 31.584L21.5134 30.1284L22.8849 28.6727L68.2064 71.3727L66.835 72.8284ZM21.5134 30.1284L20.9495 28.2095L80.6914 10.6526L81.2553 12.5714L81.8192 14.4903L22.0773 32.0472L21.5134 30.1284ZM81.2553 12.5714L82.6749 11.1626L124.134 52.9383L122.714 54.3471L121.295 55.7559L79.8357 13.9803L81.2553 12.5714ZM109.033 111.514L109.733 113.388L53.2309 134.47L52.5317 132.596L51.8325 130.722L108.334 109.64L109.033 111.514ZM52.5317 132.596L50.5866 132.131L64.8899 72.3629L66.835 72.8284L68.78 73.2939L54.4768 133.062L52.5317 132.596ZM122.714 54.3471L124.659 54.8126L110.978 111.979L109.033 111.514L107.088 111.048L120.769 53.8816L122.714 54.3471ZM52.5317 132.596L51.1081 134.001L6.40896 88.6999L7.83259 87.2952L9.25622 85.8905L53.9554 131.191L52.5317 132.596ZM7.83259 87.2952L5.88751 86.8297L19.5683 29.6629L21.5134 30.1284L23.4585 30.5938L9.77767 87.7607L7.83259 87.2952Z" fill="#E2AE58"/>
<ellipse cx="6.73202" cy="5.50801" rx="6.73202" ry="5.50801" transform="matrix(-0.972539 -0.232742 -0.232742 0.972539 80.2016 37.0515)" fill="#E2AE58"/>
<ellipse cx="6.73202" cy="5.50801" rx="6.73202" ry="5.50801" transform="matrix(-0.972539 -0.232742 -0.232742 0.972539 102.977 42.875)" fill="#E2AE58"/>
<ellipse cx="6.73202" cy="5.50801" rx="6.73202" ry="5.50801" transform="matrix(-0.972539 -0.232742 -0.232742 0.972539 57.4246 31.2292)" fill="#E2AE58"/>
<circle cx="7.14905" cy="7.14905" r="7.14905" transform="matrix(-0.972539 -0.232742 -0.232742 0.972539 98.0712 89.6407)" fill="#E2AE58"/>
<circle cx="5.6403" cy="5.6403" r="5.6403" transform="matrix(-0.972539 -0.232742 -0.232742 0.972539 53.2907 71.9287)" fill="#E2AE58"/>
<circle cx="5.6403" cy="5.6403" r="5.6403" transform="matrix(-0.972539 -0.232742 -0.232742 0.972539 34.9177 57.9545)" fill="#E2AE58"/>
<circle cx="5.6403" cy="5.6403" r="5.6403" transform="matrix(-0.972539 -0.232742 -0.232742 0.972539 30.111 78.8497)" fill="#E2AE58"/>
<circle cx="5.6403" cy="5.6403" r="5.6403" transform="matrix(-0.972539 -0.232742 -0.232742 0.972539 46.5528 93.4011)" fill="#E2AE58"/>
</svg>
